SplineFontDB: 3.2
FontName: ATM661-Regular
FullName: ATM661-Regular
FamilyName: ATM 661
Weight: Book
Version: 1.001
ItalicAngle: -11
UnderlinePosition: -271
UnderlineWidth: 102
Ascent: 1600
Descent: 400
InvalidEm: 0
sfntRevision: 0x00010042
LayerCount: 2
Layer: 0 1 "Back" 1
Layer: 1 1 "Fore" 0
XUID: [1021 192 2086997156 3210]
StyleMap: 0x0040
FSType: 8
OS2Version: 3
OS2_WeightWidthSlopeOnly: 0
OS2_UseTypoMetrics: 0
CreationTime: 1537435444
ModificationTime: 1545958789
PfmFamily: 17
TTFWeight: 400
TTFWidth: 5
LineGap: 0
VLineGap: 0
Panose: 2 0 5 5 0 0 0 2 0 2
OS2TypoAscent: 2000
OS2TypoAOffset: 0
OS2TypoDescent: -1320
OS2TypoDOffset: 0
OS2TypoLinegap: 0
OS2WinAscent: 2000
OS2WinAOffset: 0
OS2WinDescent: 744
OS2WinDOffset: 0
HheadAscent: 2000
HheadAOffset: 0
HheadDescent: -1320
HheadDOffset: 0
OS2SubXSize: 1400
OS2SubYSize: 1300
OS2SubXOff: 0
OS2SubYOff: 0
OS2SupXSize: 1400
OS2SupYSize: 1300
OS2SupXOff: 0
OS2SupYOff: 0
OS2StrikeYSize: 100
OS2StrikeYPos: 518
OS2CapHeight: 1586
OS2XHeight: -200
OS2Vendor: '    '
OS2CodePages: 00000001.00000000
OS2UnicodeRanges: 00100003.00000000.00000000.00000000
Lookup: 4 0 0 "'akhn' Akhand in Tamil2 lookup 0" { "'akhn' Akhand in Tamil2 lookup 0 subtable"  } ['akhn' ('tml2' <'dflt' > ) ]
Lookup: 4 0 0 "'akhn' Akhand in Tamil lookup 1" { "'akhn' Akhand in Tamil lookup 1 subtable"  } ['akhn' ('taml' <'dflt' > ) ]
Lookup: 4 0 0 "'half' Half Forms in Tamil lookup 2" { "'half' Half Forms in Tamil lookup 2 subtable"  } ['half' ('taml' <'dflt' > ) ]
Lookup: 4 0 0 "'haln' Halant Forms in Tamil2 lookup 3" { "'haln' Halant Forms in Tamil2 lookup 3 subtable"  } ['haln' ('tml2' <'dflt' > ) ]
Lookup: 4 0 0 "'haln' Halant Forms in Tamil lookup 4" { "'haln' Halant Forms in Tamil lookup 4 subtable"  } ['haln' ('taml' <'dflt' > ) ]
Lookup: 4 0 0 "'abvs' Above Base Substitutions lookup 5" { "'abvs' Above Base Substitutions lookup 5 subtable"  } ['abvs' ('taml' <'dflt' > 'tml2' <'dflt' > ) ]

StartChar: exclam
Encoding: 33 33 4
Width: 454
GlyphClass: 2
Flags: W
LayerCount: 2
Fore
SplineSet
474 668 m 1,0,-1
 344 668 l 1,1,-1
 346 690 l 1,2,-1
 474 690 l 1,3,-1
 474 668 l 1,0,-1
352 1330 m 1,4,5
 334 1210 334 1210 312 824 c 0,6,7
 294 490 294 490 290 298 c 1,8,-1
 216 256 l 1,9,-1
 236 1034 l 1,10,-1
 184 1002 l 1,11,-1
 178 934 l 1,12,-1
 104 892 l 1,13,-1
 120 1190 l 1,14,-1
 352 1330 l 1,4,5
474 494 m 1,15,-1
 336 494 l 1,16,-1
 336 516 l 1,17,-1
 474 516 l 1,18,-1
 474 494 l 1,15,-1
186 668 m 1,19,-1
 -20 668 l 1,20,-1
 -20 690 l 1,21,-1
 186 690 l 1,22,-1
 186 668 l 1,19,-1
474 320 m 1,23,-1
 330 320 l 1,24,-1
 330 342 l 1,25,-1
 474 342 l 1,26,-1
 474 320 l 1,23,-1
474 146 m 1,27,-1
 430 146 l 1,28,-1
 422 168 l 1,29,-1
 474 168 l 1,30,-1
 474 146 l 1,27,-1
182 494 m 1,31,-1
 -20 494 l 1,32,-1
 -20 516 l 1,33,-1
 182 516 l 1,34,-1
 182 494 l 1,31,-1
474 -28 m 1,35,-1
 438 -28 l 1,36,-1
 442 -6 l 1,37,-1
 474 -6 l 1,38,-1
 474 -28 l 1,35,-1
178 320 m 1,39,-1
 -20 320 l 1,40,-1
 -20 342 l 1,41,-1
 178 342 l 1,42,-1
 178 320 l 1,39,-1
406 54 m 0,43,44
 406 -40 406 -40 372 -104 c 0,45,46
 332 -180 332 -180 254 -180 c 0,47,48
 190 -180 190 -180 150 -116 c 0,49,50
 114 -58 114 -58 114 18 c 0,51,52
 114 120 114 120 157 185 c 128,-1,53
 200 250 200 250 270 250 c 0,54,55
 334 250 334 250 372 186 c 0,56,57
 406 130 406 130 406 54 c 0,43,44
106 168 m 1,58,-1
 96 146 l 1,59,-1
 -20 146 l 1,60,-1
 -20 168 l 1,61,-1
 106 168 l 1,58,-1
78 -28 m 1,62,-1
 -20 -28 l 1,63,-1
 -20 -6 l 1,64,-1
 74 -6 l 1,65,-1
 78 -28 l 1,62,-1
EndSplineSet
EndChar

StartChar: quotedbl
Encoding: 34 34 5
Width: 606
GlyphClass: 2
Flags: W
LayerCount: 2
Fore
SplineSet
109 647 m 1,0,-1
 63 912 l 1,1,-1
 63 1140 l 1,2,-1
 257 1140 l 1,3,-1
 257 912 l 1,4,-1
 214 647 l 1,5,-1
 109 647 l 1,0,-1
423 647 m 1,6,-1
 378 912 l 1,7,-1
 378 1140 l 1,8,-1
 572 1140 l 1,9,-1
 572 912 l 1,10,-1
 527 647 l 1,11,-1
 423 647 l 1,6,-1
EndSplineSet
EndChar

StartChar: numbersign
Encoding: 35 35 6
Width: 1203
GlyphClass: 2
Flags: W
LayerCount: 2
Fore
SplineSet
179 22 m 1,0,-1
 264 356 l 1,1,-1
 103 356 l 1,2,-1
 103 473 l 1,3,-1
 288 473 l 1,4,-1
 358 761 l 1,5,-1
 103 761 l 1,6,-1
 103 876 l 1,7,-1
 386 876 l 1,8,-1
 471 1218 l 1,9,-1
 609 1218 l 1,10,-1
 526 876 l 1,11,-1
 817 876 l 1,12,-1
 903 1218 l 1,13,-1
 1041 1218 l 1,14,-1
 962 876 l 1,15,-1
 1124 876 l 1,16,-1
 1124 761 l 1,17,-1
 932 761 l 1,18,-1
 861 473 l 1,19,-1
 1124 473 l 1,20,-1
 1124 356 l 1,21,-1
 832 356 l 1,22,-1
 755 22 l 1,23,-1
 611 22 l 1,24,-1
 688 356 l 1,25,-1
 401 356 l 1,26,-1
 322 22 l 1,27,-1
 179 22 l 1,0,-1
435 473 m 1,28,-1
 724 473 l 1,29,-1
 792 761 l 1,30,-1
 501 761 l 1,31,-1
 435 473 l 1,28,-1
EndSplineSet
EndChar

StartChar: dollar
Encoding: 36 36 7
Width: 908
GlyphClass: 2
Flags: W
LayerCount: 2
Fore
SplineSet
766 302 m 0,0,1
 744 187 744 187 654 120 c 0,2,3
 572 60 572 60 456 60 c 1,4,-1
 456 -52 l 1,5,-1
 383 -52 l 1,6,-1
 383 60 l 1,7,8
 372 60 372 60 357 60 c 0,9,10
 336 65 336 65 330 71 c 2,11,-1
 264 92 l 2,12,13
 242 95 242 95 229.5 102.5 c 128,-1,14
 217 110 217 110 188 131 c 2,15,-1
 146 156 l 1,16,-1
 180 232 l 1,17,-1
 217 204 l 2,18,19
 259 169 259 169 284 156 c 2,20,-1
 336 137 l 1,21,-1
 383 134 l 1,22,-1
 383 518 l 1,23,24
 230 560 230 560 169 630 c 0,25,26
 99 710 99 710 99 838 c 2,27,-1
 99 872 l 1,28,-1
 104 912 l 2,29,30
 119 1045 119 1045 217 1126 c 0,31,32
 299 1192 299 1192 383 1192 c 1,33,-1
 383 1289 l 1,34,-1
 456 1289 l 1,35,-1
 456 1197 l 1,36,-1
 510 1191 l 2,37,38
 531 1191 531 1191 541.5 1190 c 128,-1,39
 552 1189 552 1189 578 1176 c 1,40,41
 688 1140 688 1140 688 1126 c 1,42,-1
 659 1037 l 1,43,-1
 646 1048 l 2,44,45
 615 1079 615 1079 563 1101 c 0,46,47
 537 1112 537 1112 517.5 1116.5 c 128,-1,48
 498 1121 498 1121 491 1121 c 0,49,50
 466 1121 466 1121 456 1126 c 1,51,-1
 456 739 l 1,52,53
 561 717 561 717 615 686 c 0,54,55
 773 594 773 594 773 404 c 2,56,-1
 772 355 l 2,57,58
 772 330 772 330 766 302 c 0,0,1
383 770 m 1,59,-1
 383 1126 l 1,60,61
 330 1121 330 1121 281 1080 c 0,62,63
 219 1030 219 1030 219 964 c 0,64,65
 219 872 219 872 283 819 c 0,66,67
 297 807 297 807 322.5 796 c 128,-1,68
 348 785 348 785 383 770 c 1,59,-1
653 317 m 0,69,70
 653 404 653 404 573 448 c 1,71,-1
 456 493 l 1,72,-1
 456 134 l 1,73,74
 547 134 547 134 600 185 c 128,-1,75
 653 236 653 236 653 317 c 0,69,70
EndSplineSet
EndChar

StartChar: percent
Encoding: 37 37 8
Width: 1178
GlyphClass: 2
Flags: W
LayerCount: 2
Fore
SplineSet
1198 668 m 1,0,-1
 816 668 l 1,1,-1
 828 690 l 1,2,-1
 1198 690 l 1,3,-1
 1198 668 l 1,0,-1
1196 494 m 1,4,-1
 722 494 l 1,5,-1
 734 516 l 1,6,-1
 1196 516 l 1,7,-1
 1196 494 l 1,4,-1
1198 320 m 1,8,-1
 1046 320 l 1,9,-1
 1034 342 l 1,10,-1
 1198 342 l 1,11,-1
 1198 320 l 1,8,-1
666 690 m 1,12,-1
 654 668 l 1,13,-1
 580 668 l 1,14,-1
 584 690 l 1,15,-1
 666 690 l 1,12,-1
1198 146 m 1,16,-1
 1078 146 l 1,17,-1
 1078 168 l 1,18,-1
 1198 168 l 1,19,-1
 1198 146 l 1,16,-1
1254 1344 m 1,20,-1
 1132 1028 l 1,21,-1
 938 966 l 1,22,23
 820 748 820 748 536 226 c 0,24,25
 412 0 412 0 278 -226 c 0,26,27
 252 -270 252 -270 205 -297 c 128,-1,28
 158 -324 158 -324 122 -324 c 0,29,30
 78 -324 78 -324 40 -293 c 128,-1,31
 2 -262 2 -262 2 -206 c 0,32,33
 2 -156 2 -156 39 -116 c 128,-1,34
 76 -76 76 -76 126 -76 c 0,35,36
 204 -76 204 -76 204 -158 c 0,37,38
 204 -196 204 -196 168 -240 c 1,39,40
 188 -240 188 -240 220 -185 c 128,-1,41
 252 -130 252 -130 282 -78 c 0,42,43
 404 136 404 136 636 560 c 1,44,-1
 952 1160 l 1,45,-1
 1140 1222 l 1,46,-1
 1190 1344 l 1,47,-1
 1254 1344 l 1,20,-1
1198 -28 m 1,48,-1
 1072 -28 l 1,49,-1
 1076 -6 l 1,50,-1
 1198 -6 l 1,51,-1
 1198 -28 l 1,48,-1
550 800 m 0,52,53
 550 644 550 644 502 542 c 0,54,55
 442 414 442 414 322 414 c 0,56,57
 136 414 136 414 136 700 c 0,58,59
 136 1116 136 1116 374 1116 c 0,60,61
 550 1116 550 1116 550 800 c 0,52,53
574 516 m 1,62,-1
 560 494 l 1,63,-1
 514 494 l 1,64,-1
 530 516 l 1,65,-1
 574 516 l 1,62,-1
1040 88 m 0,66,67
 1040 -110 1040 -110 976 -216 c 0,68,69
 916 -314 916 -314 810 -314 c 0,70,71
 722 -314 722 -314 672 -229 c 128,-1,72
 622 -144 622 -144 622 -4 c 0,73,74
 622 192 622 192 687 305 c 128,-1,75
 752 418 752 418 860 418 c 0,76,77
 1040 418 1040 418 1040 88 c 0,66,67
598 168 m 1,78,-1
 594 146 l 1,79,-1
 532 146 l 1,80,-1
 546 168 l 1,81,-1
 598 168 l 1,78,-1
96 668 m 1,82,-1
 -20 668 l 1,83,-1
 -20 690 l 1,84,-1
 96 690 l 1,85,-1
 96 668 l 1,82,-1
136 494 m 1,86,-1
 -20 494 l 1,87,-1
 -20 516 l 1,88,-1
 124 516 l 1,89,-1
 136 494 l 1,86,-1
478 342 m 1,90,-1
 466 320 l 1,91,-1
 -20 320 l 1,92,-1
 -20 342 l 1,93,-1
 478 342 l 1,90,-1
584 -28 m 1,94,-1
 432 -28 l 1,95,-1
 446 -6 l 1,96,-1
 582 -6 l 1,97,-1
 584 -28 l 1,94,-1
382 168 m 1,98,-1
 368 146 l 1,99,-1
 -20 146 l 1,100,-1
 -20 168 l 1,101,-1
 382 168 l 1,98,-1
282 -6 m 1,102,-1
 270 -28 l 1,103,-1
 -20 -28 l 1,104,-1
 -20 -6 l 1,105,-1
 282 -6 l 1,102,-1
470 784 m 0,106,107
 470 896 470 896 346 896 c 0,108,109
 276 896 276 896 241 853 c 128,-1,110
 206 810 206 810 206 756 c 0,111,112
 206 700 206 700 245 667 c 128,-1,113
 284 634 284 634 342 634 c 0,114,115
 470 634 470 634 470 784 c 0,106,107
962 76 m 0,116,117
 962 192 962 192 846 192 c 0,118,119
 774 192 774 192 736 142 c 0,120,121
 702 102 702 102 702 46 c 0,122,123
 702 -14 702 -14 734 -56 c 128,-1,124
 766 -98 766 -98 820 -98 c 0,125,126
 886 -98 886 -98 924 -48 c 128,-1,127
 962 2 962 2 962 76 c 0,116,117
414 690 m 1,128,-1
 398 668 l 1,129,-1
 284 668 l 1,130,-1
 264 690 l 1,131,-1
 414 690 l 1,128,-1
902 146 m 1,132,-1
 776 146 l 1,133,-1
 804 168 l 1,134,-1
 882 168 l 1,135,-1
 902 146 l 1,132,-1
908 -6 m 1,136,-1
 896 -28 l 1,137,-1
 756 -28 l 1,138,-1
 748 -6 l 1,139,-1
 908 -6 l 1,136,-1
EndSplineSet
EndChar

StartChar: ampersand
Encoding: 38 38 9
Width: 900
GlyphClass: 2
Flags: W
LayerCount: 2
Fore
SplineSet
920 668 m 1,0,-1
 470 668 l 1,1,-1
 484 690 l 1,2,-1
 920 690 l 1,3,-1
 920 668 l 1,0,-1
920 494 m 1,4,-1
 744 494 l 1,5,-1
 696 516 l 1,6,-1
 920 516 l 1,7,-1
 920 494 l 1,4,-1
920 320 m 1,8,-1
 862 320 l 1,9,-1
 856 342 l 1,10,-1
 920 342 l 1,11,-1
 920 320 l 1,8,-1
920 146 m 1,12,-1
 880 146 l 1,13,-1
 880 168 l 1,14,-1
 920 168 l 1,15,-1
 920 146 l 1,12,-1
920 -28 m 1,16,-1
 838 -28 l 1,17,-1
 848 -6 l 1,18,-1
 920 -6 l 1,19,-1
 920 -28 l 1,16,-1
286 668 m 1,20,-1
 -20 668 l 1,21,-1
 -20 690 l 1,22,-1
 278 690 l 1,23,-1
 286 668 l 1,20,-1
840 170 m 0,24,25
 840 -22 840 -22 710 -180 c 1,26,27
 768 -384 768 -384 768 -484 c 0,28,29
 768 -620 768 -620 681 -703 c 128,-1,30
 594 -786 594 -786 470 -786 c 0,31,32
 366 -786 366 -786 286 -722 c 0,33,34
 200 -652 200 -652 200 -550 c 0,35,36
 200 -446 200 -446 255 -385 c 128,-1,37
 310 -324 310 -324 398 -324 c 0,38,39
 450 -324 450 -324 485 -359 c 128,-1,40
 520 -394 520 -394 520 -454 c 0,41,42
 520 -512 520 -512 486 -550 c 128,-1,43
 452 -588 452 -588 398 -588 c 0,44,45
 324 -588 324 -588 286 -528 c 1,46,47
 276 -590 276 -590 331 -644 c 128,-1,48
 386 -698 386 -698 472 -698 c 0,49,50
 690 -698 690 -698 690 -468 c 0,51,52
 690 -410 690 -410 678 -348 c 128,-1,53
 666 -286 666 -286 654 -226 c 1,54,55
 550 -278 550 -278 422 -278 c 0,56,57
 260 -278 260 -278 160 -176 c 0,58,59
 54 -68 54 -68 54 124 c 0,60,61
 54 390 54 390 326 668 c 1,62,63
 262 834 262 834 262 984 c 0,64,65
 262 1104 262 1104 314 1190 c 0,66,67
 372 1286 372 1286 470 1286 c 0,68,69
 540 1286 540 1286 577 1227 c 128,-1,70
 614 1168 614 1168 614 1074 c 0,71,72
 614 940 614 940 536 816 c 1,73,74
 476 734 476 734 418 650 c 1,75,-1
 466 520 l 1,76,77
 516 530 516 530 562 530 c 0,78,79
 702 530 702 530 774 426 c 0,80,81
 840 330 840 330 840 170 c 0,24,25
156 516 m 1,82,-1
 140 494 l 1,83,-1
 -20 494 l 1,84,-1
 -20 516 l 1,85,-1
 156 516 l 1,82,-1
98 342 m 1,86,-1
 88 320 l 1,87,-1
 -20 320 l 1,88,-1
 -20 342 l 1,89,-1
 98 342 l 1,86,-1
16 168 m 1,90,-1
 14 146 l 1,91,-1
 -20 146 l 1,92,-1
 -20 168 l 1,93,-1
 16 168 l 1,90,-1
36 -28 m 1,94,-1
 -20 -28 l 1,95,-1
 -20 -6 l 1,96,-1
 28 -6 l 1,97,-1
 36 -28 l 1,94,-1
500 974 m 0,98,99
 500 994 500 994 486 1020 c 128,-1,100
 472 1046 472 1046 450 1046 c 0,101,102
 412 1046 412 1046 387 1000 c 128,-1,103
 362 954 362 954 362 888 c 0,104,105
 362 786 362 786 388 734 c 1,106,107
 500 906 500 906 500 974 c 0,98,99
750 150 m 0,108,109
 750 230 750 230 697 293 c 128,-1,110
 644 356 644 356 570 356 c 0,111,112
 554 356 554 356 538 352 c 1,113,-1
 666 -18 l 1,114,115
 752 52 752 52 750 150 c 0,108,109
606 -56 m 1,116,-1
 472 338 l 1,117,118
 434 328 434 328 402 276 c 128,-1,119
 370 224 370 224 370 172 c 0,120,121
 370 58 370 58 472 -30 c 1,122,123
 382 -22 382 -22 328 64 c 0,124,125
 278 144 278 144 278 258 c 0,126,127
 278 406 278 406 402 492 c 1,128,-1
 362 592 l 1,129,130
 304 514 304 514 246 436 c 1,131,132
 160 302 160 302 160 178 c 0,133,134
 160 60 160 60 264 -16 c 0,135,136
 358 -86 358 -86 478 -86 c 0,137,138
 552 -86 552 -86 606 -56 c 1,116,-1
362 494 m 1,139,-1
 328 494 l 1,140,-1
 344 516 l 1,141,-1
 352 516 l 1,142,-1
 362 494 l 1,139,-1
710 146 m 1,143,-1
 650 146 l 1,144,-1
 642 168 l 1,145,-1
 710 168 l 1,146,-1
 710 146 l 1,143,-1
496 146 m 1,147,-1
 412 146 l 1,148,-1
 410 168 l 1,149,-1
 490 168 l 1,150,-1
 496 146 l 1,147,-1
248 342 m 1,151,-1
 244 320 l 1,152,-1
 228 320 l 1,153,-1
 236 342 l 1,154,-1
 248 342 l 1,151,-1
556 -28 m 1,155,-1
 510 -28 l 1,156,-1
 486 -6 l 1,157,-1
 550 -6 l 1,158,-1
 556 -28 l 1,155,-1
252 146 m 1,159,-1
 202 146 l 1,160,-1
 200 168 l 1,161,-1
 248 168 l 1,162,-1
 252 146 l 1,159,-1
410 -28 m 1,163,-1
 320 -28 l 1,164,-1
 290 -6 l 1,165,-1
 356 -6 l 1,166,-1
 410 -28 l 1,163,-1
EndSplineSet
EndChar

StartChar: quotesingle
Encoding: 39 39 10
Width: 368
GlyphClass: 2
Flags: W
LayerCount: 2
Fore
SplineSet
137 647 m 1,0,-1
 91 912 l 1,1,-1
 91 1140 l 1,2,-1
 285 1140 l 1,3,-1
 285 912 l 1,4,-1
 242 647 l 1,5,-1
 137 647 l 1,0,-1
EndSplineSet
EndChar

StartChar: parenleft
Encoding: 40 40 11
Width: 340
GlyphClass: 2
Flags: W
LayerCount: 2
Fore
SplineSet
360 668 m 1,0,-1
 290 668 l 1,1,-1
 294 690 l 1,2,-1
 360 690 l 1,3,-1
 360 668 l 1,0,-1
624 1528 m 1,4,5
 392 1240 392 1240 302 928 c 0,6,7
 236 700 236 700 236 390 c 0,8,9
 236 8 236 8 344 -338 c 0,10,11
 436 -638 436 -638 544 -736 c 1,12,-1
 508 -756 l 1,13,14
 306 -574 306 -574 194 -144 c 0,15,16
 110 182 110 182 110 466 c 0,17,18
 110 1290 110 1290 546 1746 c 1,19,-1
 624 1528 l 1,4,5
360 494 m 1,20,-1
 278 494 l 1,21,-1
 278 516 l 1,22,-1
 360 516 l 1,23,-1
 360 494 l 1,20,-1
80 690 m 1,24,-1
 78 668 l 1,25,-1
 -20 668 l 1,26,-1
 -20 690 l 1,27,-1
 80 690 l 1,24,-1
360 320 m 1,28,-1
 278 320 l 1,29,-1
 278 342 l 1,30,-1
 360 342 l 1,31,-1
 360 320 l 1,28,-1
70 494 m 1,32,-1
 -20 494 l 1,33,-1
 -20 516 l 1,34,-1
 70 516 l 1,35,-1
 70 494 l 1,32,-1
360 146 m 1,36,-1
 288 146 l 1,37,-1
 286 168 l 1,38,-1
 360 168 l 1,39,-1
 360 146 l 1,36,-1
78 320 m 1,40,-1
 -20 320 l 1,41,-1
 -20 342 l 1,42,-1
 76 342 l 1,43,-1
 78 320 l 1,40,-1
360 -28 m 1,44,-1
 312 -28 l 1,45,-1
 306 -6 l 1,46,-1
 360 -6 l 1,47,-1
 360 -28 l 1,44,-1
96 146 m 1,48,-1
 -20 146 l 1,49,-1
 -20 168 l 1,50,-1
 94 168 l 1,51,-1
 96 146 l 1,48,-1
128 -28 m 1,52,-1
 -20 -28 l 1,53,-1
 -20 -6 l 1,54,-1
 122 -6 l 1,55,-1
 128 -28 l 1,52,-1
EndSplineSet
EndChar

StartChar: parenright
Encoding: 41 41 12
Width: 330
GlyphClass: 2
Flags: W
LayerCount: 2
Fore
SplineSet
350 668 m 1,0,-1
 262 668 l 1,1,-1
 258 690 l 1,2,-1
 350 690 l 1,3,-1
 350 668 l 1,0,-1
350 494 m 1,4,-1
 288 494 l 1,5,-1
 284 516 l 1,6,-1
 350 516 l 1,7,-1
 350 494 l 1,4,-1
56 668 m 1,8,-1
 -20 668 l 1,9,-1
 -20 690 l 1,10,-1
 52 690 l 1,11,-1
 56 668 l 1,8,-1
350 320 m 1,12,-1
 298 320 l 1,13,-1
 298 342 l 1,14,-1
 350 342 l 1,15,-1
 350 320 l 1,12,-1
66 494 m 1,16,-1
 -20 494 l 1,17,-1
 -20 516 l 1,18,-1
 66 516 l 1,19,-1
 66 494 l 1,16,-1
350 146 m 1,20,-1
 296 146 l 1,21,-1
 298 168 l 1,22,-1
 350 168 l 1,23,-1
 350 146 l 1,20,-1
68 342 m 1,24,-1
 66 320 l 1,25,-1
 -20 320 l 1,26,-1
 -20 342 l 1,27,-1
 68 342 l 1,24,-1
260 284 m 0,28,29
 262 -36 262 -36 156 -386 c 0,30,31
 54 -722 54 -722 -128 -1020 c 1,32,-1
 -272 -902 l 1,33,34
 110 -322 110 -322 108 398 c 0,35,36
 108 1138 108 1138 -232 1592 c 1,37,-1
 -192 1624 l 1,38,39
 34 1354 34 1354 156 950 c 0,40,41
 258 610 258 610 260 284 c 0,28,29
350 -28 m 1,42,-1
 276 -28 l 1,43,-1
 280 -6 l 1,44,-1
 350 -6 l 1,45,-1
 350 -28 l 1,42,-1
58 168 m 1,46,-1
 56 146 l 1,47,-1
 -20 146 l 1,48,-1
 -20 168 l 1,49,-1
 58 168 l 1,46,-1
34 -6 m 1,50,-1
 32 -28 l 1,51,-1
 -20 -28 l 1,52,-1
 -20 -6 l 1,53,-1
 34 -6 l 1,50,-1
EndSplineSet
EndChar

StartChar: asterisk
Encoding: 42 42 13
Width: 705
GlyphClass: 2
Flags: W
LayerCount: 2
Fore
SplineSet
646 1169 m 1,0,-1
 414 1121 l 1,1,-1
 592 981 l 1,2,-1
 451 875 l 1,3,-1
 346 1073 l 1,4,-1
 267 873 l 1,5,-1
 114 954 l 1,6,-1
 280 1125 l 1,7,-1
 48 1154 l 1,8,-1
 99 1307 l 1,9,-1
 300 1207 l 1,10,-1
 261 1434 l 1,11,-1
 432 1434 l 1,12,-1
 390 1212 l 1,13,-1
 594 1317 l 1,14,-1
 646 1169 l 1,0,-1
EndSplineSet
EndChar

StartChar: plus
Encoding: 43 43 14
Width: 1108
GlyphClass: 2
Flags: W
LayerCount: 2
Fore
SplineSet
1128 668 m 1,0,-1
 1086 668 l 1,1,-1
 1088 690 l 1,2,-1
 1128 690 l 1,3,-1
 1128 668 l 1,0,-1
1128 494 m 1,4,-1
 1072 494 l 1,5,-1
 1074 516 l 1,6,-1
 1128 516 l 1,7,-1
 1128 494 l 1,4,-1
946 690 m 1,8,-1
 944 668 l 1,9,-1
 652 668 l 1,10,-1
 652 690 l 1,11,-1
 946 690 l 1,8,-1
1128 320 m 1,12,-1
 676 320 l 1,13,-1
 756 342 l 1,14,-1
 1128 342 l 1,15,-1
 1128 320 l 1,12,-1
476 668 m 1,16,-1
 428 668 l 1,17,-1
 428 690 l 1,18,-1
 476 690 l 1,19,-1
 476 668 l 1,16,-1
1128 146 m 1,20,-1
 644 146 l 1,21,-1
 644 168 l 1,22,-1
 1128 168 l 1,23,-1
 1128 146 l 1,20,-1
1050 724 m 1,24,-1
 1026 424 l 1,25,-1
 604 312 l 1,26,-1
 604 -130 l 1,27,28
 528 -174 528 -174 484 -242 c 1,29,-1
 482 -224 l 1,30,31
 506 -196 506 -196 510 -4 c 1,32,33
 510 -14 510 -14 510 288 c 1,34,-1
 132 188 l 1,35,-1
 132 102 l 1,36,-1
 66 78 l 1,37,-1
 66 372 l 1,38,-1
 510 480 l 1,39,-1
 520 788 l 1,40,-1
 388 704 l 1,41,-1
 388 664 l 1,42,-1
 330 642 l 1,43,-1
 330 866 l 1,44,-1
 622 1060 l 1,45,-1
 608 506 l 1,46,-1
 980 602 l 1,47,-1
 986 700 l 1,48,-1
 1050 724 l 1,24,-1
1128 -28 m 1,49,-1
 644 -28 l 1,50,-1
 644 -6 l 1,51,-1
 1128 -6 l 1,52,-1
 1128 -28 l 1,49,-1
290 668 m 1,53,-1
 -20 668 l 1,54,-1
 -20 690 l 1,55,-1
 290 690 l 1,56,-1
 290 668 l 1,53,-1
472 516 m 1,57,-1
 470 494 l 1,58,-1
 -20 494 l 1,59,-1
 -20 516 l 1,60,-1
 472 516 l 1,57,-1
472 168 m 1,61,-1
 470 146 l 1,62,-1
 172 146 l 1,63,-1
 172 168 l 1,64,-1
 472 168 l 1,61,-1
26 320 m 1,65,-1
 -20 320 l 1,66,-1
 -20 342 l 1,67,-1
 26 342 l 1,68,-1
 26 320 l 1,65,-1
470 -28 m 1,69,-1
 -20 -28 l 1,70,-1
 -20 -6 l 1,71,-1
 470 -6 l 1,72,-1
 470 -28 l 1,69,-1
26 146 m 1,73,-1
 -20 146 l 1,74,-1
 -20 168 l 1,75,-1
 26 168 l 1,76,-1
 26 146 l 1,73,-1
EndSplineSet
EndChar

StartChar: comma
Encoding: 44 44 15
Width: 586
GlyphClass: 2
Flags: W
LayerCount: 2
Fore
SplineSet
606 668 m 1,0,-1
 -20 668 l 1,1,-1
 -20 690 l 1,2,-1
 606 690 l 1,3,-1
 606 668 l 1,0,-1
606 320 m 1,4,-1
 402 320 l 1,5,-1
 390 342 l 1,6,-1
 606 342 l 1,7,-1
 606 320 l 1,4,-1
606 494 m 1,8,-1
 -20 494 l 1,9,-1
 -20 516 l 1,10,-1
 606 516 l 1,11,-1
 606 494 l 1,8,-1
606 146 m 1,12,-1
 442 146 l 1,13,-1
 442 168 l 1,14,-1
 606 168 l 1,15,-1
 606 146 l 1,12,-1
606 -28 m 1,16,-1
 416 -28 l 1,17,-1
 422 -6 l 1,18,-1
 606 -6 l 1,19,-1
 606 -28 l 1,16,-1
48 342 m 1,20,-1
 40 320 l 1,21,-1
 -20 320 l 1,22,-1
 -20 342 l 1,23,-1
 48 342 l 1,20,-1
402 144 m 0,24,25
 402 2 402 2 336 -130 c 0,26,27
 258 -284 258 -284 132 -308 c 1,28,-1
 120 -150 l 1,29,30
 216 -126 216 -126 276 -37 c 128,-1,31
 336 52 336 52 336 172 c 0,32,33
 336 330 336 330 270 338 c 1,34,35
 312 292 312 292 312 198 c 0,36,37
 312 122 312 122 277 70 c 128,-1,38
 242 18 242 18 190 18 c 0,39,40
 128 18 128 18 94 72 c 0,41,42
 62 120 62 120 62 198 c 0,43,44
 62 430 62 430 216 430 c 0,45,46
 300 430 300 430 354 338 c 0,47,48
 402 254 402 254 402 144 c 0,24,25
26 146 m 1,49,-1
 -20 146 l 1,50,-1
 -20 168 l 1,51,-1
 24 168 l 1,52,-1
 26 146 l 1,49,-1
254 -6 m 1,53,-1
 242 -28 l 1,54,-1
 -20 -28 l 1,55,-1
 -20 -6 l 1,56,-1
 254 -6 l 1,53,-1
EndSplineSet
EndChar

StartChar: hyphen
Encoding: 45 45 16
Width: 1034
GlyphClass: 2
Flags: W
LayerCount: 2
Fore
SplineSet
1054 668 m 1,0,-1
 1000 668 l 1,1,-1
 1002 690 l 1,2,-1
 1054 690 l 1,3,-1
 1054 668 l 1,0,-1
1054 494 m 1,4,-1
 996 494 l 1,5,-1
 998 516 l 1,6,-1
 1054 516 l 1,7,-1
 1054 494 l 1,4,-1
860 668 m 1,8,-1
 -20 668 l 1,9,-1
 -20 690 l 1,10,-1
 860 690 l 1,11,-1
 860 668 l 1,8,-1
1054 320 m 1,12,-1
 388 320 l 1,13,-1
 468 342 l 1,14,-1
 1054 342 l 1,15,-1
 1054 320 l 1,12,-1
962 740 m 1,16,-1
 956 482 l 1,17,-1
 140 266 l 1,18,-1
 142 190 l 1,19,-1
 70 176 l 1,20,-1
 80 450 l 1,21,-1
 898 666 l 1,22,-1
 900 716 l 1,23,-1
 962 740 l 1,16,-1
1054 146 m 1,24,-1
 -20 146 l 1,25,-1
 -20 168 l 1,26,-1
 1054 168 l 1,27,-1
 1054 146 l 1,24,-1
294 516 m 1,28,-1
 210 494 l 1,29,-1
 -20 494 l 1,30,-1
 -20 516 l 1,31,-1
 294 516 l 1,28,-1
1054 -28 m 1,32,-1
 -20 -28 l 1,33,-1
 -20 -6 l 1,34,-1
 1054 -6 l 1,35,-1
 1054 -28 l 1,32,-1
36 320 m 1,36,-1
 -20 320 l 1,37,-1
 -20 342 l 1,38,-1
 36 342 l 1,39,-1
 36 320 l 1,36,-1
EndSplineSet
EndChar

StartChar: period
Encoding: 46 46 17
Width: 552
GlyphClass: 2
Flags: W
LayerCount: 2
Fore
SplineSet
572 668 m 1,0,-1
 -20 668 l 1,1,-1
 -20 690 l 1,2,-1
 572 690 l 1,3,-1
 572 668 l 1,0,-1
572 320 m 1,4,-1
 394 320 l 1,5,-1
 380 342 l 1,6,-1
 572 342 l 1,7,-1
 572 320 l 1,4,-1
572 494 m 1,8,-1
 -20 494 l 1,9,-1
 -20 516 l 1,10,-1
 572 516 l 1,11,-1
 572 494 l 1,8,-1
572 146 m 1,12,-1
 414 146 l 1,13,-1
 416 168 l 1,14,-1
 572 168 l 1,15,-1
 572 146 l 1,12,-1
572 -28 m 1,16,-1
 316 -28 l 1,17,-1
 358 -6 l 1,18,-1
 572 -6 l 1,19,-1
 572 -28 l 1,16,-1
376 188 m 0,20,21
 376 -32 376 -32 238 -32 c 0,22,23
 102 -32 102 -32 102 180 c 0,24,25
 102 260 102 260 140 320 c 0,26,27
 180 388 180 388 246 388 c 0,28,29
 376 388 376 388 376 188 c 0,20,21
114 342 m 1,30,-1
 100 320 l 1,31,-1
 -20 320 l 1,32,-1
 -20 342 l 1,33,-1
 114 342 l 1,30,-1
62 146 m 1,34,-1
 -20 146 l 1,35,-1
 -20 168 l 1,36,-1
 62 168 l 1,37,-1
 62 146 l 1,34,-1
164 -28 m 1,38,-1
 -20 -28 l 1,39,-1
 -20 -6 l 1,40,-1
 122 -6 l 1,41,-1
 164 -28 l 1,38,-1
EndSplineSet
EndChar

StartChar: slash
Encoding: 47 47 18
Width: 1178
GlyphClass: 2
Flags: W
LayerCount: 2
Fore
SplineSet
1198 668 m 1,0,-1
 816 668 l 1,1,-1
 828 690 l 1,2,-1
 1198 690 l 1,3,-1
 1198 668 l 1,0,-1
1196 494 m 1,4,-1
 722 494 l 1,5,-1
 734 516 l 1,6,-1
 1196 516 l 1,7,-1
 1196 494 l 1,4,-1
1198 320 m 1,8,-1
 622 320 l 1,9,-1
 642 342 l 1,10,-1
 1198 342 l 1,11,-1
 1198 320 l 1,8,-1
1254 1344 m 1,12,-1
 1132 1028 l 1,13,-1
 938 966 l 1,14,15
 820 748 820 748 536 226 c 0,16,17
 412 0 412 0 278 -226 c 0,18,19
 252 -270 252 -270 205 -297 c 128,-1,20
 158 -324 158 -324 122 -324 c 0,21,22
 78 -324 78 -324 40 -293 c 128,-1,23
 2 -262 2 -262 2 -206 c 0,24,25
 2 -156 2 -156 39 -116 c 128,-1,26
 76 -76 76 -76 126 -76 c 0,27,28
 204 -76 204 -76 204 -158 c 0,29,30
 204 -196 204 -196 168 -240 c 1,31,32
 188 -240 188 -240 220 -185 c 128,-1,33
 252 -130 252 -130 282 -78 c 0,34,35
 404 136 404 136 636 560 c 1,36,-1
 952 1160 l 1,37,-1
 1140 1222 l 1,38,-1
 1190 1344 l 1,39,-1
 1254 1344 l 1,12,-1
666 690 m 1,40,-1
 654 668 l 1,41,-1
 92 668 l 1,42,-1
 96 690 l 1,43,-1
 666 690 l 1,40,-1
1198 146 m 1,44,-1
 532 146 l 1,45,-1
 546 168 l 1,46,-1
 1198 168 l 1,47,-1
 1198 146 l 1,44,-1
1198 -28 m 1,48,-1
 432 -28 l 1,49,-1
 446 -6 l 1,50,-1
 1198 -6 l 1,51,-1
 1198 -28 l 1,48,-1
574 516 m 1,52,-1
 560 494 l 1,53,-1
 -20 494 l 1,54,-1
 -20 516 l 1,55,-1
 574 516 l 1,52,-1
96 668 m 1,56,-1
 -20 668 l 1,57,-1
 -20 690 l 1,58,-1
 96 690 l 1,59,-1
 96 668 l 1,56,-1
478 342 m 1,60,-1
 466 320 l 1,61,-1
 -20 320 l 1,62,-1
 -20 342 l 1,63,-1
 478 342 l 1,60,-1
382 168 m 1,64,-1
 368 146 l 1,65,-1
 -20 146 l 1,66,-1
 -20 168 l 1,67,-1
 382 168 l 1,64,-1
282 -6 m 1,68,-1
 270 -28 l 1,69,-1
 -20 -28 l 1,70,-1
 -20 -6 l 1,71,-1
 282 -6 l 1,68,-1
EndSplineSet
EndChar

StartChar: zero
Encoding: 48 48 19
Width: 749
GlyphClass: 2
Flags: W
LayerCount: 2
Fore
SplineSet
767 573 m 1,0,-1
 726 573 l 1,1,-1
 726 591 l 1,2,-1
 767 591 l 1,3,-1
 767 573 l 1,0,-1
767 424 m 1,4,-1
 722 424 l 1,5,-1
 724 442 l 1,6,-1
 767 442 l 1,7,-1
 767 424 l 1,4,-1
767 275 m 1,8,-1
 707 275 l 1,9,-1
 709 294 l 1,10,-1
 767 294 l 1,11,-1
 767 275 l 1,8,-1
767 125 m 1,12,-1
 676 125 l 1,13,-1
 678 144 l 1,14,-1
 767 144 l 1,15,-1
 767 125 l 1,12,-1
692 528 m 0,16,17
 692 237 692 237 607 19 c 0,18,19
 504 -240 504 -240 326 -240 c 0,20,21
 60 -240 60 -240 60 286 c 0,22,23
 60 586 60 586 153 811 c 0,24,25
 257 1061 257 1061 425 1061 c 0,26,27
 692 1061 692 1061 692 528 c 0,16,17
767 -25 m 1,28,-1
 622 -25 l 1,29,-1
 631 -6 l 1,30,-1
 767 -6 l 1,31,-1
 767 -25 l 1,28,-1
55 591 m 1,32,-1
 51 573 l 1,33,-1
 -17 573 l 1,34,-1
 -17 591 l 1,35,-1
 55 591 l 1,32,-1
34 442 m 1,36,-1
 32 424 l 1,37,-1
 -17 424 l 1,38,-1
 -17 442 l 1,39,-1
 34 442 l 1,36,-1
26 275 m 1,40,-1
 -17 275 l 1,41,-1
 -17 294 l 1,42,-1
 26 294 l 1,43,-1
 26 275 l 1,40,-1
32 125 m 1,44,-1
 -17 125 l 1,45,-1
 -17 144 l 1,46,-1
 30 144 l 1,47,-1
 32 125 l 1,44,-1
62 -25 m 1,48,-1
 -17 -25 l 1,49,-1
 -17 -6 l 1,50,-1
 57 -6 l 1,51,-1
 62 -25 l 1,48,-1
624 485 m 0,52,53
 624 654 624 654 574 762 c 0,54,55
 513 892 513 892 390 892 c 0,56,57
 273 892 273 892 197 716 c 0,58,59
 132 568 132 568 132 388 c 0,60,61
 132 -11 132 -11 351 -11 c 0,62,63
 470 -11 470 -11 552 154 c 0,64,65
 624 305 624 305 624 485 c 0,52,53
586 573 m 1,66,-1
 187 573 l 1,67,-1
 190 591 l 1,68,-1
 585 591 l 1,69,-1
 586 573 l 1,66,-1
590 442 m 1,70,-1
 586 424 l 1,71,-1
 166 424 l 1,72,-1
 168 442 l 1,73,-1
 590 442 l 1,70,-1
566 294 m 1,74,-1
 560 275 l 1,75,-1
 173 275 l 1,76,-1
 170 294 l 1,77,-1
 566 294 l 1,74,-1
511 144 m 1,78,-1
 501 125 l 1,79,-1
 206 125 l 1,80,-1
 199 144 l 1,81,-1
 511 144 l 1,78,-1
EndSplineSet
EndChar

StartChar: one
Encoding: 49 49 20
Width: 322
GlyphClass: 2
Flags: W
LayerCount: 2
Fore
SplineSet
339 573 m 1,0,-1
 297 573 l 1,1,-1
 297 591 l 1,2,-1
 339 591 l 1,3,-1
 339 573 l 1,0,-1
339 424 m 1,4,-1
 294 424 l 1,5,-1
 294 442 l 1,6,-1
 339 442 l 1,7,-1
 339 424 l 1,4,-1
162 573 m 1,8,-1
 -17 573 l 1,9,-1
 -17 591 l 1,10,-1
 162 591 l 1,11,-1
 162 573 l 1,8,-1
339 275 m 1,12,-1
 290 275 l 1,13,-1
 290 294 l 1,14,-1
 339 294 l 1,15,-1
 339 275 l 1,12,-1
275 1091 m 1,16,-1
 245 -137 l 2,17,18
 243 -204 243 -204 198.5 -252.5 c 128,-1,19
 154 -301 154 -301 91 -301 c 0,20,21
 -19 -301 -19 -301 -19 -194 c 0,22,23
 -19 -136 -19 -136 7.5 -99 c 128,-1,24
 34 -62 34 -62 82 -62 c 0,25,26
 111 -62 111 -62 132.5 -81.5 c 128,-1,27
 154 -101 154 -101 154 -129 c 0,28,29
 154 -192 154 -192 84 -219 c 1,30,31
 96 -223 96 -223 108 -223 c 0,32,33
 180 -223 180 -223 181 -127 c 2,34,-1
 204 844 l 1,35,-1
 108 777 l 1,36,-1
 108 722 l 1,37,-1
 51 682 l 1,38,-1
 57 933 l 1,39,-1
 275 1091 l 1,16,-1
161 424 m 1,40,-1
 -17 424 l 1,41,-1
 -17 442 l 1,42,-1
 161 442 l 1,43,-1
 161 424 l 1,40,-1
339 125 m 1,44,-1
 286 125 l 1,45,-1
 286 144 l 1,46,-1
 339 144 l 1,47,-1
 339 125 l 1,44,-1
158 275 m 1,48,-1
 -17 275 l 1,49,-1
 -17 294 l 1,50,-1
 158 294 l 1,51,-1
 158 275 l 1,48,-1
339 -25 m 1,52,-1
 282 -25 l 1,53,-1
 282 -6 l 1,54,-1
 339 -6 l 1,55,-1
 339 -25 l 1,52,-1
154 125 m 1,56,-1
 -17 125 l 1,57,-1
 -17 144 l 1,58,-1
 154 144 l 1,59,-1
 154 125 l 1,56,-1
151 -25 m 1,60,-1
 -17 -25 l 1,61,-1
 -17 -6 l 1,62,-1
 151 -6 l 1,63,-1
 151 -25 l 1,60,-1
EndSplineSet
EndChar

StartChar: two
Encoding: 50 50 21
Width: 610
GlyphClass: 2
Flags: W
LayerCount: 2
Fore
SplineSet
627 573 m 1,0,-1
 520 573 l 1,1,-1
 532 591 l 1,2,-1
 627 591 l 1,3,-1
 627 573 l 1,0,-1
627 424 m 1,4,-1
 406 424 l 1,5,-1
 422 442 l 1,6,-1
 627 442 l 1,7,-1
 627 424 l 1,4,-1
371 591 m 1,8,-1
 362 573 l 1,9,-1
 332 573 l 1,10,-1
 339 591 l 1,11,-1
 371 591 l 1,8,-1
627 125 m 1,12,-1
 583 125 l 1,13,-1
 585 144 l 1,14,-1
 627 144 l 1,15,-1
 627 125 l 1,12,-1
627 275 m 1,16,-1
 269 275 l 1,17,-1
 286 294 l 1,18,-1
 627 294 l 1,19,-1
 627 275 l 1,16,-1
566 797 m 0,20,21
 566 636 566 636 370 422 c 0,22,23
 214 250 214 250 183 202 c 0,24,25
 108 85 108 85 113 -65 c 1,26,-1
 496 122 l 1,27,-1
 504 192 l 1,28,-1
 557 223 l 1,29,-1
 530 -57 l 1,30,-1
 15 -320 l 1,31,32
 34 26 34 26 94 164 c 0,33,34
 134 257 134 257 213 352 c 0,35,36
 284 436 284 436 358 520 c 0,37,38
 449 627 449 627 449 739 c 0,39,40
 449 809 449 809 410 856 c 128,-1,41
 371 903 371 903 313 903 c 0,42,43
 226 903 226 903 173 836 c 128,-1,44
 120 769 120 769 120 669 c 0,45,46
 120 635 120 635 125 610 c 1,47,48
 122 671 122 671 147.5 713.5 c 128,-1,49
 173 756 173 756 223 756 c 0,50,51
 313 756 313 756 313 644 c 0,52,53
 313 590 313 590 282 543 c 0,54,55
 248 492 248 492 200 492 c 0,56,57
 147 492 147 492 111 533 c 0,58,59
 65 583 65 583 65 678 c 0,60,61
 65 825 65 825 125 928 c 0,62,63
 197 1046 197 1046 324 1046 c 0,64,65
 430 1046 430 1046 497 984 c 0,66,67
 566 917 566 917 566 797 c 0,20,21
51 573 m 1,68,-1
 -17 573 l 1,69,-1
 -17 591 l 1,70,-1
 43 591 l 1,71,-1
 51 573 l 1,68,-1
627 -25 m 1,72,-1
 568 -25 l 1,73,-1
 569 -6 l 1,74,-1
 627 -6 l 1,75,-1
 627 -25 l 1,72,-1
256 442 m 1,76,-1
 240 424 l 1,77,-1
 -17 424 l 1,78,-1
 -17 442 l 1,79,-1
 256 442 l 1,76,-1
463 125 m 1,80,-1
 177 125 l 1,81,-1
 185 144 l 1,82,-1
 463 144 l 1,83,-1
 463 125 l 1,80,-1
134 294 m 1,84,-1
 118 275 l 1,85,-1
 -17 275 l 1,86,-1
 -17 294 l 1,87,-1
 134 294 l 1,84,-1
202 -6 m 1,88,-1
 162 -25 l 1,89,-1
 147 -25 l 1,90,-1
 149 -6 l 1,91,-1
 202 -6 l 1,88,-1
51 144 m 1,92,-1
 46 125 l 1,93,-1
 -17 125 l 1,94,-1
 -17 144 l 1,95,-1
 51 144 l 1,92,-1
15 -6 m 1,96,-1
 11 -25 l 1,97,-1
 -17 -25 l 1,98,-1
 -17 -6 l 1,99,-1
 15 -6 l 1,96,-1
EndSplineSet
EndChar

StartChar: three
Encoding: 51 51 22
Width: 693
GlyphClass: 2
Flags: W
LayerCount: 2
Fore
SplineSet
711 573 m 1,0,-1
 593 573 l 1,1,-1
 571 591 l 1,2,-1
 711 591 l 1,3,-1
 711 573 l 1,0,-1
711 424 m 1,4,-1
 661 424 l 1,5,-1
 658 442 l 1,6,-1
 711 442 l 1,7,-1
 711 424 l 1,4,-1
711 275 m 1,8,-1
 648 275 l 1,9,-1
 652 294 l 1,10,-1
 711 294 l 1,11,-1
 711 275 l 1,8,-1
314 591 m 1,12,-1
 295 573 l 1,13,-1
 254 573 l 1,14,-1
 278 591 l 1,15,-1
 314 591 l 1,12,-1
505 424 m 1,16,-1
 315 424 l 1,17,-1
 351 442 l 1,18,-1
 494 442 l 1,19,-1
 505 424 l 1,16,-1
711 125 m 1,20,-1
 579 125 l 1,21,-1
 591 144 l 1,22,-1
 711 144 l 1,23,-1
 711 125 l 1,20,-1
91 573 m 1,24,-1
 -17 573 l 1,25,-1
 -17 591 l 1,26,-1
 68 591 l 1,27,-1
 91 573 l 1,24,-1
477 294 m 1,28,-1
 466 275 l 1,29,-1
 183 275 l 1,30,-1
 190 294 l 1,31,-1
 477 294 l 1,28,-1
711 -25 m 1,32,-1
 460 -25 l 1,33,-1
 478 -6 l 1,34,-1
 711 -6 l 1,35,-1
 711 -25 l 1,32,-1
629 386 m 0,36,37
 629 281 629 281 566.5 163.5 c 128,-1,38
 504 46 504 46 400 -48 c 0,39,40
 254 -179 254 -179 63 -261 c 0,41,42
 -132 -343 -132 -343 -298 -343 c 0,43,44
 -335 -343 -335 -343 -371 -337 c 0,45,46
 -381 -333 -381 -333 -370 -320 c 1,47,48
 -200 -280 -200 -280 -23 -190.5 c 128,-1,49
 154 -101 154 -101 252 -11 c 0,50,51
 373 99 373 99 454 206 c 0,52,53
 545 326 545 326 545 396 c 0,54,55
 545 430 545 430 514.5 455 c 128,-1,56
 484 480 484 480 446 480 c 0,57,58
 362 480 362 480 268.5 415.5 c 128,-1,59
 175 351 175 351 149 278 c 1,60,-1
 122 436 l 1,61,62
 276 524 276 524 316 560 c 0,63,64
 409 642 409 642 409 750 c 0,65,66
 409 816 409 816 369.5 857.5 c 128,-1,67
 330 899 330 899 271 899 c 0,68,69
 199 899 199 899 148.5 855 c 128,-1,70
 98 811 98 811 98 737 c 0,71,72
 98 705 98 705 111 686 c 1,73,74
 99 821 99 821 199 821 c 0,75,76
 284 821 284 821 284 718 c 0,77,78
 284 657 284 657 257 612 c 0,79,80
 226 560 226 560 177 560 c 0,81,82
 122 560 122 560 88.5 607 c 128,-1,83
 55 654 55 654 55 729 c 0,84,85
 55 859 55 859 117 945 c 0,86,87
 187 1042 187 1042 320 1042 c 0,88,89
 411 1042 411 1042 468.5 978 c 128,-1,90
 526 914 526 914 526 804 c 0,91,92
 526 680 526 680 441 612 c 1,93,94
 453 614 453 614 465 614 c 0,95,96
 532 614 532 614 580.5 549 c 128,-1,97
 629 484 629 484 629 386 c 0,36,37
103 442 m 1,98,-1
 89 424 l 1,99,-1
 -17 424 l 1,100,-1
 -17 442 l 1,101,-1
 103 442 l 1,98,-1
118 275 m 1,102,-1
 -17 275 l 1,103,-1
 -17 294 l 1,104,-1
 113 294 l 1,105,-1
 118 275 l 1,102,-1
370 144 m 1,106,-1
 352 125 l 1,107,-1
 -17 125 l 1,108,-1
 -17 144 l 1,109,-1
 370 144 l 1,106,-1
226 -6 m 1,110,-1
 206 -25 l 1,111,-1
 -17 -25 l 1,112,-1
 -17 -6 l 1,113,-1
 226 -6 l 1,110,-1
711 275 m 1,114,-1
 711 294 l 1,115,-1
 652 294 l 1,116,-1
 648 275 l 1,117,-1
 711 275 l 1,114,-1
118 275 m 1,118,-1
 113 294 l 1,119,-1
 -17 294 l 1,120,-1
 -17 275 l 1,121,-1
 118 275 l 1,118,-1
EndSplineSet
EndChar

StartChar: four
Encoding: 52 52 23
Width: 695
GlyphClass: 2
Flags: W
LayerCount: 2
Fore
SplineSet
712 573 m 1,0,-1
 550 573 l 1,1,-1
 552 591 l 1,2,-1
 712 591 l 1,3,-1
 712 573 l 1,0,-1
712 424 m 1,4,-1
 697 424 l 1,5,-1
 699 442 l 1,6,-1
 712 442 l 1,7,-1
 712 424 l 1,4,-1
588 442 m 1,8,-1
 573 424 l 1,9,-1
 541 424 l 1,10,-1
 543 442 l 1,11,-1
 588 442 l 1,8,-1
712 275 m 1,12,-1
 693 275 l 1,13,-1
 693 294 l 1,14,-1
 712 294 l 1,15,-1
 712 275 l 1,12,-1
712 125 m 1,16,-1
 530 125 l 1,17,-1
 530 144 l 1,18,-1
 712 144 l 1,19,-1
 712 125 l 1,16,-1
231 591 m 1,20,-1
 225 573 l 1,21,-1
 -17 573 l 1,22,-1
 -17 591 l 1,23,-1
 231 591 l 1,20,-1
665 471 m 1,24,-1
 657 240 l 1,25,-1
 497 162 l 1,26,-1
 475 -275 l 2,27,28
 473 -322 473 -322 439 -356 c 128,-1,29
 405 -390 405 -390 356 -390 c 256,30,31
 307 -390 307 -390 268.5 -351.5 c 128,-1,32
 230 -313 230 -313 230 -257 c 0,33,34
 230 -209 230 -209 254 -172.5 c 128,-1,35
 278 -136 278 -136 316 -136 c 0,36,37
 392 -136 392 -136 392 -221 c 0,38,39
 392 -290 392 -290 318 -313 c 1,40,41
 335 -326 335 -326 356 -326 c 0,42,43
 409 -326 409 -326 413 -269 c 2,44,-1
 434 135 l 1,45,-1
 -40 -103 l 1,46,-1
 441 987 l 1,47,-1
 543 1055 l 1,48,-1
 503 337 l 1,49,-1
 607 389 l 1,50,-1
 607 434 l 1,51,-1
 665 471 l 1,24,-1
712 -25 m 1,52,-1
 522 -25 l 1,53,-1
 522 -6 l 1,54,-1
 712 -6 l 1,55,-1
 712 -25 l 1,52,-1
166 442 m 1,56,-1
 158 424 l 1,57,-1
 -17 424 l 1,58,-1
 -17 442 l 1,59,-1
 166 442 l 1,56,-1
101 294 m 1,60,-1
 93 275 l 1,61,-1
 -17 275 l 1,62,-1
 -17 294 l 1,63,-1
 101 294 l 1,60,-1
392 -25 m 1,64,-1
 151 -25 l 1,65,-1
 189 -6 l 1,66,-1
 392 -6 l 1,67,-1
 392 -25 l 1,64,-1
34 144 m 1,68,-1
 26 125 l 1,69,-1
 -17 125 l 1,70,-1
 -17 144 l 1,71,-1
 34 144 l 1,68,-1
458 665 m 1,72,-1
 158 168 l 1,73,-1
 442 305 l 1,74,-1
 458 665 l 1,72,-1
413 424 m 1,75,-1
 347 424 l 1,76,-1
 358 442 l 1,77,-1
 413 442 l 1,78,-1
 413 424 l 1,75,-1
383 294 m 1,79,-1
 345 275 l 1,80,-1
 256 275 l 1,81,-1
 267 294 l 1,82,-1
 383 294 l 1,79,-1
EndSplineSet
EndChar

StartChar: five
Encoding: 53 53 24
Width: 588
GlyphClass: 2
Flags: W
LayerCount: 2
Fore
SplineSet
605 573 m 1,0,-1
 528 573 l 1,1,-1
 511 591 l 1,2,-1
 605 591 l 1,3,-1
 605 573 l 1,0,-1
605 424 m 1,4,-1
 588 424 l 1,5,-1
 585 442 l 1,6,-1
 605 442 l 1,7,-1
 605 424 l 1,4,-1
417 424 m 1,8,-1
 218 424 l 1,9,-1
 243 442 l 1,10,-1
 394 442 l 1,11,-1
 417 424 l 1,8,-1
605 125 m 1,12,-1
 581 125 l 1,13,-1
 586 144 l 1,14,-1
 605 144 l 1,15,-1
 605 125 l 1,12,-1
571 1065 m 1,16,-1
 545 811 l 1,17,-1
 141 633 l 1,18,-1
 130 487 l 1,19,20
 153 547 153 547 214 591.5 c 128,-1,21
 275 636 275 636 349 636 c 0,22,23
 562 636 562 636 562 301 c 0,24,25
 562 45 562 45 459 -126 c 128,-1,26
 356 -297 356 -297 206 -297 c 0,27,28
 113 -297 113 -297 54.5 -234.5 c 128,-1,29
 -4 -172 -4 -172 -4 -51 c 0,30,31
 -4 51 -4 51 35 116 c 128,-1,32
 74 181 74 181 139 181 c 0,33,34
 235 181 235 181 235 70 c 0,35,36
 235 23 235 23 209 -14 c 128,-1,37
 183 -51 183 -51 141 -51 c 0,38,39
 108 -51 108 -51 87 -22.5 c 128,-1,40
 66 6 66 6 70 40 c 1,41,42
 55 17 55 17 55 -19 c 0,43,44
 55 -84 55 -84 103 -118 c 0,45,46
 144 -147 144 -147 207 -147 c 0,47,48
 322 -147 322 -147 413.5 -27 c 128,-1,49
 505 93 505 93 505 265 c 0,50,51
 505 352 505 352 463 409 c 0,52,53
 413 473 413 473 332 473 c 0,54,55
 120 473 120 473 125 254 c 1,56,-1
 59 288 l 1,57,-1
 99 806 l 1,58,-1
 509 983 l 1,59,-1
 514 1037 l 1,60,-1
 571 1065 l 1,16,-1
471 275 m 1,61,-1
 160 275 l 1,62,-1
 160 294 l 1,63,-1
 471 294 l 1,64,-1
 471 275 l 1,61,-1
47 591 m 1,65,-1
 46 573 l 1,66,-1
 -17 573 l 1,67,-1
 -17 591 l 1,68,-1
 47 591 l 1,65,-1
605 -25 m 1,69,-1
 543 -25 l 1,70,-1
 550 -6 l 1,71,-1
 605 -6 l 1,72,-1
 605 -25 l 1,69,-1
458 144 m 1,73,-1
 454 125 l 1,74,-1
 259 125 l 1,75,-1
 248 144 l 1,76,-1
 458 144 l 1,73,-1
36 424 m 1,77,-1
 -17 424 l 1,78,-1
 -17 442 l 1,79,-1
 36 442 l 1,80,-1
 36 424 l 1,77,-1
394 -6 m 1,81,-1
 383 -25 l 1,82,-1
 237 -25 l 1,83,-1
 250 -6 l 1,84,-1
 394 -6 l 1,81,-1
49 275 m 1,85,-1
 -17 275 l 1,86,-1
 -17 294 l 1,87,-1
 25 294 l 1,88,-1
 49 275 l 1,85,-1
21 144 m 1,89,-1
 6 125 l 1,90,-1
 -17 125 l 1,91,-1
 -17 144 l 1,92,-1
 21 144 l 1,89,-1
EndSplineSet
EndChar

StartChar: six
Encoding: 54 54 25
Width: 658
GlyphClass: 2
Flags: W
LayerCount: 2
Fore
SplineSet
676 573 m 1,0,-1
 537 573 l 1,1,-1
 499 591 l 1,2,-1
 676 591 l 1,3,-1
 676 573 l 1,0,-1
676 424 m 1,4,-1
 638 424 l 1,5,-1
 631 442 l 1,6,-1
 676 442 l 1,7,-1
 676 424 l 1,4,-1
676 275 m 1,8,-1
 663 275 l 1,9,-1
 661 294 l 1,10,-1
 676 294 l 1,11,-1
 676 275 l 1,8,-1
271 591 m 1,12,-1
 237 573 l 1,13,-1
 180 573 l 1,14,-1
 187 591 l 1,15,-1
 271 591 l 1,12,-1
470 424 m 1,16,-1
 276 424 l 1,17,-1
 303 442 l 1,18,-1
 441 442 l 1,19,-1
 470 424 l 1,16,-1
676 125 m 1,20,-1
 663 125 l 1,21,-1
 665 144 l 1,22,-1
 676 144 l 1,23,-1
 676 125 l 1,20,-1
532 275 m 1,24,-1
 360 275 l 1,25,-1
 360 294 l 1,26,-1
 530 294 l 1,27,-1
 532 275 l 1,24,-1
633 197 m 0,28,29
 633 17 633 17 556 -112 c 0,30,31
 468 -259 468 -259 316 -259 c 0,32,33
 32 -259 32 -259 32 275 c 0,34,35
 32 579 32 579 171.5 807.5 c 128,-1,36
 311 1036 311 1036 492 1036 c 0,37,38
 535 1036 535 1036 588 1014 c 1,39,-1
 583 799 l 2,40,41
 583 768 583 768 563 748 c 128,-1,42
 543 728 543 728 516 728 c 0,43,44
 487 728 487 728 465.5 748 c 128,-1,45
 444 768 444 768 444 797 c 0,46,47
 444 856 444 856 494 856 c 0,48,49
 528 856 528 856 528 818 c 0,50,51
 528 801 528 801 504 780 c 1,52,53
 545 780 545 780 545 821 c 0,54,55
 545 890 545 890 466 890 c 0,56,57
 301 890 301 890 202.5 711 c 128,-1,58
 104 532 104 532 104 250 c 0,59,60
 104 110 104 110 162 19 c 0,61,62
 230 -86 230 -86 354 -86 c 0,63,64
 468 -86 468 -86 522 9 c 0,65,66
 569 89 569 89 569 218 c 0,67,68
 569 468 569 468 368 468 c 0,69,70
 281 468 281 468 228 411 c 128,-1,71
 175 354 175 354 175 279 c 0,72,73
 175 218 175 218 213 200 c 1,74,75
 192 245 192 245 192 264 c 0,76,77
 192 298 192 298 213.5 324.5 c 128,-1,78
 235 351 235 351 262 351 c 0,79,80
 326 351 326 351 326 271 c 0,81,82
 326 214 326 214 294 177.5 c 128,-1,83
 262 141 262 141 225 141 c 0,84,85
 134 141 134 141 134 290 c 0,86,87
 134 408 134 408 205 507.5 c 128,-1,88
 276 607 276 607 379 607 c 0,89,90
 633 607 633 607 633 197 c 0,28,29
676 -25 m 1,91,-1
 631 -25 l 1,92,-1
 636 -6 l 1,93,-1
 676 -6 l 1,94,-1
 676 -25 l 1,91,-1
43 591 m 1,95,-1
 38 573 l 1,96,-1
 -17 573 l 1,97,-1
 -17 591 l 1,98,-1
 43 591 l 1,95,-1
530 144 m 1,99,-1
 528 125 l 1,100,-1
 153 125 l 1,101,-1
 149 144 l 1,102,-1
 530 144 l 1,99,-1
9 442 m 1,103,-1
 9 424 l 1,104,-1
 -17 424 l 1,105,-1
 -17 442 l 1,106,-1
 9 442 l 1,103,-1
480 -6 m 1,107,-1
 465 -25 l 1,108,-1
 231 -25 l 1,109,-1
 214 -6 l 1,110,-1
 480 -6 l 1,107,-1
0 275 m 1,111,-1
 -17 275 l 1,112,-1
 -17 294 l 1,113,-1
 -2 294 l 1,114,-1
 0 275 l 1,111,-1
6 125 m 1,115,-1
 -17 125 l 1,116,-1
 -17 144 l 1,117,-1
 4 144 l 1,118,-1
 6 125 l 1,115,-1
28 -25 m 1,119,-1
 -17 -25 l 1,120,-1
 -17 -6 l 1,121,-1
 26 -6 l 1,122,-1
 28 -25 l 1,119,-1
EndSplineSet
EndChar

StartChar: seven
Encoding: 55 55 26
Width: 522
GlyphClass: 2
Flags: W
LayerCount: 2
Fore
SplineSet
540 573 m 1,0,-1
 496 573 l 1,1,-1
 499 591 l 1,2,-1
 540 591 l 1,3,-1
 540 573 l 1,0,-1
540 424 m 1,4,-1
 471 424 l 1,5,-1
 475 442 l 1,6,-1
 540 442 l 1,7,-1
 540 424 l 1,4,-1
368 591 m 1,8,-1
 364 573 l 1,9,-1
 118 573 l 1,10,-1
 118 591 l 1,11,-1
 368 591 l 1,8,-1
540 275 m 1,12,-1
 447 275 l 1,13,-1
 451 294 l 1,14,-1
 540 294 l 1,15,-1
 540 275 l 1,12,-1
566 1105 m 1,16,17
 497 859 497 859 351 -143 c 1,18,19
 337 -211 337 -211 290 -253 c 128,-1,20
 243 -295 243 -295 189 -295 c 0,21,22
 134 -295 134 -295 98.5 -260.5 c 128,-1,23
 63 -226 63 -226 63 -164 c 0,24,25
 63 -118 63 -118 92.5 -82 c 128,-1,26
 122 -46 122 -46 164 -46 c 0,27,28
 238 -46 238 -46 238 -124 c 0,29,30
 238 -196 238 -196 168 -223 c 1,31,32
 181 -228 181 -228 196 -228 c 0,33,34
 261 -228 261 -228 276 -143 c 2,35,-1
 446 852 l 1,36,-1
 87 642 l 1,37,-1
 84 564 l 1,38,-1
 28 530 l 1,39,-1
 40 807 l 1,40,-1
 566 1105 l 1,16,17
540 125 m 1,41,-1
 424 125 l 1,42,-1
 427 144 l 1,43,-1
 540 144 l 1,44,-1
 540 125 l 1,41,-1
341 442 m 1,45,-1
 339 424 l 1,46,-1
 -17 424 l 1,47,-1
 -17 442 l 1,48,-1
 341 442 l 1,45,-1
-4 573 m 1,49,-1
 -17 573 l 1,50,-1
 -17 591 l 1,51,-1
 -4 591 l 1,52,-1
 -4 573 l 1,49,-1
540 -25 m 1,53,-1
 368 -25 l 1,54,-1
 370 -6 l 1,55,-1
 540 -6 l 1,56,-1
 540 -25 l 1,53,-1
315 294 m 1,57,-1
 313 275 l 1,58,-1
 -17 275 l 1,59,-1
 -17 294 l 1,60,-1
 315 294 l 1,57,-1
292 144 m 1,61,-1
 288 125 l 1,62,-1
 -17 125 l 1,63,-1
 -17 144 l 1,64,-1
 292 144 l 1,61,-1
265 -6 m 1,65,-1
 262 -25 l 1,66,-1
 -17 -25 l 1,67,-1
 -17 -6 l 1,68,-1
 265 -6 l 1,65,-1
EndSplineSet
EndChar

StartChar: eight
Encoding: 56 56 27
Width: 624
GlyphClass: 2
Flags: W
LayerCount: 2
Fore
SplineSet
641 573 m 1,0,-1
 430 573 l 1,1,-1
 442 591 l 1,2,-1
 641 591 l 1,3,-1
 641 573 l 1,0,-1
641 424 m 1,4,-1
 465 424 l 1,5,-1
 449 442 l 1,6,-1
 641 442 l 1,7,-1
 641 424 l 1,4,-1
641 275 m 1,8,-1
 557 275 l 1,9,-1
 549 294 l 1,10,-1
 641 294 l 1,11,-1
 641 275 l 1,8,-1
724 936 m 0,12,13
 724 865 724 865 699 791.5 c 128,-1,14
 674 718 674 718 644 709 c 1,15,-1
 642 712 l 1,16,17
 655 733 655 733 655 790 c 0,18,19
 655 912 655 912 629 985 c 1,20,-1
 360 507 l 1,21,22
 477 371 477 371 516 290 c 0,23,24
 568 180 568 180 568 21 c 0,25,26
 568 -95 568 -95 470 -198 c 0,27,28
 364 -309 364 -309 219 -309 c 0,29,30
 132 -309 132 -309 68 -259 c 0,31,32
 -4 -204 -4 -204 -4 -110 c 0,33,34
 -4 27 -4 27 103 219 c 0,35,36
 190 368 190 368 278 514 c 1,37,38
 187 614 187 614 151 686 c 0,39,40
 110 765 110 765 110 856 c 0,41,42
 110 974 110 974 180 1042 c 0,43,44
 245 1106 245 1106 347 1106 c 0,45,46
 503 1106 503 1106 514 914 c 1,47,48
 545 993 545 993 703 1262 c 1,49,-1
 720 1271 l 1,50,51
 705 1159 705 1159 705 1147 c 0,52,53
 705 1106 705 1106 714.5 1041 c 128,-1,54
 724 976 724 976 724 936 c 0,12,13
641 125 m 1,55,-1
 597 125 l 1,56,-1
 593 144 l 1,57,-1
 641 144 l 1,58,-1
 641 125 l 1,55,-1
192 573 m 1,59,-1
 -17 573 l 1,60,-1
 -17 591 l 1,61,-1
 179 591 l 1,62,-1
 192 573 l 1,59,-1
641 -25 m 1,63,-1
 597 -25 l 1,64,-1
 600 -6 l 1,65,-1
 641 -6 l 1,66,-1
 641 -25 l 1,63,-1
202 442 m 1,67,-1
 190 424 l 1,68,-1
 -17 424 l 1,69,-1
 -17 442 l 1,70,-1
 202 442 l 1,67,-1
110 294 m 1,71,-1
 99 275 l 1,72,-1
 -15 275 l 1,73,-1
 -15 294 l 1,74,-1
 110 294 l 1,71,-1
30 144 m 1,75,-1
 21 125 l 1,76,-1
 -17 125 l 1,77,-1
 -17 144 l 1,78,-1
 30 144 l 1,75,-1
641 573 m 1,79,-1
 641 591 l 1,80,-1
 442 591 l 1,81,-1
 430 573 l 1,82,-1
 641 573 l 1,79,-1
470 847 m 1,83,84
 437 938 437 938 351 938 c 0,85,86
 284 938 284 938 245 895 c 128,-1,87
 206 852 206 852 206 784 c 0,88,89
 206 676 206 676 315 559 c 1,90,91
 335 631 335 631 470 847 c 1,83,84
456 98 m 0,92,93
 456 189 456 189 420.5 295.5 c 128,-1,94
 385 402 385 402 328 463 c 1,95,96
 301 425 301 425 202 250 c 0,97,98
 170 192 170 192 135 135 c 1,99,100
 103 68 103 68 103 15 c 0,101,102
 103 -61 103 -61 149 -100 c 0,103,104
 190 -137 190 -137 257 -137 c 0,105,106
 341 -137 341 -137 396 -78 c 0,107,108
 456 -10 456 -10 456 98 c 0,92,93
392 275 m 1,109,-1
 248 275 l 1,110,-1
 261 294 l 1,111,-1
 388 294 l 1,112,-1
 392 275 l 1,109,-1
420 125 m 1,113,-1
 164 125 l 1,114,-1
 175 144 l 1,115,-1
 419 144 l 1,116,-1
 420 125 l 1,113,-1
405 -6 m 1,117,-1
 396 -25 l 1,118,-1
 141 -25 l 1,119,-1
 137 -6 l 1,120,-1
 405 -6 l 1,117,-1
EndSplineSet
EndChar

StartChar: nine
Encoding: 57 57 28
Width: 697
GlyphClass: 2
Flags: W
LayerCount: 2
Fore
SplineSet
714 573 m 1,0,-1
 678 573 l 1,1,-1
 676 591 l 1,2,-1
 714 591 l 1,3,-1
 714 573 l 1,0,-1
714 424 m 1,4,-1
 663 424 l 1,5,-1
 667 442 l 1,6,-1
 714 442 l 1,7,-1
 714 424 l 1,4,-1
714 275 m 1,8,-1
 627 275 l 1,9,-1
 633 294 l 1,10,-1
 714 294 l 1,11,-1
 714 275 l 1,8,-1
335 591 m 1,12,-1
 326 573 l 1,13,-1
 170 573 l 1,14,-1
 166 591 l 1,15,-1
 335 591 l 1,12,-1
714 125 m 1,16,-1
 562 125 l 1,17,-1
 573 144 l 1,18,-1
 714 144 l 1,19,-1
 714 125 l 1,16,-1
439 442 m 1,20,-1
 425 424 l 1,21,-1
 259 424 l 1,22,-1
 235 442 l 1,23,-1
 439 442 l 1,20,-1
644 621 m 0,24,25
 644 -108 644 -108 -106 -343 c 1,26,27
 -129 -343 -129 -343 -127 -320 c 1,28,29
 160 -160 160 -160 337 46 c 0,30,31
 566 309 566 309 566 595 c 0,32,33
 566 743 566 743 511 826 c 128,-1,34
 456 909 456 909 360 909 c 0,35,36
 250 909 250 909 189 834.5 c 128,-1,37
 128 760 128 760 128 650 c 0,38,39
 128 388 128 388 356 388 c 0,40,41
 409 388 409 388 448.5 417 c 128,-1,42
 488 446 488 446 485 497 c 1,43,44
 468 441 468 441 420 441 c 0,45,46
 389 441 389 441 369 464.5 c 128,-1,47
 349 488 349 488 349 522 c 0,48,49
 349 566 349 566 373.5 594 c 128,-1,50
 398 622 398 622 437 622 c 0,51,52
 480 622 480 622 505 587 c 128,-1,53
 530 552 530 552 530 505 c 0,54,55
 530 396 530 396 464 313 c 128,-1,56
 398 230 398 230 307 230 c 0,57,58
 183 230 183 230 118 360 c 0,59,60
 65 468 65 468 65 624 c 256,61,62
 65 780 65 780 142 907 c 0,63,64
 226 1050 226 1050 356 1050 c 0,65,66
 478 1050 478 1050 560 936 c 0,67,68
 644 816 644 816 644 621 c 0,24,25
32 573 m 1,69,-1
 -17 573 l 1,70,-1
 -17 591 l 1,71,-1
 30 591 l 1,72,-1
 32 573 l 1,69,-1
714 -25 m 1,73,-1
 456 -25 l 1,74,-1
 473 -6 l 1,75,-1
 714 -6 l 1,76,-1
 714 -25 l 1,73,-1
60 424 m 1,77,-1
 -17 424 l 1,78,-1
 -17 442 l 1,79,-1
 53 442 l 1,80,-1
 60 424 l 1,77,-1
149 275 m 1,81,-1
 -17 275 l 1,82,-1
 -17 294 l 1,83,-1
 128 294 l 1,84,-1
 149 275 l 1,81,-1
381 144 m 1,85,-1
 368 125 l 1,86,-1
 -17 125 l 1,87,-1
 -17 144 l 1,88,-1
 381 144 l 1,85,-1
257 -6 m 1,89,-1
 238 -25 l 1,90,-1
 -17 -25 l 1,91,-1
 -17 -6 l 1,92,-1
 257 -6 l 1,89,-1
EndSplineSet
EndChar

StartChar: colon
Encoding: 58 58 29
Width: 550
GlyphClass: 2
Flags: W
LayerCount: 2
Fore
SplineSet
572 668 m 1,0,-1
 394 668 l 1,1,-1
 394 690 l 1,2,-1
 572 690 l 1,3,-1
 572 668 l 1,0,-1
572 494 m 1,4,-1
 374 494 l 1,5,-1
 390 516 l 1,6,-1
 572 516 l 1,7,-1
 572 494 l 1,4,-1
376 672 m 0,8,9
 376 452 376 452 238 452 c 0,10,11
 102 452 102 452 102 664 c 0,12,13
 102 744 102 744 140 804 c 0,14,15
 180 872 180 872 246 872 c 0,16,17
 376 872 376 872 376 672 c 0,8,9
572 320 m 1,18,-1
 394 320 l 1,19,-1
 380 342 l 1,20,-1
 572 342 l 1,21,-1
 572 320 l 1,18,-1
36 668 m 1,22,-1
 -20 668 l 1,23,-1
 -20 690 l 1,24,-1
 36 690 l 1,25,-1
 36 668 l 1,22,-1
572 146 m 1,26,-1
 414 146 l 1,27,-1
 416 168 l 1,28,-1
 572 168 l 1,29,-1
 572 146 l 1,26,-1
108 494 m 1,30,-1
 -20 494 l 1,31,-1
 -20 516 l 1,32,-1
 92 516 l 1,33,-1
 108 494 l 1,30,-1
572 -28 m 1,34,-1
 316 -28 l 1,35,-1
 358 -6 l 1,36,-1
 572 -6 l 1,37,-1
 572 -28 l 1,34,-1
376 192 m 0,38,39
 376 -28 376 -28 238 -28 c 0,40,41
 102 -28 102 -28 102 184 c 0,42,43
 102 264 102 264 140 324 c 0,44,45
 180 392 180 392 246 392 c 0,46,47
 376 392 376 392 376 192 c 0,38,39
114 342 m 1,48,-1
 100 320 l 1,49,-1
 -20 320 l 1,50,-1
 -20 342 l 1,51,-1
 114 342 l 1,48,-1
62 146 m 1,52,-1
 -20 146 l 1,53,-1
 -20 168 l 1,54,-1
 62 168 l 1,55,-1
 62 146 l 1,52,-1
164 -28 m 1,56,-1
 -20 -28 l 1,57,-1
 -20 -6 l 1,58,-1
 122 -6 l 1,59,-1
 164 -28 l 1,56,-1
EndSplineSet
EndChar

StartChar: semicolon
Encoding: 59 59 30
Width: 588
GlyphClass: 2
Flags: W
LayerCount: 2
Fore
SplineSet
608 668 m 1,0,-1
 394 668 l 1,1,-1
 394 690 l 1,2,-1
 608 690 l 1,3,-1
 608 668 l 1,0,-1
608 494 m 1,4,-1
 328 494 l 1,5,-1
 348 516 l 1,6,-1
 608 516 l 1,7,-1
 608 494 l 1,4,-1
352 696 m 0,8,9
 352 476 352 476 214 476 c 0,10,11
 78 476 78 476 78 688 c 0,12,13
 78 768 78 768 116 828 c 0,14,15
 156 896 156 896 222 896 c 0,16,17
 352 896 352 896 352 696 c 0,8,9
608 320 m 1,18,-1
 402 320 l 1,19,-1
 390 342 l 1,20,-1
 608 342 l 1,21,-1
 608 320 l 1,18,-1
36 668 m 1,22,-1
 -20 668 l 1,23,-1
 -20 690 l 1,24,-1
 36 690 l 1,25,-1
 36 668 l 1,22,-1
608 146 m 1,26,-1
 442 146 l 1,27,-1
 442 168 l 1,28,-1
 608 168 l 1,29,-1
 608 146 l 1,26,-1
106 494 m 1,30,-1
 -20 494 l 1,31,-1
 -20 516 l 1,32,-1
 84 516 l 1,33,-1
 106 494 l 1,30,-1
608 -28 m 1,34,-1
 416 -28 l 1,35,-1
 422 -6 l 1,36,-1
 608 -6 l 1,37,-1
 608 -28 l 1,34,-1
48 342 m 1,38,-1
 40 320 l 1,39,-1
 -20 320 l 1,40,-1
 -20 342 l 1,41,-1
 48 342 l 1,38,-1
402 144 m 0,42,43
 402 2 402 2 336 -130 c 0,44,45
 258 -284 258 -284 132 -308 c 1,46,-1
 120 -150 l 1,47,48
 216 -126 216 -126 276 -37 c 128,-1,49
 336 52 336 52 336 172 c 0,50,51
 336 330 336 330 270 338 c 1,52,53
 312 292 312 292 312 198 c 0,54,55
 312 122 312 122 277 70 c 128,-1,56
 242 18 242 18 190 18 c 0,57,58
 128 18 128 18 94 72 c 0,59,60
 62 120 62 120 62 198 c 0,61,62
 62 430 62 430 216 430 c 0,63,64
 300 430 300 430 354 338 c 0,65,66
 402 254 402 254 402 144 c 0,42,43
26 146 m 1,67,-1
 -20 146 l 1,68,-1
 -20 168 l 1,69,-1
 24 168 l 1,70,-1
 26 146 l 1,67,-1
254 -6 m 1,71,-1
 242 -28 l 1,72,-1
 -20 -28 l 1,73,-1
 -20 -6 l 1,74,-1
 254 -6 l 1,71,-1
EndSplineSet
EndChar

StartChar: less
Encoding: 60 60 31
Width: 1240
GlyphClass: 2
Flags: W
LayerCount: 2
Fore
SplineSet
993 0 m 1,0,-1
 4 471 l 1,1,-1
 4 589 l 1,2,-1
 993 1070 l 1,3,-1
 993 859 l 1,4,-1
 261 531 l 1,5,-1
 993 202 l 1,6,-1
 993 0 l 1,0,-1
EndSplineSet
EndChar

StartChar: equal
Encoding: 61 61 32
Width: 1034
GlyphClass: 2
Flags: W
LayerCount: 2
Fore
SplineSet
1054 668 m 1,0,-1
 1000 668 l 1,1,-1
 1002 690 l 1,2,-1
 1054 690 l 1,3,-1
 1054 668 l 1,0,-1
1054 494 m 1,4,-1
 996 494 l 1,5,-1
 998 516 l 1,6,-1
 1054 516 l 1,7,-1
 1054 494 l 1,4,-1
1054 320 m 1,8,-1
 998 320 l 1,9,-1
 1000 342 l 1,10,-1
 1054 342 l 1,11,-1
 1054 320 l 1,8,-1
860 494 m 1,12,-1
 742 494 l 1,13,-1
 814 516 l 1,14,-1
 860 516 l 1,15,-1
 860 494 l 1,12,-1
962 820 m 1,16,-1
 956 562 l 1,17,-1
 140 346 l 1,18,-1
 142 270 l 1,19,-1
 70 256 l 1,20,-1
 80 530 l 1,21,-1
 898 746 l 1,22,-1
 900 796 l 1,23,-1
 962 820 l 1,16,-1
642 690 m 1,24,-1
 560 668 l 1,25,-1
 -20 668 l 1,26,-1
 -20 690 l 1,27,-1
 642 690 l 1,24,-1
1054 146 m 1,28,-1
 562 146 l 1,29,-1
 640 168 l 1,30,-1
 1054 168 l 1,31,-1
 1054 146 l 1,28,-1
962 520 m 1,32,-1
 956 262 l 1,33,-1
 140 46 l 1,34,-1
 142 -30 l 1,35,-1
 70 -44 l 1,36,-1
 80 230 l 1,37,-1
 898 446 l 1,38,-1
 900 496 l 1,39,-1
 962 520 l 1,32,-1
464 342 m 1,40,-1
 382 320 l 1,41,-1
 180 320 l 1,42,-1
 180 342 l 1,43,-1
 464 342 l 1,40,-1
1054 -28 m 1,44,-1
 182 -28 l 1,45,-1
 186 -6 l 1,46,-1
 1054 -6 l 1,47,-1
 1054 -28 l 1,44,-1
42 516 m 1,48,-1
 36 494 l 1,49,-1
 -20 494 l 1,50,-1
 -20 516 l 1,51,-1
 42 516 l 1,48,-1
36 320 m 1,52,-1
 -20 320 l 1,53,-1
 -20 342 l 1,54,-1
 36 342 l 1,55,-1
 36 320 l 1,52,-1
36 146 m 1,56,-1
 -20 146 l 1,57,-1
 -20 168 l 1,58,-1
 36 168 l 1,59,-1
 36 146 l 1,56,-1
30 -6 m 1,60,-1
 28 -28 l 1,61,-1
 -20 -28 l 1,62,-1
 -20 -6 l 1,63,-1
 30 -6 l 1,60,-1
EndSplineSet
EndChar

StartChar: greater
Encoding: 62 62 33
Width: 1306
GlyphClass: 2
Flags: W
LayerCount: 2
Fore
SplineSet
242 202 m 1,0,-1
 974 531 l 1,1,-1
 242 859 l 1,2,-1
 242 1070 l 1,3,-1
 1231 589 l 1,4,-1
 1231 471 l 1,5,-1
 242 0 l 1,6,-1
 242 202 l 1,0,-1
EndSplineSet
EndChar

StartChar: question
Encoding: 63 63 34
Width: 772
GlyphClass: 2
Flags: W
LayerCount: 2
Fore
SplineSet
792 668 m 1,0,-1
 750 668 l 1,1,-1
 756 690 l 1,2,-1
 792 690 l 1,3,-1
 792 668 l 1,0,-1
792 494 m 1,4,-1
 684 494 l 1,5,-1
 696 516 l 1,6,-1
 792 516 l 1,7,-1
 792 494 l 1,4,-1
594 690 m 1,8,-1
 592 668 l 1,9,-1
 496 668 l 1,10,-1
 496 690 l 1,11,-1
 594 690 l 1,8,-1
792 320 m 1,12,-1
 590 320 l 1,13,-1
 602 342 l 1,14,-1
 792 342 l 1,15,-1
 792 320 l 1,12,-1
544 516 m 1,16,-1
 534 494 l 1,17,-1
 452 494 l 1,18,-1
 464 516 l 1,19,-1
 544 516 l 1,16,-1
728 820 m 0,20,21
 728 632 728 632 578 374 c 0,22,23
 458 168 458 168 458 52 c 0,24,25
 458 0 458 0 470 -14 c 1,26,-1
 370 -58 l 1,27,28
 352 -38 352 -38 352 4 c 0,29,30
 352 124 352 124 426 254 c 0,31,32
 494 366 494 366 564 476 c 1,33,34
 638 612 638 612 638 744 c 0,35,36
 638 872 638 872 580 951 c 128,-1,37
 522 1030 522 1030 414 1030 c 0,38,39
 310 1030 310 1030 240 946 c 128,-1,40
 170 862 170 862 170 734 c 0,41,42
 170 600 170 600 226 544 c 1,43,44
 194 604 194 604 194 692 c 0,45,46
 194 860 194 860 320 860 c 0,47,48
 382 860 382 860 419 803 c 128,-1,49
 456 746 456 746 456 662 c 0,50,51
 456 574 456 574 418 504 c 0,52,53
 376 428 376 428 320 428 c 0,54,55
 218 428 218 428 158 517 c 128,-1,56
 98 606 98 606 98 768 c 0,57,58
 98 968 98 968 189 1094 c 128,-1,59
 280 1220 280 1220 424 1220 c 0,60,61
 728 1220 728 1220 728 820 c 0,20,21
792 146 m 1,62,-1
 518 146 l 1,63,-1
 524 168 l 1,64,-1
 792 168 l 1,65,-1
 792 146 l 1,62,-1
64 668 m 1,66,-1
 -20 668 l 1,67,-1
 -20 690 l 1,68,-1
 62 690 l 1,69,-1
 64 668 l 1,66,-1
792 -28 m 1,70,-1
 480 -28 l 1,71,-1
 506 -6 l 1,72,-1
 792 -6 l 1,73,-1
 792 -28 l 1,70,-1
136 494 m 1,74,-1
 -20 494 l 1,75,-1
 -20 516 l 1,76,-1
 118 516 l 1,77,-1
 136 494 l 1,74,-1
440 342 m 1,78,-1
 426 320 l 1,79,-1
 -20 320 l 1,80,-1
 -20 342 l 1,81,-1
 440 342 l 1,78,-1
342 168 m 1,82,-1
 336 146 l 1,83,-1
 -20 146 l 1,84,-1
 -20 168 l 1,85,-1
 342 168 l 1,82,-1
316 -28 m 1,86,-1
 -20 -28 l 1,87,-1
 -20 -6 l 1,88,-1
 312 -6 l 1,89,-1
 316 -28 l 1,86,-1
560 -292 m 0,90,91
 560 -408 560 -408 512 -478 c 0,92,93
 468 -538 468 -538 408 -538 c 0,94,95
 356 -538 356 -538 311 -482 c 128,-1,96
 266 -426 266 -426 266 -344 c 0,97,98
 266 -228 266 -228 302 -154 c 0,99,100
 344 -68 344 -68 422 -68 c 0,101,102
 560 -68 560 -68 560 -292 c 0,90,91
EndSplineSet
EndChar

StartChar: at
Encoding: 64 64 35
Width: 1619
GlyphClass: 2
Flags: W
LayerCount: 2
Fore
SplineSet
877 71 m 0,0,1
 870 83 870 83 867 104 c 1,2,3
 849 87 849 87 827.5 71 c 128,-1,4
 806 55 806 55 783 41 c 0,5,6
 711 -2 711 -2 640 -2 c 0,7,8
 564 -2 564 -2 495 41 c 128,-1,9
 426 84 426 84 381 178 c 0,10,11
 336 269 336 269 336 371 c 0,12,13
 336 493 336 493 401 626 c 0,14,15
 467 758 467 758 568 824 c 0,16,17
 668 890 668 890 764 890 c 0,18,19
 843 890 843 890 903 851 c 0,20,21
 929 837 929 837 950.5 818.5 c 128,-1,22
 972 800 972 800 991 774 c 1,23,24
 996 798 996 798 1002 821.5 c 128,-1,25
 1008 845 1008 845 1013 865 c 1,26,-1
 1190 865 l 1,27,-1
 1073 320 l 1,28,-1
 1050 195 l 2,29,30
 1051 190 1051 190 1054 185.5 c 128,-1,31
 1057 181 1057 181 1062 176 c 2,32,-1
 1060 178 l 2,33,34
 1072 168 1072 168 1085 168 c 0,35,36
 1122 168 1122 168 1181 210 c 0,37,38
 1263 267 1263 267 1316 371 c 0,39,40
 1370 474 1370 474 1370 583 c 0,41,42
 1370 702 1370 702 1304 813 c 0,43,44
 1272 869 1272 869 1223.5 913 c 128,-1,45
 1175 957 1175 957 1112 991 c 0,46,47
 1048 1021 1048 1021 977.5 1040.5 c 128,-1,48
 907 1060 907 1060 829 1060 c 0,49,50
 648 1060 648 1060 503 976 c 0,51,52
 429 934 429 934 372.5 874 c 128,-1,53
 316 814 316 814 274 733 c 0,54,55
 191 570 191 570 191 402 c 0,56,57
 191 311 191 311 211 230.5 c 128,-1,58
 231 150 231 150 271 83.5 c 128,-1,59
 311 17 311 17 369 -34 c 128,-1,60
 427 -85 427 -85 504 -118 c 0,61,62
 582 -152 582 -152 668 -168 c 128,-1,63
 754 -184 754 -184 849 -184 c 0,64,65
 1050 -184 1050 -184 1181 -119 c 0,66,67
 1315 -54 1315 -54 1393 54 c 1,68,-1
 1574 54 l 1,69,70
 1519 -65 1519 -65 1421 -148 c 0,71,72
 1374 -188 1374 -188 1310.5 -223.5 c 128,-1,73
 1247 -259 1247 -259 1181 -285 c 0,74,75
 1152 -295 1152 -295 1113 -305.5 c 128,-1,76
 1074 -316 1074 -316 1031 -324 c 0,77,78
 993 -331 993 -331 951 -334.5 c 128,-1,79
 909 -338 909 -338 852 -338 c 0,80,81
 716 -338 716 -338 599 -312 c 128,-1,82
 482 -286 482 -286 387 -235.5 c 128,-1,83
 292 -185 292 -185 220.5 -110.5 c 128,-1,84
 149 -36 149 -36 104 61 c 0,85,86
 37 219 37 219 37 388 c 0,87,88
 37 488 37 488 57.5 580 c 128,-1,89
 78 672 78 672 117 760 c 0,90,91
 217 973 217 973 394 1091 c 0,92,93
 575 1210 575 1210 835 1210 c 0,94,95
 935 1210 935 1210 1022 1190.5 c 128,-1,96
 1109 1171 1109 1171 1191 1129 c 0,97,98
 1272 1090 1272 1090 1335.5 1029 c 128,-1,99
 1399 968 1399 968 1448 883 c 0,100,101
 1523 740 1523 740 1523 581 c 0,102,103
 1523 464 1523 464 1480.5 359 c 128,-1,104
 1438 254 1438 254 1358 163 c 0,105,106
 1285 85 1285 85 1202.5 41.5 c 128,-1,107
 1120 -2 1120 -2 1033 -2 c 2,108,-1
 1012 -2 l 1,109,-1
 977 0 l 2,110,111
 954 4 954 4 933 18 c 1,112,-1
 934 18 l 1,113,114
 917 27 917 27 903.5 40.5 c 128,-1,115
 890 54 890 54 877 71 c 0,0,1
521 360 m 0,116,117
 521 261 521 261 566 207 c 0,118,119
 610 154 610 154 667 154 c 0,120,121
 707 154 707 154 753.5 178.5 c 128,-1,122
 800 203 800 203 839 251 c 0,123,124
 859 274 859 274 876.5 305.5 c 128,-1,125
 894 337 894 337 907 376 c 0,126,127
 936 455 936 455 936 530 c 0,128,129
 936 627 936 627 889 682 c 0,130,131
 844 735 844 735 774 735 c 0,132,133
 751 735 751 735 730 729.5 c 128,-1,134
 709 724 709 724 690 711 c 0,135,136
 646 687 646 687 611 636 c 128,-1,137
 576 585 576 585 545 500 c 1,138,-1
 545 501 l 1,139,140
 521 427 521 427 521 360 c 0,116,117
EndSplineSet
EndChar

StartChar: bracketleft
Encoding: 91 91 36
Width: 426
GlyphClass: 2
Flags: W
LayerCount: 2
Fore
SplineSet
89 1496 m 1,0,-1
 404 1496 l 1,1,-1
 404 1328 l 1,2,-1
 252 1328 l 1,3,-1
 252 -81 l 1,4,-1
 404 -81 l 1,5,-1
 404 -259 l 1,6,-1
 89 -259 l 1,7,-1
 89 1496 l 1,0,-1
EndSplineSet
EndChar

StartChar: backslash
Encoding: 92 92 37
Width: 865
GlyphClass: 2
Flags: W
LayerCount: 2
Fore
SplineSet
184 1239 m 1,0,-1
 838 -119 l 1,1,-1
 674 -119 l 1,2,-1
 16 1239 l 1,3,-1
 184 1239 l 1,0,-1
EndSplineSet
EndChar

StartChar: bracketright
Encoding: 93 93 38
Width: 428
GlyphClass: 2
Flags: W
LayerCount: 2
Fore
SplineSet
331 -259 m 1,0,-1
 16 -259 l 1,1,-1
 16 -81 l 1,2,-1
 169 -81 l 1,3,-1
 169 1328 l 1,4,-1
 16 1328 l 1,5,-1
 16 1496 l 1,6,-1
 331 1496 l 1,7,-1
 331 -259 l 1,0,-1
EndSplineSet
EndChar

StartChar: asciicircum
Encoding: 94 94 39
Width: 719
GlyphClass: 2
Flags: W
LayerCount: 2
Fore
SplineSet
180 450 m 1,0,-1
 43 450 l 1,1,-1
 306 1234 l 1,2,-1
 414 1234 l 1,3,-1
 674 450 l 1,4,-1
 540 450 l 1,5,-1
 358 1032 l 1,6,-1
 180 450 l 1,0,-1
EndSplineSet
EndChar

StartChar: underscore
Encoding: 95 95 40
Width: 1192
GlyphClass: 2
Flags: W
LayerCount: 2
Fore
SplineSet
108 -333 m 1,0,-1
 108 -226 l 1,1,-1
 1083 -226 l 1,2,-1
 1083 -333 l 1,3,-1
 108 -333 l 1,0,-1
EndSplineSet
EndChar

StartChar: braceleft
Encoding: 123 123 41
Width: 623
GlyphClass: 2
Flags: W
LayerCount: 2
Fore
SplineSet
124 705 m 1,0,1
 178 705 178 705 213.5 737.5 c 128,-1,2
 249 770 249 770 260 823 c 1,3,-1
 260 820 l 1,4,-1
 265 921 l 2,5,6
 267 948 267 948 269 977.5 c 128,-1,7
 271 1007 271 1007 273 1034 c 0,8,9
 273 1111 273 1111 274 1164.5 c 128,-1,10
 275 1218 275 1218 277 1247 c 0,11,12
 279 1277 279 1277 284.5 1305.5 c 128,-1,13
 290 1334 290 1334 299 1358 c 0,14,15
 318 1407 318 1407 345 1437.5 c 128,-1,16
 372 1468 372 1468 420 1485 c 0,17,18
 460 1500 460 1500 518 1500 c 2,19,-1
 578 1500 l 1,20,-1
 578 1319 l 1,21,-1
 533 1319 l 2,22,23
 473 1319 473 1319 451 1287 c 1,24,-1
 452 1288 l 1,25,26
 432 1259 432 1259 432 1151 c 2,27,-1
 432 960 l 1,28,-1
 429 892 l 2,29,30
 429 867 429 867 423 851 c 0,31,32
 417 804 417 804 404.5 764.5 c 128,-1,33
 392 725 392 725 376 698 c 0,34,35
 363 678 363 678 342 655.5 c 128,-1,36
 321 633 321 633 297 613 c 1,37,38
 363 567 363 567 394 494 c 0,39,40
 412 449 412 449 422 376 c 128,-1,41
 432 303 432 303 432 203 c 2,42,-1
 434 -5 l 2,43,44
 437 -58 437 -58 454 -78 c 1,45,-1
 482 -93 l 1,46,47
 501 -97 501 -97 533 -97 c 2,48,-1
 578 -97 l 1,49,-1
 578 -275 l 1,50,-1
 518 -275 l 2,51,52
 442 -275 442 -275 409 -261 c 0,53,54
 363 -237 363 -237 324 -189 c 1,55,56
 298 -148 298 -148 281 -64 c 0,57,58
 277 -29 277 -29 275 31.5 c 128,-1,59
 273 92 273 92 273 177 c 0,60,61
 273 258 273 258 270 313.5 c 128,-1,62
 267 369 267 369 260 399 c 0,63,64
 248 454 248 454 220 485 c 1,65,66
 200 499 200 499 176.5 507 c 128,-1,67
 153 515 153 515 124 515 c 1,68,-1
 124 705 l 1,0,1
EndSplineSet
EndChar

StartChar: bar
Encoding: 124 124 42
Width: 313
GlyphClass: 2
Flags: W
LayerCount: 2
Fore
SplineSet
70 -259 m 1,0,-1
 70 1586 l 1,1,-1
 242 1586 l 1,2,-1
 239 -259 l 1,3,-1
 70 -259 l 1,0,-1
EndSplineSet
EndChar

StartChar: braceright
Encoding: 125 125 43
Width: 547
GlyphClass: 2
Flags: W
LayerCount: 2
Fore
SplineSet
489 517 m 1,0,1
 458 517 458 517 435 510 c 128,-1,2
 412 503 412 503 395 489 c 0,3,4
 379 472 379 472 368 451 c 128,-1,5
 357 430 357 430 351 401 c 0,6,7
 339 341 339 341 339 179 c 0,8,9
 339 11 339 11 330 -59 c 0,10,11
 316 -146 316 -146 289 -187 c 0,12,13
 270 -210 270 -210 248.5 -228.5 c 128,-1,14
 227 -247 227 -247 203 -259 c 0,15,16
 170 -273 170 -273 94 -273 c 2,17,-1
 33 -273 l 1,18,-1
 33 -95 l 1,19,-1
 79 -95 l 2,20,21
 96 -95 96 -95 108 -93.5 c 128,-1,22
 120 -92 120 -92 131 -90 c 2,23,-1
 158 -76 l 1,24,25
 176 -55 176 -55 179 -2 c 0,26,27
 179 49 179 49 180 101 c 128,-1,28
 181 153 181 153 181 205 c 0,29,30
 181 306 181 306 190 378.5 c 128,-1,31
 199 451 199 451 218 496 c 0,32,33
 252 572 252 572 315 615 c 1,34,35
 290 635 290 635 269 657.5 c 128,-1,36
 248 680 248 680 235 700 c 0,37,38
 219 726 219 726 207.5 767 c 128,-1,39
 196 808 196 808 188 853 c 0,40,41
 185 861 185 861 184.5 870.5 c 128,-1,42
 184 880 184 880 184 894 c 2,43,-1
 181 962 l 1,44,-1
 181 1153 l 2,45,46
 181 1261 181 1261 161 1290 c 1,47,-1
 162 1289 l 1,48,49
 140 1321 140 1321 79 1321 c 2,50,-1
 33 1321 l 1,51,-1
 33 1502 l 1,52,-1
 94 1502 l 2,53,54
 153 1502 153 1502 191 1487 c 0,55,56
 237 1470 237 1470 265.5 1439 c 128,-1,57
 294 1408 294 1408 311 1360 c 0,58,59
 321 1336 321 1336 326.5 1307.5 c 128,-1,60
 332 1279 332 1279 334 1249 c 0,61,62
 336 1220 336 1220 337.5 1166 c 128,-1,63
 339 1112 339 1112 339 1037 c 1,64,-1
 348 923 l 1,65,-1
 352 825 l 1,66,67
 364 773 364 773 399 740 c 128,-1,68
 434 707 434 707 489 707 c 1,69,-1
 489 517 l 1,0,1
EndSplineSet
EndChar

StartChar: asciitilde
Encoding: 126 126 44
Width: 1161
GlyphClass: 2
Flags: W
LayerCount: 2
Fore
SplineSet
1045 747 m 1,0,-1
 1086 747 l 1,1,2
 1082 571 1082 571 1014 469.5 c 128,-1,3
 946 368 946 368 850 368 c 0,4,5
 807 368 807 368 757.5 389 c 128,-1,6
 708 410 708 410 503 535 c 0,7,8
 356 620 356 620 294 620 c 0,9,10
 229 620 229 620 183.5 562 c 128,-1,11
 138 504 138 504 118 371 c 1,12,-1
 75 371 l 1,13,14
 83 557 83 557 148.5 654.5 c 128,-1,15
 214 752 214 752 302 752 c 0,16,17
 342 752 342 752 387 732 c 0,18,19
 484 691 484 691 642.5 592.5 c 128,-1,20
 801 494 801 494 867 494 c 0,21,22
 936 494 936 494 985 559.5 c 128,-1,23
 1034 625 1034 625 1045 747 c 1,0,-1
EndSplineSet
EndChar

StartChar: cent
Encoding: 162 162 45
Width: 721
GlyphClass: 2
Flags: W
LayerCount: 2
Fore
SplineSet
598 156 m 1,0,1
 537 71 537 71 467 31 c 128,-1,2
 397 -9 397 -9 304 -17 c 1,3,-1
 228 -265 l 1,4,-1
 187 -265 l 1,5,-1
 262 -17 l 1,6,7
 177 -8 177 -8 128.5 47 c 128,-1,8
 80 102 80 102 80 188 c 0,9,10
 80 345 80 345 191.5 478.5 c 128,-1,11
 303 612 303 612 457 638 c 1,12,-1
 541 917 l 1,13,-1
 580 917 l 1,14,-1
 499 638 l 1,15,16
 580 638 580 638 616.5 607 c 128,-1,17
 653 576 653 576 653 523 c 0,18,19
 653 482 653 482 631.5 455.5 c 128,-1,20
 610 429 610 429 580 429 c 0,21,22
 557 429 557 429 544 442 c 128,-1,23
 531 455 531 455 531 476 c 0,24,25
 531 491 531 491 536 502 c 128,-1,26
 541 513 541 513 560.5 534.5 c 128,-1,27
 580 556 580 556 580 570 c 0,28,29
 580 578 580 578 575 585 c 0,30,31
 565 596 565 596 549.5 601 c 128,-1,32
 534 606 534 606 489 606 c 1,33,-1
 322 49 l 1,34,-1
 352 47 l 1,35,36
 470 47 470 47 580 173 c 1,37,-1
 598 156 l 1,0,1
284 57 m 1,38,-1
 445 598 l 1,39,40
 383 570 383 570 342 533 c 0,41,42
 274 467 274 467 237 380.5 c 128,-1,43
 200 294 200 294 200 205 c 0,44,45
 200 146 200 146 224 108 c 0,46,47
 243 81 243 81 284 57 c 1,38,-1
EndSplineSet
EndChar

StartChar: multiply
Encoding: 215 215 46
Width: 975
GlyphClass: 2
Flags: W
LayerCount: 2
Fore
SplineSet
267 230 m 1,0,-1
 515 479 l 1,1,-1
 267 728 l 1,2,-1
 308 768 l 1,3,-1
 556 520 l 1,4,-1
 805 768 l 1,5,-1
 844 728 l 1,6,-1
 595 480 l 1,7,-1
 845 230 l 1,8,-1
 805 190 l 1,9,-1
 555 439 l 1,10,-1
 307 190 l 1,11,-1
 267 230 l 1,0,-1
EndSplineSet
EndChar

StartChar: divide
Encoding: 247 247 47
Width: 1034
GlyphClass: 2
Flags: W
LayerCount: 2
Fore
SplineSet
1054 668 m 1,0,-1
 1000 668 l 1,1,-1
 1002 690 l 1,2,-1
 1054 690 l 1,3,-1
 1054 668 l 1,0,-1
1054 494 m 1,4,-1
 996 494 l 1,5,-1
 998 516 l 1,6,-1
 1054 516 l 1,7,-1
 1054 494 l 1,4,-1
860 668 m 1,8,-1
 662 668 l 1,9,-1
 678 690 l 1,10,-1
 860 690 l 1,11,-1
 860 668 l 1,8,-1
674 840 m 0,12,13
 674 744 674 744 632 680 c 0,14,15
 586 610 586 610 508 610 c 0,16,17
 436 610 436 610 396 678 c 0,18,19
 360 738 360 738 360 824 c 0,20,21
 360 896 360 896 400 960 c 0,22,23
 446 1034 446 1034 516 1034 c 256,24,25
 586 1034 586 1034 630 976 c 128,-1,26
 674 918 674 918 674 840 c 0,12,13
1054 320 m 1,27,-1
 388 320 l 1,28,-1
 468 342 l 1,29,-1
 1054 342 l 1,30,-1
 1054 320 l 1,27,-1
1054 146 m 1,31,-1
 700 146 l 1,32,-1
 696 168 l 1,33,-1
 1054 168 l 1,34,-1
 1054 146 l 1,31,-1
962 740 m 1,35,-1
 956 482 l 1,36,-1
 140 266 l 1,37,-1
 142 190 l 1,38,-1
 70 176 l 1,39,-1
 80 450 l 1,40,-1
 898 666 l 1,41,-1
 900 716 l 1,42,-1
 962 740 l 1,35,-1
362 668 m 1,43,-1
 -20 668 l 1,44,-1
 -20 690 l 1,45,-1
 350 690 l 1,46,-1
 362 668 l 1,43,-1
1054 -28 m 1,47,-1
 680 -28 l 1,48,-1
 686 -6 l 1,49,-1
 1054 -6 l 1,50,-1
 1054 -28 l 1,47,-1
294 516 m 1,51,-1
 210 494 l 1,52,-1
 -20 494 l 1,53,-1
 -20 516 l 1,54,-1
 294 516 l 1,51,-1
662 108 m 0,55,56
 662 8 662 8 626 -54 c 0,57,58
 586 -124 586 -124 510 -124 c 0,59,60
 442 -124 442 -124 406 -62 c 0,61,62
 374 -6 374 -6 374 74 c 0,63,64
 374 288 374 288 520 288 c 0,65,66
 662 288 662 288 662 108 c 0,55,56
36 320 m 1,67,-1
 -20 320 l 1,68,-1
 -20 342 l 1,69,-1
 36 342 l 1,70,-1
 36 320 l 1,67,-1
344 168 m 1,71,-1
 340 146 l 1,72,-1
 -20 146 l 1,73,-1
 -20 168 l 1,74,-1
 344 168 l 1,71,-1
350 -28 m 1,75,-1
 -20 -28 l 1,76,-1
 -20 -6 l 1,77,-1
 344 -6 l 1,78,-1
 350 -28 l 1,75,-1
EndSplineSet
EndChar

StartChar: tm_visarga
Encoding: 2947 2947 48
Width: 930
GlyphClass: 2
Flags: W
LayerCount: 2
Fore
SplineSet
950 668 m 1,0,-1
 686 668 l 1,1,-1
 690 690 l 1,2,-1
 950 690 l 1,3,-1
 950 668 l 1,0,-1
950 494 m 1,4,-1
 588 494 l 1,5,-1
 614 516 l 1,6,-1
 950 516 l 1,7,-1
 950 494 l 1,4,-1
950 320 m 1,8,-1
 916 320 l 1,9,-1
 906 342 l 1,10,-1
 950 342 l 1,11,-1
 950 320 l 1,8,-1
656 768 m 0,12,13
 656 646 656 646 602 556 c 0,14,15
 542 458 542 458 442 458 c 0,16,17
 348 458 348 458 290 546 c 0,18,19
 236 628 236 628 236 748 c 0,20,21
 236 882 236 882 290 970 c 0,22,23
 350 1072 350 1072 456 1072 c 0,24,25
 656 1072 656 1072 656 768 c 0,12,13
950 146 m 1,26,-1
 944 146 l 1,27,-1
 944 168 l 1,28,-1
 950 168 l 1,29,-1
 950 146 l 1,26,-1
950 -28 m 1,30,-1
 916 -28 l 1,31,-1
 924 -6 l 1,32,-1
 950 -6 l 1,33,-1
 950 -28 l 1,30,-1
904 152 m 0,34,35
 904 -8 904 -8 842 -98 c 0,36,37
 784 -180 784 -180 694 -180 c 0,38,39
 500 -180 500 -180 500 128 c 0,40,41
 500 286 500 286 564 370 c 0,42,43
 618 444 618 444 710 444 c 0,44,45
 808 444 808 444 858 356 c 0,46,47
 904 280 904 280 904 152 c 0,34,35
506 342 m 1,48,-1
 494 320 l 1,49,-1
 456 320 l 1,50,-1
 446 342 l 1,51,-1
 506 342 l 1,48,-1
202 668 m 1,52,-1
 -20 668 l 1,53,-1
 -20 690 l 1,54,-1
 200 690 l 1,55,-1
 202 668 l 1,52,-1
296 494 m 1,56,-1
 -20 494 l 1,57,-1
 -20 516 l 1,58,-1
 274 516 l 1,59,-1
 296 494 l 1,56,-1
478 -28 m 1,60,-1
 458 -28 l 1,61,-1
 464 -6 l 1,62,-1
 472 -6 l 1,63,-1
 478 -28 l 1,60,-1
442 148 m 0,64,65
 442 -4 442 -4 388 -96 c 0,66,67
 330 -194 330 -194 228 -194 c 0,68,69
 134 -194 134 -194 78 -104 c 128,-1,70
 22 -14 22 -14 22 122 c 0,71,72
 22 262 22 262 68 350 c 0,73,74
 124 454 124 454 232 454 c 0,75,76
 442 454 442 454 442 148 c 0,64,65
24 342 m 1,77,-1
 16 320 l 1,78,-1
 -20 320 l 1,79,-1
 -20 342 l 1,80,-1
 24 342 l 1,77,-1
4 -28 m 1,81,-1
 -20 -28 l 1,82,-1
 -20 -6 l 1,83,-1
 -2 -6 l 1,84,-1
 4 -28 l 1,81,-1
602 790 m 0,85,86
 602 890 602 890 450 890 c 0,87,88
 388 890 388 890 346 864 c 0,89,90
 296 834 296 834 296 778 c 0,91,92
 296 724 296 724 340 695 c 128,-1,93
 384 666 384 666 446 666 c 0,94,95
 602 666 602 666 602 790 c 0,85,86
844 158 m 0,96,97
 844 206 844 206 808 244 c 0,98,99
 766 284 766 284 704 284 c 0,100,101
 562 284 562 284 562 152 c 0,102,103
 562 98 562 98 606 62 c 128,-1,104
 650 26 650 26 710 26 c 0,105,106
 844 26 844 26 844 158 c 0,96,97
358 140 m 0,107,108
 358 274 358 274 234 274 c 0,109,110
 96 274 96 274 96 146 c 0,111,112
 96 92 96 92 136 62 c 128,-1,113
 176 32 176 32 232 32 c 0,114,115
 358 32 358 32 358 140 c 0,107,108
804 146 m 1,116,-1
 602 146 l 1,117,-1
 602 168 l 1,118,-1
 804 168 l 1,119,-1
 804 146 l 1,116,-1
318 146 m 1,120,-1
 136 146 l 1,121,-1
 136 168 l 1,122,-1
 318 168 l 1,123,-1
 318 146 l 1,120,-1
EndSplineSet
EndChar

StartChar: tm_a
Encoding: 2949 2949 49
Width: 1176
GlyphClass: 2
Flags: W
LayerCount: 2
Fore
SplineSet
1216 668 m 1,0,-1
 1168 668 l 1,1,-1
 1168 690 l 1,2,-1
 1216 690 l 1,3,-1
 1216 668 l 1,0,-1
1216 494 m 1,4,-1
 1164 494 l 1,5,-1
 1164 516 l 1,6,-1
 1216 516 l 1,7,-1
 1216 494 l 1,4,-1
1218 320 m 1,8,-1
 1158 320 l 1,9,-1
 1160 342 l 1,10,-1
 1216 342 l 1,11,-1
 1218 320 l 1,8,-1
1218 146 m 1,12,-1
 1156 146 l 1,13,-1
 1156 168 l 1,14,-1
 1216 168 l 1,15,-1
 1218 146 l 1,12,-1
1014 342 m 1,16,-1
 1012 320 l 1,17,-1
 934 320 l 1,18,-1
 938 342 l 1,19,-1
 1014 342 l 1,16,-1
770 668 m 1,20,-1
 432 668 l 1,21,-1
 440 690 l 1,22,-1
 764 690 l 1,23,-1
 770 668 l 1,20,-1
794 494 m 1,24,-1
 654 494 l 1,25,-1
 658 516 l 1,26,-1
 794 516 l 1,27,-1
 794 494 l 1,24,-1
1218 -28 m 1,28,-1
 1154 -28 l 1,29,-1
 1154 -6 l 1,30,-1
 1218 -6 l 1,31,-1
 1218 -28 l 1,28,-1
1004 168 m 1,32,-1
 1002 146 l 1,33,-1
 894 146 l 1,34,-1
 902 168 l 1,35,-1
 1004 168 l 1,32,-1
1160 -242 m 1,36,-1
 1154 -246 l 1,37,38
 1082 -174 1082 -174 996 -138 c 1,39,40
 1032 -98 1032 -98 1042 118 c 2,41,-1
 1054 406 l 1,42,-1
 898 348 l 1,43,44
 876 102 876 102 712 -124 c 0,45,46
 520 -388 520 -388 260 -388 c 0,47,48
 150 -388 150 -388 74 -324 c 0,49,50
 -14 -250 -14 -250 -14 -116 c 0,51,52
 -14 -30 -14 -30 40 61 c 128,-1,53
 94 152 94 152 178 206 c 0,54,55
 306 288 306 288 556 380 c 0,56,57
 826 478 826 478 834 482 c 1,58,59
 822 862 822 862 590 862 c 0,60,61
 498 862 498 862 438 776 c 0,62,63
 384 698 384 698 384 594 c 0,64,65
 384 522 384 522 402 506 c 1,66,67
 394 562 394 562 429 615 c 128,-1,68
 464 668 464 668 518 668 c 0,69,70
 620 668 620 668 620 548 c 0,71,72
 620 472 620 472 581 423 c 128,-1,73
 542 374 542 374 490 374 c 0,74,75
 326 374 326 374 326 664 c 0,76,77
 326 806 326 806 404 912 c 0,78,79
 488 1028 488 1028 620 1028 c 0,80,81
 776 1028 776 1028 854 864 c 0,82,83
 916 728 916 728 916 512 c 1,84,-1
 1062 570 l 1,85,-1
 1062 770 l 1,86,-1
 1000 730 l 1,87,-1
 1000 668 l 1,88,-1
 950 634 l 1,89,-1
 950 940 l 1,90,-1
 1144 1070 l 1,91,92
 1114 434 1114 434 1114 6 c 0,93,94
 1114 -154 1114 -154 1160 -242 c 1,36,-1
994 -6 m 1,95,-1
 992 -28 l 1,96,-1
 814 -28 l 1,97,-1
 828 -6 l 1,98,-1
 994 -6 l 1,95,-1
288 690 m 1,99,-1
 286 668 l 1,100,-1
 -40 668 l 1,101,-1
 -40 690 l 1,102,-1
 288 690 l 1,99,-1
308 494 m 1,103,-1
 -40 494 l 1,104,-1
 -40 516 l 1,105,-1
 302 516 l 1,106,-1
 308 494 l 1,103,-1
416 342 m 1,107,-1
 362 320 l 1,108,-1
 -40 320 l 1,109,-1
 -40 342 l 1,110,-1
 416 342 l 1,107,-1
94 168 m 1,111,-1
 66 146 l 1,112,-1
 -40 146 l 1,113,-1
 -40 168 l 1,114,-1
 94 168 l 1,111,-1
-32 -6 m 1,115,-1
 -38 -28 l 1,116,-1
 -40 -28 l 1,117,-1
 -40 -6 l 1,118,-1
 -32 -6 l 1,115,-1
830 328 m 1,119,120
 664 264 664 264 338 140 c 0,121,122
 192 84 192 84 136 46 c 0,123,124
 54 -12 54 -12 54 -92 c 0,125,126
 54 -226 54 -226 216 -226 c 0,127,128
 322 -226 322 -226 445 -169 c 128,-1,129
 568 -112 568 -112 660 -12 c 0,130,131
 790 126 790 126 830 328 c 1,119,120
740 168 m 1,132,-1
 728 146 l 1,133,-1
 398 146 l 1,134,-1
 452 168 l 1,135,-1
 740 168 l 1,132,-1
624 -6 m 1,136,-1
 604 -28 l 1,137,-1
 108 -28 l 1,138,-1
 122 -6 l 1,139,-1
 624 -6 l 1,136,-1
EndSplineSet
EndChar

StartChar: tm_aa
Encoding: 2950 2950 50
Width: 1458
GlyphClass: 2
Flags: W
LayerCount: 2
Fore
SplineSet
1478 668 m 1,0,-1
 1160 668 l 1,1,-1
 1160 690 l 1,2,-1
 1478 690 l 1,3,-1
 1478 668 l 1,0,-1
1480 494 m 1,4,-1
 1154 494 l 1,5,-1
 1154 516 l 1,6,-1
 1480 516 l 1,7,-1
 1480 494 l 1,4,-1
1478 320 m 1,8,-1
 1148 320 l 1,9,-1
 1148 342 l 1,10,-1
 1478 342 l 1,11,-1
 1478 320 l 1,8,-1
1324 146 m 1,12,-1
 1214 146 l 1,13,-1
 1236 168 l 1,14,-1
 1320 168 l 1,15,-1
 1324 146 l 1,12,-1
782 668 m 1,16,-1
 648 668 l 1,17,-1
 636 690 l 1,18,-1
 776 690 l 1,19,-1
 782 668 l 1,16,-1
1000 320 m 1,20,-1
 924 320 l 1,21,-1
 930 342 l 1,22,-1
 1000 342 l 1,23,-1
 1000 320 l 1,20,-1
756 516 m 1,24,-1
 688 494 l 1,25,-1
 636 494 l 1,26,-1
 646 516 l 1,27,-1
 756 516 l 1,24,-1
1282 -6 m 1,28,-1
 1270 -28 l 1,29,-1
 1142 -28 l 1,30,-1
 1142 -6 l 1,31,-1
 1282 -6 l 1,28,-1
992 168 m 1,32,-1
 990 146 l 1,33,-1
 874 146 l 1,34,-1
 882 168 l 1,35,-1
 992 168 l 1,32,-1
1438 82 m 0,36,37
 1438 -128 1438 -128 1236 -308 c 0,38,39
 1060 -466 1060 -466 752 -584 c 1,40,-1
 740 -558 l 1,41,42
 952 -454 952 -454 1150 -240 c 0,43,44
 1364 -10 1364 -10 1364 146 c 0,45,46
 1364 174 1364 174 1347 198 c 128,-1,47
 1330 222 1330 222 1310 222 c 0,48,49
 1244 222 1244 222 1180 152 c 0,50,51
 1108 74 1108 74 1108 -34 c 0,52,53
 1108 -108 1108 -108 1148 -188 c 1,54,-1
 1140 -194 l 1,55,56
 1112 -166 1112 -166 1084 -136 c 0,57,58
 1034 -90 1034 -90 998 -80 c 1,59,60
 1018 -56 1018 -56 1026 16 c 0,61,62
 1026 24 1026 24 1032 166 c 2,63,-1
 1044 462 l 1,64,65
 1008 438 1008 438 896 406 c 1,66,67
 876 152 876 152 720 -70 c 0,68,69
 532 -334 532 -334 264 -334 c 0,70,71
 150 -334 150 -334 76 -274 c 0,72,73
 -16 -200 -16 -200 -16 -58 c 0,74,75
 -16 18 -16 18 32 102 c 0,76,77
 90 202 90 202 196 268 c 0,78,79
 262 310 262 310 462 388 c 0,80,81
 648 462 648 462 836 534 c 1,82,83
 830 700 830 700 778 804 c 0,84,85
 722 918 722 918 622 918 c 0,86,87
 512 918 512 918 450 837 c 128,-1,88
 388 756 388 756 388 640 c 0,89,90
 388 580 388 580 410 544 c 1,91,92
 404 620 404 620 434 672 c 128,-1,93
 464 724 464 724 524 724 c 0,94,95
 620 724 620 724 620 598 c 0,96,97
 620 522 620 522 585 475 c 128,-1,98
 550 428 550 428 494 428 c 0,99,100
 334 428 334 428 334 676 c 0,101,102
 334 848 334 848 414 966 c 128,-1,103
 494 1084 494 1084 622 1084 c 0,104,105
 778 1084 778 1084 852 918 c 0,106,107
 912 780 912 780 906 562 c 1,108,-1
 1056 622 l 1,109,-1
 1056 820 l 1,110,-1
 1000 782 l 1,111,-1
 1000 724 l 1,112,-1
 952 690 l 1,113,-1
 952 992 l 1,114,-1
 1140 1108 l 1,115,116
 1126 820 1126 820 1106 232 c 1,117,118
 1198 302 1198 302 1272 302 c 0,119,120
 1338 302 1338 302 1386 244 c 0,121,122
 1438 180 1438 180 1438 82 c 0,36,37
982 -6 m 1,123,-1
 978 -28 l 1,124,-1
 786 -28 l 1,125,-1
 798 -6 l 1,126,-1
 982 -6 l 1,123,-1
294 668 m 1,127,-1
 -20 668 l 1,128,-1
 -20 690 l 1,129,-1
 294 690 l 1,130,-1
 294 668 l 1,127,-1
338 494 m 1,131,-1
 -20 494 l 1,132,-1
 -20 516 l 1,133,-1
 326 516 l 1,134,-1
 338 494 l 1,131,-1
306 342 m 1,135,-1
 260 320 l 1,136,-1
 -20 320 l 1,137,-1
 -20 342 l 1,138,-1
 306 342 l 1,135,-1
40 168 m 1,139,-1
 22 146 l 1,140,-1
 -20 146 l 1,141,-1
 -20 168 l 1,142,-1
 40 168 l 1,139,-1
830 378 m 1,143,144
 806 368 806 368 344 190 c 0,145,146
 202 136 202 136 140 92 c 0,147,148
 56 34 56 34 56 -42 c 0,149,150
 56 -174 56 -174 242 -174 c 0,151,152
 472 -174 472 -174 668 36 c 0,153,154
 790 166 790 166 830 378 c 1,143,144
718 168 m 1,155,-1
 706 146 l 1,156,-1
 276 146 l 1,157,-1
 332 168 l 1,158,-1
 718 168 l 1,155,-1
590 -6 m 1,159,-1
 562 -28 l 1,160,-1
 96 -28 l 1,161,-1
 100 -6 l 1,162,-1
 590 -6 l 1,159,-1
EndSplineSet
EndChar

StartChar: tm_i
Encoding: 2951 2951 51
Width: 1260
GlyphClass: 2
Flags: W
LayerCount: 2
Fore
SplineSet
1280 668 m 1,0,-1
 868 668 l 1,1,-1
 862 690 l 1,2,-1
 1280 690 l 1,3,-1
 1280 668 l 1,0,-1
1280 320 m 1,4,-1
 1252 320 l 1,5,-1
 1242 342 l 1,6,-1
 1280 342 l 1,7,-1
 1280 320 l 1,4,-1
1280 494 m 1,8,-1
 878 494 l 1,9,-1
 878 516 l 1,10,-1
 1280 516 l 1,11,-1
 1280 494 l 1,8,-1
694 668 m 1,12,-1
 412 668 l 1,13,-1
 424 690 l 1,14,-1
 686 690 l 1,15,-1
 694 668 l 1,12,-1
1280 -28 m 1,16,-1
 1216 -28 l 1,17,-1
 1228 -6 l 1,18,-1
 1280 -6 l 1,19,-1
 1280 -28 l 1,16,-1
726 494 m 1,20,-1
 606 494 l 1,21,-1
 608 516 l 1,22,-1
 724 516 l 1,23,-1
 726 494 l 1,20,-1
1236 172 m 0,24,25
 1236 18 1236 18 1100 -142 c 0,26,27
 952 -316 952 -316 780 -316 c 0,28,29
 638 -316 638 -316 500 -238 c 1,30,31
 414 -318 414 -318 262 -318 c 0,32,33
 -6 -318 -6 -318 -6 -64 c 0,34,35
 -6 66 -6 66 146 198 c 1,36,37
 122 234 122 234 96 342 c 0,38,39
 68 466 68 466 68 586 c 0,40,41
 68 890 68 890 236 1070 c 0,42,43
 398 1242 398 1242 654 1242 c 0,44,45
 900 1242 900 1242 1078 1114 c 1,46,-1
 1078 884 l 2,47,48
 1078 802 1078 802 1020 802 c 0,49,50
 974 802 974 802 974 850 c 0,51,52
 974 890 974 890 1006 890 c 0,53,54
 1034 890 1034 890 1038 850 c 1,55,56
 1044 860 1044 860 1044 874 c 0,57,58
 1044 944 1044 944 936 1014 c 0,59,60
 814 1094 814 1094 650 1094 c 0,61,62
 418 1094 418 1094 277 938 c 128,-1,63
 136 782 136 782 136 520 c 0,64,65
 136 386 136 386 202 232 c 1,66,67
 568 414 568 414 768 456 c 1,68,69
 762 622 762 622 718 704 c 0,70,71
 664 806 664 806 542 806 c 0,72,73
 470 806 470 806 411 734 c 128,-1,74
 352 662 352 662 352 566 c 0,75,76
 352 512 352 512 370 482 c 1,77,78
 374 630 374 630 480 630 c 0,79,80
 568 630 568 630 568 512 c 0,81,82
 568 456 568 456 532 414 c 128,-1,83
 496 372 496 372 442 372 c 0,84,85
 304 372 304 372 304 630 c 0,86,87
 304 756 304 756 372 850 c 0,88,89
 448 956 448 956 576 956 c 0,90,91
 718 956 718 956 786 808 c 0,92,93
 846 680 846 680 838 470 c 1,94,95
 868 490 868 490 954 490 c 0,96,97
 1086 490 1086 490 1161 406 c 128,-1,98
 1236 322 1236 322 1236 172 c 0,24,25
268 690 m 1,99,-1
 266 668 l 1,100,-1
 190 668 l 1,101,-1
 194 690 l 1,102,-1
 268 690 l 1,99,-1
278 494 m 1,103,-1
 176 494 l 1,104,-1
 176 516 l 1,105,-1
 274 516 l 1,106,-1
 278 494 l 1,103,-1
34 690 m 1,107,-1
 32 668 l 1,108,-1
 -20 668 l 1,109,-1
 -20 690 l 1,110,-1
 34 690 l 1,107,-1
408 342 m 1,111,-1
 356 320 l 1,112,-1
 208 320 l 1,113,-1
 202 342 l 1,114,-1
 408 342 l 1,111,-1
32 494 m 1,115,-1
 -20 494 l 1,116,-1
 -20 516 l 1,117,-1
 30 516 l 1,118,-1
 32 494 l 1,115,-1
62 320 m 1,119,-1
 -20 320 l 1,120,-1
 -20 342 l 1,121,-1
 56 342 l 1,122,-1
 62 320 l 1,119,-1
74 168 m 1,123,-1
 54 146 l 1,124,-1
 -20 146 l 1,125,-1
 -20 168 l 1,126,-1
 74 168 l 1,123,-1
1150 294 m 0,127,128
 1150 382 1150 382 1048 382 c 0,129,130
 936 382 936 382 820 328 c 1,131,132
 762 8 762 8 574 -172 c 1,133,134
 608 -198 608 -198 684 -198 c 0,135,136
 858 -198 858 -198 1008 -30 c 0,137,138
 1150 130 1150 130 1150 294 c 0,127,128
750 314 m 1,139,140
 524 238 524 238 244 126 c 1,141,142
 262 70 262 70 332 -8 c 0,143,144
 394 -78 394 -78 438 -104 c 1,145,146
 680 18 680 18 750 314 c 1,139,140
358 -134 m 1,147,148
 330 -112 330 -112 266 -20 c 0,149,150
 202 66 202 66 186 100 c 1,151,152
 58 44 58 44 58 -54 c 0,153,154
 58 -106 58 -106 101 -138 c 128,-1,155
 144 -170 144 -170 212 -170 c 0,156,157
 282 -170 282 -170 358 -134 c 1,147,148
1108 320 m 1,158,-1
 858 320 l 1,159,-1
 894 342 l 1,160,-1
 1102 342 l 1,161,-1
 1108 320 l 1,158,-1
1086 168 m 1,162,-1
 1078 146 l 1,163,-1
 810 146 l 1,164,-1
 818 168 l 1,165,-1
 1086 168 l 1,162,-1
988 -6 m 1,166,-1
 970 -28 l 1,167,-1
 728 -28 l 1,168,-1
 740 -6 l 1,169,-1
 988 -6 l 1,166,-1
662 168 m 1,170,-1
 652 146 l 1,171,-1
 334 146 l 1,172,-1
 392 168 l 1,173,-1
 662 168 l 1,170,-1
542 -6 m 1,174,-1
 520 -28 l 1,175,-1
 390 -28 l 1,176,-1
 370 -6 l 1,177,-1
 542 -6 l 1,174,-1
232 -28 m 1,178,-1
 100 -28 l 1,179,-1
 106 -6 l 1,180,-1
 214 -6 l 1,181,-1
 232 -28 l 1,178,-1
EndSplineSet
EndChar

StartChar: tm_ii
Encoding: 2952 2952 52
Width: 1002
GlyphClass: 2
Flags: W
LayerCount: 2
Fore
SplineSet
1022 668 m 1,0,-1
 708 668 l 1,1,-1
 708 690 l 1,2,-1
 1022 690 l 1,3,-1
 1022 668 l 1,0,-1
986 510 m 0,4,5
 986 446 986 446 955 398 c 128,-1,6
 924 350 924 350 868 350 c 0,7,8
 810 350 810 350 771 391 c 128,-1,9
 732 432 732 432 732 492 c 0,10,11
 732 550 732 550 769 597 c 128,-1,12
 806 644 806 644 860 644 c 256,13,14
 914 644 914 644 950 608 c 128,-1,15
 986 572 986 572 986 510 c 0,4,5
568 668 m 1,16,-1
 480 668 l 1,17,-1
 522 690 l 1,18,-1
 568 690 l 1,19,-1
 568 668 l 1,16,-1
1022 320 m 1,20,-1
 708 320 l 1,21,-1
 708 342 l 1,22,-1
 1022 342 l 1,23,-1
 1022 320 l 1,20,-1
568 494 m 1,24,-1
 532 494 l 1,25,-1
 510 516 l 1,26,-1
 568 516 l 1,27,-1
 568 494 l 1,24,-1
1022 146 m 1,28,-1
 708 146 l 1,29,-1
 708 168 l 1,30,-1
 1022 168 l 1,31,-1
 1022 146 l 1,28,-1
568 320 m 1,32,-1
 538 320 l 1,33,-1
 548 342 l 1,34,-1
 568 342 l 1,35,-1
 568 320 l 1,32,-1
1022 -28 m 1,36,-1
 600 -28 l 1,37,-1
 642 -6 l 1,38,-1
 1022 -6 l 1,39,-1
 1022 -28 l 1,36,-1
518 404 m 0,40,41
 518 254 518 254 374 254 c 0,42,43
 326 254 326 254 296 293 c 128,-1,44
 266 332 266 332 266 386 c 0,45,46
 266 448 266 448 303 494 c 128,-1,47
 340 540 340 540 396 540 c 0,48,49
 518 540 518 540 518 404 c 0,40,41
286 516 m 1,50,-1
 262 494 l 1,51,-1
 208 494 l 1,52,-1
 208 516 l 1,53,-1
 286 516 l 1,50,-1
668 128 m 2,54,55
 668 -20 668 -20 530 -20 c 0,56,57
 478 -20 478 -20 440 14 c 128,-1,58
 402 48 402 48 402 98 c 0,59,60
 402 140 402 140 429 170 c 128,-1,61
 456 200 456 200 500 200 c 0,62,63
 586 200 586 200 586 122 c 0,64,65
 586 78 586 78 536 34 c 1,66,67
 608 30 608 30 608 146 c 2,68,-1
 608 760 l 1,69,-1
 168 518 l 1,70,-1
 172 -32 l 2,71,72
 172 -94 172 -94 132 -133 c 128,-1,73
 92 -172 92 -172 46 -172 c 0,74,75
 -10 -172 -10 -172 -39 -138 c 128,-1,76
 -68 -104 -68 -104 -68 -58 c 0,77,78
 -68 -14 -68 -14 -43 22 c 128,-1,79
 -18 58 -18 58 22 58 c 0,80,81
 98 58 98 58 98 -24 c 0,82,83
 98 -50 98 -50 84 -82 c 1,84,85
 116 -66 116 -66 114 -8 c 2,86,-1
 102 680 l 1,87,88
 580 918 580 918 668 1012 c 1,89,-1
 668 128 l 2,54,55
84 690 m 1,90,-1
 62 668 l 1,91,-1
 -20 668 l 1,92,-1
 -20 690 l 1,93,-1
 84 690 l 1,90,-1
238 320 m 1,94,-1
 210 320 l 1,95,-1
 210 342 l 1,96,-1
 232 342 l 1,97,-1
 238 320 l 1,94,-1
66 494 m 1,98,-1
 -20 494 l 1,99,-1
 -20 516 l 1,100,-1
 66 516 l 1,101,-1
 66 494 l 1,98,-1
388 168 m 1,102,-1
 372 146 l 1,103,-1
 210 146 l 1,104,-1
 210 168 l 1,105,-1
 388 168 l 1,102,-1
68 320 m 1,106,-1
 -20 320 l 1,107,-1
 -20 342 l 1,108,-1
 68 342 l 1,109,-1
 68 320 l 1,106,-1
466 -28 m 1,110,-1
 210 -28 l 1,111,-1
 210 -6 l 1,112,-1
 426 -6 l 1,113,-1
 466 -28 l 1,110,-1
72 146 m 1,114,-1
 -20 146 l 1,115,-1
 -20 168 l 1,116,-1
 72 168 l 1,117,-1
 72 146 l 1,114,-1
EndSplineSet
EndChar

StartChar: tm_u
Encoding: 2953 2953 53
Width: 1550
GlyphClass: 2
Flags: W
LayerCount: 2
Fore
SplineSet
1570 668 m 1,0,-1
 694 668 l 1,1,-1
 690 690 l 1,2,-1
 1570 690 l 1,3,-1
 1570 668 l 1,0,-1
1570 494 m 1,4,-1
 680 494 l 1,5,-1
 682 516 l 1,6,-1
 1570 516 l 1,7,-1
 1570 494 l 1,4,-1
1570 320 m 1,8,-1
 598 320 l 1,9,-1
 612 342 l 1,10,-1
 1570 342 l 1,11,-1
 1570 320 l 1,8,-1
1766 -158 m 1,12,-1
 1754 -176 l 1,13,14
 1670 -106 1670 -106 1590 -76 c 0,15,16
 1500 -44 1500 -44 1364 -44 c 0,17,18
 1182 -44 1182 -44 839 -170 c 128,-1,19
 496 -296 496 -296 342 -296 c 0,20,21
 214 -296 214 -296 130 -225 c 128,-1,22
 46 -154 46 -154 46 -52 c 256,23,24
 46 50 46 50 140 146 c 0,25,26
 176 182 176 182 342 310 c 0,27,28
 472 410 472 410 496 434 c 0,29,30
 570 512 570 512 570 606 c 0,31,32
 570 720 570 720 509 782 c 128,-1,33
 448 844 448 844 346 844 c 0,34,35
 224 844 224 844 157 767 c 128,-1,36
 90 690 90 690 90 580 c 0,37,38
 90 542 90 542 100 502 c 1,39,40
 108 640 108 640 202 640 c 0,41,42
 324 640 324 640 324 488 c 0,43,44
 324 310 324 310 200 310 c 0,45,46
 130 310 130 310 84 382 c 0,47,48
 32 458 32 458 32 580 c 0,49,50
 32 760 32 760 114 882 c 0,51,52
 202 1016 202 1016 354 1016 c 0,53,54
 490 1016 490 1016 574 898 c 0,55,56
 654 788 654 788 654 624 c 0,57,58
 654 474 654 474 578 352 c 0,59,60
 522 258 522 258 412 170 c 0,61,62
 326 106 326 106 242 44 c 0,63,64
 134 -38 134 -38 134 -122 c 0,65,66
 134 -150 134 -150 170 -173 c 128,-1,67
 206 -196 206 -196 240 -196 c 0,68,69
 328 -196 328 -196 514 -124 c 0,70,71
 824 -2 824 -2 866 12 c 0,72,73
 1088 84 1088 84 1262 84 c 0,74,75
 1426 84 1426 84 1560 22 c 128,-1,76
 1694 -40 1694 -40 1766 -158 c 1,12,-1
1572 146 m 1,77,-1
 422 146 l 1,78,-1
 450 168 l 1,79,-1
 1572 168 l 1,80,-1
 1572 146 l 1,77,-1
524 668 m 1,81,-1
 144 668 l 1,82,-1
 150 690 l 1,83,-1
 520 690 l 1,84,-1
 524 668 l 1,81,-1
512 516 m 1,85,-1
 500 494 l 1,86,-1
 364 494 l 1,87,-1
 364 516 l 1,88,-1
 512 516 l 1,85,-1
2 690 m 1,89,-1
 -2 668 l 1,90,-1
 -20 668 l 1,91,-1
 -20 690 l 1,92,-1
 2 690 l 1,89,-1
0 494 m 1,93,-1
 -20 494 l 1,94,-1
 -20 516 l 1,95,-1
 -4 516 l 1,96,-1
 0 494 l 1,93,-1
778 -6 m 1,97,-1
 718 -28 l 1,98,-1
 212 -28 l 1,99,-1
 230 -6 l 1,100,-1
 778 -6 l 1,97,-1
112 320 m 1,101,-1
 -20 320 l 1,102,-1
 -20 342 l 1,103,-1
 76 342 l 1,104,-1
 112 320 l 1,101,-1
122 168 m 1,105,-1
 100 146 l 1,106,-1
 -20 146 l 1,107,-1
 -20 168 l 1,108,-1
 122 168 l 1,105,-1
10 -6 m 1,109,-1
 8 -28 l 1,110,-1
 -20 -28 l 1,111,-1
 -20 -6 l 1,112,-1
 10 -6 l 1,109,-1
EndSplineSet
EndChar

StartChar: tm_uu
Encoding: 2954 2954 54
Width: 2042
GlyphClass: 2
Flags: W
LayerCount: 2
Fore
SplineSet
2062 668 m 1,0,-1
 1934 668 l 1,1,-1
 1942 690 l 1,2,-1
 2062 690 l 1,3,-1
 2062 668 l 1,0,-1
2062 494 m 1,4,-1
 1746 494 l 1,5,-1
 1746 516 l 1,6,-1
 2062 516 l 1,7,-1
 2062 494 l 1,4,-1
2062 320 m 1,8,-1
 1744 320 l 1,9,-1
 1744 342 l 1,10,-1
 2062 342 l 1,11,-1
 2062 320 l 1,8,-1
2062 146 m 1,12,-1
 1756 146 l 1,13,-1
 1748 168 l 1,14,-1
 2062 168 l 1,15,-1
 2062 146 l 1,12,-1
1360 690 m 1,16,-1
 1338 668 l 1,17,-1
 1316 690 l 1,18,-1
 1360 690 l 1,16,-1
1598 494 m 1,19,-1
 1418 494 l 1,20,-1
 1426 516 l 1,21,-1
 1598 516 l 1,22,-1
 1598 494 l 1,19,-1
1964 832 m 1,23,24
 1906 672 1906 672 1881 645 c 128,-1,25
 1856 618 1856 618 1708 618 c 1,26,-1
 1702 224 l 2,27,28
 1702 176 1702 176 1734 100 c 1,29,30
 1712 96 1712 96 1675 120 c 128,-1,31
 1638 144 1638 144 1622 140 c 1,32,33
 1640 244 1640 244 1636 616 c 1,34,35
 1464 622 1464 622 1406 548 c 0,36,37
 1364 496 1364 496 1364 364 c 0,38,39
 1364 156 1364 156 1392 106 c 1,40,-1
 1390 100 l 1,41,42
 1302 148 1302 148 1284 146 c 1,43,44
 1302 278 1302 278 1302 380 c 0,45,46
 1302 488 1302 488 1265 528 c 128,-1,47
 1228 568 1228 568 1138 568 c 0,48,49
 1028 568 1028 568 966 503 c 128,-1,50
 904 438 904 438 904 326 c 0,51,52
 904 270 904 270 926 236 c 1,53,54
 924 260 924 260 924 282 c 0,55,56
 924 422 924 422 1018 422 c 0,57,58
 1126 422 1126 422 1126 282 c 0,59,60
 1126 110 1126 110 1000 110 c 0,61,62
 936 110 936 110 895 176 c 128,-1,63
 854 242 854 242 854 334 c 0,64,65
 854 518 854 518 936 624 c 128,-1,66
 1018 730 1018 730 1158 730 c 0,67,68
 1300 730 1300 730 1340 588 c 1,69,70
 1366 706 1366 706 1506 738 c 0,71,72
 1530 744 1530 744 1766 760 c 0,73,74
 1914 770 1914 770 1948 832 c 1,75,-1
 1964 832 l 1,23,24
1594 320 m 1,76,-1
 1404 320 l 1,77,-1
 1404 342 l 1,78,-1
 1594 342 l 1,79,-1
 1594 320 l 1,76,-1
1586 168 m 1,80,-1
 1582 146 l 1,81,-1
 1418 146 l 1,82,-1
 1412 168 l 1,83,-1
 1586 168 l 1,80,-1
1246 494 m 1,84,-1
 998 494 l 1,85,-1
 1020 516 l 1,86,-1
 1234 516 l 1,87,-1
 1246 494 l 1,84,-1
1262 342 m 1,88,-1
 1260 320 l 1,89,-1
 1164 320 l 1,90,-1
 1158 342 l 1,91,-1
 1262 342 l 1,88,-1
968 690 m 1,92,-1
 940 668 l 1,93,-1
 682 668 l 1,94,-1
 678 690 l 1,95,-1
 968 690 l 1,92,-1
2278 -224 m 1,96,-1
 2266 -242 l 1,97,98
 2050 -44 2050 -44 1758 -44 c 0,99,100
 1510 -44 1510 -44 1080 -172 c 1,101,102
 900 -234 900 -234 718 -294 c 0,103,104
 510 -360 510 -360 340 -360 c 0,105,106
 228 -360 228 -360 133 -286 c 128,-1,107
 38 -212 38 -212 38 -114 c 256,108,109
 38 -16 38 -16 132 82 c 0,110,111
 178 128 178 128 334 248 c 0,112,113
 450 336 450 336 490 382 c 0,114,115
 568 468 568 468 568 556 c 0,116,117
 568 774 568 774 340 774 c 0,118,119
 226 774 226 774 158 700 c 128,-1,120
 90 626 90 626 90 516 c 0,121,122
 90 476 90 476 100 434 c 1,123,124
 96 578 96 578 212 578 c 0,125,126
 318 578 318 578 318 424 c 0,127,128
 318 344 318 344 283 296 c 128,-1,129
 248 248 248 248 192 248 c 0,130,131
 114 248 114 248 70 334 c 0,132,133
 32 408 32 408 32 512 c 0,134,135
 32 694 32 694 114 818 c 0,136,137
 204 954 204 954 354 954 c 0,138,139
 500 954 500 954 578 842 c 0,140,141
 650 742 650 742 650 574 c 0,142,143
 650 424 650 424 574 300 c 0,144,145
 518 206 518 206 408 114 c 0,146,147
 324 46 324 46 240 -20 c 0,148,149
 124 -118 124 -118 124 -184 c 0,150,151
 124 -212 124 -212 162 -231 c 128,-1,152
 200 -250 200 -250 244 -250 c 0,153,154
 372 -250 372 -250 702 -138 c 0,155,156
 938 -60 938 -60 1174 20 c 1,157,158
 1466 100 1466 100 1680 100 c 0,159,160
 1870 100 1870 100 2022 22 c 0,161,162
 2188 -62 2188 -62 2278 -224 c 1,96,-1
1248 168 m 1,163,-1
 1246 146 l 1,164,-1
 1128 146 l 1,165,-1
 1144 168 l 1,166,-1
 1248 168 l 1,163,-1
840 516 m 1,167,-1
 834 494 l 1,168,-1
 684 494 l 1,169,-1
 686 516 l 1,170,-1
 840 516 l 1,167,-1
814 320 m 1,171,-1
 626 320 l 1,172,-1
 638 342 l 1,173,-1
 814 342 l 1,174,-1
 814 320 l 1,171,-1
508 668 m 1,175,-1
 174 668 l 1,176,-1
 190 690 l 1,177,-1
 494 690 l 1,178,-1
 508 668 l 1,175,-1
524 516 m 1,179,-1
 518 494 l 1,180,-1
 350 494 l 1,181,-1
 342 516 l 1,182,-1
 524 516 l 1,179,-1
878 146 m 1,183,-1
 486 146 l 1,184,-1
 508 168 l 1,185,-1
 860 168 l 1,186,-1
 878 146 l 1,183,-1
412 342 m 1,187,-1
 384 320 l 1,188,-1
 338 320 l 1,189,-1
 348 342 l 1,190,-1
 412 342 l 1,187,-1
1050 -6 m 1,191,-1
 986 -28 l 1,192,-1
 270 -28 l 1,193,-1
 298 -6 l 1,194,-1
 1050 -6 l 1,191,-1
38 320 m 1,195,-1
 -20 320 l 1,196,-1
 -20 342 l 1,197,-1
 24 342 l 1,198,-1
 38 320 l 1,195,-1
190 168 m 1,199,-1
 162 146 l 1,200,-1
 -20 146 l 1,201,-1
 -20 168 l 1,202,-1
 190 168 l 1,199,-1
28 -6 m 1,203,-1
 16 -28 l 1,204,-1
 -20 -28 l 1,205,-1
 -20 -6 l 1,206,-1
 28 -6 l 1,203,-1
878 146 m 1,207,-1
 860 168 l 1,208,-1
 508 168 l 1,209,-1
 486 146 l 1,210,-1
 878 146 l 1,207,-1
EndSplineSet
EndChar

StartChar: tm_e
Encoding: 2958 2958 55
Width: 866
GlyphClass: 2
Flags: W
LayerCount: 2
Fore
SplineSet
886 668 m 1,0,-1
 770 668 l 1,1,-1
 770 690 l 1,2,-1
 886 690 l 1,3,-1
 886 668 l 1,0,-1
886 494 m 1,4,-1
 768 494 l 1,5,-1
 768 516 l 1,6,-1
 886 516 l 1,7,-1
 886 494 l 1,4,-1
886 320 m 1,8,-1
 764 320 l 1,9,-1
 764 342 l 1,10,-1
 886 342 l 1,11,-1
 886 320 l 1,8,-1
886 146 m 1,12,-1
 762 146 l 1,13,-1
 762 168 l 1,14,-1
 886 168 l 1,15,-1
 886 146 l 1,12,-1
986 936 m 1,16,17
 980 926 980 926 946 830 c 0,18,19
 918 752 918 752 896 736 c 0,20,21
 846 698 846 698 730 698 c 1,22,-1
 722 110 l 2,23,24
 720 -96 720 -96 586 -96 c 0,25,26
 532 -96 532 -96 494 -60 c 128,-1,27
 456 -24 456 -24 456 24 c 256,28,29
 456 72 456 72 484 107 c 128,-1,30
 512 142 512 142 558 142 c 0,31,32
 636 142 636 142 636 70 c 0,33,34
 636 2 636 2 592 -28 c 1,35,36
 596 -30 596 -30 602 -30 c 0,37,38
 620 -30 620 -30 637 -2 c 128,-1,39
 654 26 654 26 654 72 c 2,40,-1
 656 692 l 1,41,42
 594 682 594 682 408 648 c 0,43,44
 258 620 258 620 196 572 c 0,45,46
 96 498 96 498 96 334 c 0,47,48
 96 236 96 236 118 190 c 0,49,50
 134 158 134 158 178 130 c 1,51,52
 136 172 136 172 136 268 c 0,53,54
 136 356 136 356 174 406 c 0,55,56
 206 448 206 448 252 448 c 0,57,58
 380 448 380 448 380 244 c 0,59,60
 380 158 380 158 342 98 c 0,61,62
 298 30 298 30 222 30 c 0,63,64
 140 30 140 30 86 129 c 128,-1,65
 32 228 32 228 32 374 c 0,66,67
 32 522 32 522 114 645 c 128,-1,68
 196 768 196 768 320 808 c 0,69,70
 416 840 416 840 722 862 c 0,71,72
 948 878 948 878 974 944 c 1,73,-1
 986 936 l 1,16,17
616 494 m 1,74,-1
 168 494 l 1,75,-1
 182 516 l 1,76,-1
 616 516 l 1,77,-1
 616 494 l 1,74,-1
616 320 m 1,78,-1
 414 320 l 1,79,-1
 408 342 l 1,80,-1
 616 342 l 1,81,-1
 616 320 l 1,78,-1
886 -28 m 1,82,-1
 740 -28 l 1,83,-1
 748 -6 l 1,84,-1
 886 -6 l 1,85,-1
 886 -28 l 1,82,-1
110 690 m 1,86,-1
 90 668 l 1,87,-1
 -20 668 l 1,88,-1
 -20 690 l 1,89,-1
 110 690 l 1,86,-1
614 146 m 1,90,-1
 404 146 l 1,91,-1
 410 168 l 1,92,-1
 614 168 l 1,93,-1
 614 146 l 1,90,-1
430 -28 m 1,94,-1
 -20 -28 l 1,95,-1
 -20 -6 l 1,96,-1
 420 -6 l 1,97,-1
 430 -28 l 1,94,-1
EndSplineSet
EndChar

StartChar: tm_ee
Encoding: 2959 2959 56
Width: 860
GlyphClass: 2
Flags: W
LayerCount: 2
Fore
SplineSet
880 668 m 1,0,-1
 760 668 l 1,1,-1
 760 690 l 1,2,-1
 880 690 l 1,3,-1
 880 668 l 1,0,-1
880 494 m 1,4,-1
 760 494 l 1,5,-1
 760 516 l 1,6,-1
 880 516 l 1,7,-1
 880 494 l 1,4,-1
612 690 m 1,8,-1
 610 668 l 1,9,-1
 504 668 l 1,10,-1
 612 690 l 1,8,-1
880 320 m 1,11,-1
 758 320 l 1,12,-1
 758 342 l 1,13,-1
 880 342 l 1,14,-1
 880 320 l 1,11,-1
880 146 m 1,15,-1
 742 146 l 1,16,-1
 746 168 l 1,17,-1
 880 168 l 1,18,-1
 880 146 l 1,15,-1
608 494 m 1,19,-1
 162 494 l 1,20,-1
 176 516 l 1,21,-1
 608 516 l 1,22,-1
 608 494 l 1,19,-1
604 320 m 1,23,-1
 412 320 l 1,24,-1
 406 342 l 1,25,-1
 604 342 l 1,26,-1
 604 320 l 1,23,-1
880 -28 m 1,27,-1
 664 -28 l 1,28,-1
 680 -6 l 1,29,-1
 880 -6 l 1,30,-1
 880 -28 l 1,27,-1
984 964 m 1,31,32
 956 882 956 882 902 772 c 1,33,34
 886 758 886 758 830 740 c 0,35,36
 766 718 766 718 720 718 c 1,37,-1
 718 304 l 2,38,39
 716 72 716 72 600 -60 c 0,40,41
 522 -148 522 -148 356 -216 c 1,42,43
 268 -246 268 -246 182 -274 c 1,44,45
 104 -306 104 -306 104 -370 c 0,46,47
 104 -406 104 -406 123 -427 c 128,-1,48
 142 -448 142 -448 160 -448 c 0,49,50
 168 -448 168 -448 172 -444 c 1,51,52
 132 -416 132 -416 132 -386 c 0,53,54
 132 -312 132 -312 206 -312 c 0,55,56
 246 -312 246 -312 270 -336 c 128,-1,57
 294 -360 294 -360 294 -392 c 0,58,59
 294 -444 294 -444 257 -473 c 128,-1,60
 220 -502 220 -502 176 -502 c 0,61,62
 114 -502 114 -502 71 -451 c 128,-1,63
 28 -400 28 -400 28 -322 c 0,64,65
 28 -228 28 -228 136 -154 c 0,66,67
 208 -104 208 -104 360 -46 c 0,68,69
 502 8 502 8 552 48 c 0,70,71
 640 116 640 116 642 232 c 2,72,-1
 652 708 l 1,73,74
 584 694 584 694 410 658 c 0,75,76
 258 624 258 624 194 576 c 0,77,78
 88 498 88 498 88 334 c 0,79,80
 88 160 88 160 184 128 c 1,81,82
 136 180 136 180 136 274 c 0,83,84
 136 348 136 348 166 398 c 128,-1,85
 196 448 196 448 250 448 c 0,86,87
 378 448 378 448 378 244 c 0,88,89
 378 158 378 158 340 102 c 0,90,91
 298 38 298 38 222 38 c 0,92,93
 144 38 144 38 84 144 c 0,94,95
 32 240 32 240 32 334 c 0,96,97
 32 668 32 668 224 766 c 0,98,99
 314 812 314 812 698 874 c 0,100,101
 778 886 778 886 858 903 c 128,-1,102
 938 920 938 920 968 972 c 1,103,-1
 984 964 l 1,31,32
94 690 m 1,104,-1
 78 668 l 1,105,-1
 -20 668 l 1,106,-1
 -20 690 l 1,107,-1
 94 690 l 1,104,-1
594 168 m 1,108,-1
 588 146 l 1,109,-1
 402 146 l 1,110,-1
 410 168 l 1,111,-1
 594 168 l 1,108,-1
14 516 m 1,112,-1
 8 494 l 1,113,-1
 -20 494 l 1,114,-1
 -20 516 l 1,115,-1
 14 516 l 1,112,-1
-8 320 m 1,116,-1
 -20 320 l 1,117,-1
 -20 342 l 1,118,-1
 -8 342 l 1,119,-1
 -8 320 l 1,116,-1
422 -6 m 1,120,-1
 370 -28 l 1,121,-1
 -20 -28 l 1,122,-1
 -20 -6 l 1,123,-1
 422 -6 l 1,120,-1
44 146 m 1,124,-1
 -20 146 l 1,125,-1
 -20 168 l 1,126,-1
 32 168 l 1,127,-1
 44 146 l 1,124,-1
EndSplineSet
EndChar

StartChar: tm_ai
Encoding: 2960 2960 57
Width: 924
GlyphClass: 2
Flags: W
LayerCount: 2
Fore
SplineSet
944 668 m 1,0,-1
 900 668 l 1,1,-1
 882 690 l 1,2,-1
 944 690 l 1,3,-1
 944 668 l 1,0,-1
944 494 m 1,4,-1
 934 494 l 1,5,-1
 936 516 l 1,6,-1
 944 516 l 1,7,-1
 944 494 l 1,4,-1
944 320 m 1,8,-1
 860 320 l 1,9,-1
 878 342 l 1,10,-1
 944 342 l 1,11,-1
 944 320 l 1,8,-1
714 494 m 1,12,-1
 550 494 l 1,13,-1
 560 516 l 1,14,-1
 704 516 l 1,15,-1
 714 494 l 1,12,-1
482 690 m 1,16,-1
 464 668 l 1,17,-1
 454 668 l 1,18,-1
 426 690 l 1,19,-1
 482 690 l 1,16,-1
944 146 m 1,20,-1
 886 146 l 1,21,-1
 870 168 l 1,22,-1
 944 168 l 1,23,-1
 944 146 l 1,20,-1
670 342 m 1,24,-1
 640 320 l 1,25,-1
 538 320 l 1,26,-1
 534 342 l 1,27,-1
 670 342 l 1,24,-1
944 -28 m 1,28,-1
 936 -28 l 1,29,-1
 934 -6 l 1,30,-1
 944 -6 l 1,31,-1
 944 -28 l 1,28,-1
754 146 m 1,32,-1
 594 146 l 1,33,-1
 648 168 l 1,34,-1
 742 168 l 1,35,-1
 754 146 l 1,32,-1
364 494 m 1,36,-1
 274 494 l 1,37,-1
 214 516 l 1,38,-1
 354 516 l 1,39,-1
 364 494 l 1,36,-1
144 690 m 1,40,-1
 112 668 l 1,41,-1
 -20 668 l 1,42,-1
 -20 690 l 1,43,-1
 144 690 l 1,40,-1
368 342 m 1,44,-1
 362 320 l 1,45,-1
 310 320 l 1,46,-1
 316 342 l 1,47,-1
 368 342 l 1,44,-1
780 -28 m 1,48,-1
 538 -28 l 1,49,-1
 540 -6 l 1,50,-1
 780 -6 l 1,51,-1
 780 -28 l 1,48,-1
898 -70 m 0,52,53
 898 -228 898 -228 830 -321 c 128,-1,54
 762 -414 762 -414 638 -414 c 0,55,56
 540 -414 540 -414 480 -352 c 0,57,58
 414 -286 414 -286 416 -176 c 1,59,60
 260 -402 260 -402 96 -402 c 0,61,62
 14 -402 14 -402 -36 -358 c 0,63,64
 -94 -308 -94 -308 -94 -216 c 0,65,66
 -94 -28 -94 -28 124 102 c 0,67,68
 232 166 232 166 464 240 c 0,69,70
 636 294 636 294 670 314 c 0,71,72
 758 364 758 364 758 462 c 0,73,74
 758 510 758 510 724 539 c 128,-1,75
 690 568 690 568 640 568 c 0,76,77
 492 568 492 568 492 392 c 0,78,79
 492 324 492 324 510 270 c 0,80,81
 510 268 510 268 510 268 c 2,82,83
 508 268 508 268 508 266 c 2,84,-1
 392 298 l 1,85,86
 416 356 416 356 416 404 c 0,87,88
 416 592 416 592 258 592 c 0,89,90
 194 592 194 592 147 557 c 128,-1,91
 100 522 100 522 90 462 c 1,92,93
 120 508 120 508 172 508 c 0,94,95
 278 508 278 508 278 378 c 0,96,97
 278 236 278 236 152 236 c 0,98,99
 106 236 106 236 69 280 c 128,-1,100
 32 324 32 324 32 396 c 0,101,102
 32 526 32 526 100 616 c 0,103,104
 176 716 176 716 300 716 c 0,105,106
 362 716 362 716 406 676 c 128,-1,107
 450 636 450 636 462 570 c 1,108,109
 506 752 506 752 670 752 c 0,110,111
 894 752 894 752 894 520 c 0,112,113
 894 384 894 384 790 286 c 0,114,115
 714 212 714 212 568 152 c 0,116,117
 466 112 466 112 364 72 c 1,118,119
 -26 -106 -26 -106 -26 -230 c 0,120,121
 -26 -244 -26 -244 -4 -262 c 128,-1,122
 18 -280 18 -280 42 -280 c 0,123,124
 158 -280 158 -280 284 -176 c 0,125,126
 404 -74 404 -74 414 22 c 1,127,-1
 512 52 l 1,128,129
 494 -30 494 -30 494 -72 c 0,130,131
 494 -256 494 -256 636 -256 c 0,132,133
 820 -256 820 -256 820 -4 c 0,134,135
 820 138 820 138 766 188 c 1,136,-1
 776 222 l 1,137,138
 898 134 898 134 898 -70 c 0,52,53
10 516 m 1,139,-1
 4 494 l 1,140,-1
 -20 494 l 1,141,-1
 -20 516 l 1,142,-1
 10 516 l 1,139,-1
6 320 m 1,143,-1
 -20 320 l 1,144,-1
 -20 342 l 1,145,-1
 -2 342 l 1,146,-1
 6 320 l 1,143,-1
370 -6 m 1,147,-1
 360 -28 l 1,148,-1
 210 -28 l 1,149,-1
 246 -6 l 1,150,-1
 370 -6 l 1,147,-1
218 168 m 1,151,-1
 166 146 l 1,152,-1
 -20 146 l 1,153,-1
 -20 168 l 1,154,-1
 218 168 l 1,151,-1
EndSplineSet
EndChar

StartChar: tm_o
Encoding: 2962 2962 58
Width: 984
GlyphClass: 2
Flags: W
LayerCount: 2
Fore
SplineSet
1004 668 m 1,0,-1
 954 668 l 1,1,-1
 944 690 l 1,2,-1
 1004 690 l 1,3,-1
 1004 668 l 1,0,-1
1004 494 m 1,4,-1
 992 494 l 1,5,-1
 992 516 l 1,6,-1
 1004 516 l 1,7,-1
 1004 494 l 1,4,-1
1004 320 m 1,8,-1
 960 320 l 1,9,-1
 968 342 l 1,10,-1
 1004 342 l 1,11,-1
 1004 320 l 1,8,-1
684 668 m 1,12,-1
 270 668 l 1,13,-1
 296 690 l 1,14,-1
 662 690 l 1,15,-1
 684 668 l 1,12,-1
1004 146 m 1,16,-1
 828 146 l 1,17,-1
 858 168 l 1,18,-1
 1004 168 l 1,19,-1
 1004 146 l 1,16,-1
746 342 m 1,20,-1
 740 320 l 1,21,-1
 630 320 l 1,22,-1
 626 342 l 1,23,-1
 746 342 l 1,20,-1
754 494 m 1,24,-1
 172 494 l 1,25,-1
 178 516 l 1,26,-1
 750 516 l 1,27,-1
 754 494 l 1,24,-1
456 342 m 1,28,-1
 454 320 l 1,29,-1
 424 320 l 1,30,-1
 422 342 l 1,31,-1
 456 342 l 1,28,-1
70 690 m 1,32,-1
 58 668 l 1,33,-1
 -20 668 l 1,34,-1
 -20 690 l 1,35,-1
 70 690 l 1,32,-1
990 -92 m 1,36,37
 942 -148 942 -148 852 -148 c 0,38,39
 810 -148 810 -148 766 -132 c 1,40,41
 758 -292 758 -292 702 -390 c 0,42,43
 638 -504 638 -504 516 -504 c 0,44,45
 388 -504 388 -504 312 -402 c 0,46,47
 288 -368 288 -368 218 -210 c 0,48,49
 172 -108 172 -108 118 -108 c 0,50,51
 94 -108 94 -108 76 -125 c 128,-1,52
 58 -142 58 -142 62 -164 c 1,53,54
 84 -142 84 -142 102 -142 c 0,55,56
 152 -142 152 -142 152 -194 c 0,57,58
 152 -220 152 -220 128 -241 c 128,-1,59
 104 -262 104 -262 74 -262 c 0,60,61
 -6 -262 -6 -262 -6 -172 c 0,62,63
 -6 -108 -6 -108 36 -74 c 128,-1,64
 78 -40 78 -40 140 -40 c 0,65,66
 208 -40 208 -40 258 -114 c 0,67,68
 302 -182 302 -182 346 -252 c 1,69,70
 412 -326 412 -326 516 -326 c 0,71,72
 666 -326 666 -326 708 -108 c 1,73,74
 598 -46 598 -46 542 76 c 0,75,76
 494 178 494 178 494 292 c 0,77,78
 494 374 494 374 502 412 c 1,79,-1
 610 486 l 2,80,81
 608 482 608 482 612 478 c 1,82,83
 584 422 584 422 584 360 c 0,84,85
 584 310 584 310 613 274 c 128,-1,86
 642 238 642 238 694 238 c 0,87,88
 796 238 796 238 796 440 c 0,89,90
 796 584 796 584 722 672 c 0,91,92
 640 764 640 764 490 764 c 0,93,94
 320 764 320 764 217 655 c 128,-1,95
 114 546 114 546 114 356 c 0,96,97
 114 288 114 288 132 230 c 0,98,99
 150 164 150 164 184 152 c 1,100,101
 136 224 136 224 136 324 c 0,102,103
 136 492 136 492 248 492 c 0,104,105
 308 492 308 492 346 442 c 128,-1,106
 384 392 384 392 384 306 c 0,107,108
 384 196 384 196 340 132 c 128,-1,109
 296 68 296 68 222 68 c 0,110,111
 134 68 134 68 80 172 c 0,112,113
 30 264 30 264 30 382 c 0,114,115
 30 600 30 600 156 758 c 0,116,117
 292 924 292 924 502 924 c 0,118,119
 708 924 708 924 832 792 c 0,120,121
 952 668 952 668 952 480 c 0,122,123
 952 354 952 354 878 240 c 0,124,125
 798 118 798 118 690 118 c 0,126,127
 638 118 638 118 578 198 c 1,128,129
 580 132 580 132 668 66 c 0,130,131
 750 2 750 2 822 2 c 0,132,133
 844 2 844 2 862 23 c 128,-1,134
 880 44 880 44 880 62 c 0,135,136
 880 86 880 86 862 92 c 1,137,138
 862 92 862 92 862 70 c 0,139,140
 862 40 862 40 824 40 c 0,141,142
 794 40 794 40 794 80 c 0,143,144
 794 138 794 138 860 138 c 0,145,146
 930 138 930 138 990 -92 c 1,36,37
476 146 m 1,147,-1
 390 146 l 1,148,-1
 402 168 l 1,149,-1
 468 168 l 1,150,-1
 476 146 l 1,147,-1
6 516 m 1,151,-1
 0 494 l 1,152,-1
 -20 494 l 1,153,-1
 -20 516 l 1,154,-1
 6 516 l 1,151,-1
-6 320 m 1,155,-1
 -22 320 l 1,156,-1
 -22 342 l 1,157,-1
 -8 342 l 1,158,-1
 -6 320 l 1,155,-1
570 -28 m 1,159,-1
 -20 -28 l 1,160,-1
 -20 -6 l 1,161,-1
 550 -6 l 1,162,-1
 570 -28 l 1,159,-1
54 146 m 1,163,-1
 -20 146 l 1,164,-1
 -20 168 l 1,165,-1
 42 168 l 1,166,-1
 54 146 l 1,163,-1
476 146 m 1,167,-1
 468 168 l 1,168,-1
 402 168 l 1,169,-1
 390 146 l 1,170,-1
 476 146 l 1,167,-1
EndSplineSet
EndChar

StartChar: tm_oo
Encoding: 2963 2963 59
Width: 990
GlyphClass: 2
Flags: W
LayerCount: 2
Fore
SplineSet
1010 668 m 1,0,-1
 966 668 l 1,1,-1
 956 690 l 1,2,-1
 1010 690 l 1,3,-1
 1010 668 l 1,0,-1
1010 320 m 1,4,-1
 950 320 l 1,5,-1
 958 342 l 1,6,-1
 1010 342 l 1,7,-1
 1010 320 l 1,4,-1
684 668 m 1,8,-1
 260 668 l 1,9,-1
 286 690 l 1,10,-1
 664 690 l 1,11,-1
 684 668 l 1,8,-1
1010 146 m 1,12,-1
 840 146 l 1,13,-1
 870 168 l 1,14,-1
 1010 168 l 1,15,-1
 1010 146 l 1,12,-1
758 494 m 1,16,-1
 322 494 l 1,17,-1
 286 516 l 1,18,-1
 754 516 l 1,19,-1
 758 494 l 1,16,-1
752 342 m 1,20,-1
 746 320 l 1,21,-1
 632 320 l 1,22,-1
 630 342 l 1,23,-1
 752 342 l 1,20,-1
462 320 m 1,24,-1
 410 320 l 1,25,-1
 410 342 l 1,26,-1
 462 342 l 1,27,-1
 462 320 l 1,24,-1
1006 -88 m 1,28,29
 948 -144 948 -144 862 -144 c 0,30,31
 820 -144 820 -144 778 -128 c 1,32,33
 782 -156 782 -156 782 -182 c 0,34,35
 782 -324 782 -324 686 -421 c 128,-1,36
 590 -518 590 -518 458 -518 c 0,37,38
 318 -518 318 -518 230 -420 c 0,39,40
 150 -330 150 -330 150 -200 c 0,41,42
 150 -92 150 -92 211 -27 c 128,-1,43
 272 38 272 38 364 38 c 0,44,45
 438 38 438 38 480 -6 c 0,46,47
 516 -44 516 -44 516 -94 c 0,48,49
 516 -210 516 -210 412 -210 c 0,50,51
 336 -210 336 -210 336 -132 c 0,52,53
 336 -108 336 -108 354 -86 c 128,-1,54
 372 -64 372 -64 402 -64 c 0,55,56
 436 -64 436 -64 470 -94 c 1,57,58
 474 -70 474 -70 448 -46 c 128,-1,59
 422 -22 422 -22 384 -22 c 0,60,61
 338 -22 338 -22 304 -54 c 0,62,63
 264 -90 264 -90 264 -150 c 0,64,65
 264 -226 264 -226 306 -276 c 0,66,67
 360 -338 360 -338 470 -338 c 0,68,69
 566 -338 566 -338 648 -256 c 0,70,71
 724 -178 724 -178 720 -102 c 1,72,73
 502 28 502 28 502 294 c 0,74,75
 502 382 502 382 508 412 c 1,76,-1
 614 480 l 2,77,78
 612 474 612 474 616 474 c 1,79,80
 590 418 590 418 590 362 c 0,81,82
 590 228 590 228 686 228 c 0,83,84
 802 228 802 228 802 432 c 0,85,86
 802 574 802 574 726 666 c 0,87,88
 642 768 642 768 486 768 c 0,89,90
 316 768 316 768 209 657 c 128,-1,91
 102 546 102 546 102 358 c 0,92,93
 102 198 102 198 172 170 c 1,94,95
 130 210 130 210 130 326 c 0,96,97
 130 500 130 500 248 500 c 0,98,99
 370 500 370 500 370 308 c 0,100,101
 370 84 370 84 216 84 c 0,102,103
 128 84 128 84 74 176 c 0,104,105
 26 260 26 260 26 384 c 0,106,107
 26 606 26 606 148 756 c 0,108,109
 280 922 280 922 502 922 c 256,110,111
 724 922 724 922 850 786 c 0,112,113
 962 664 962 664 962 482 c 0,114,115
 962 352 962 352 890 240 c 0,116,117
 808 114 808 114 692 114 c 0,118,119
 622 114 622 114 578 200 c 1,120,121
 582 132 582 132 672 68 c 0,122,123
 756 6 756 6 828 6 c 0,124,125
 852 6 852 6 870 23 c 128,-1,126
 888 40 888 40 888 62 c 0,127,128
 888 92 888 92 870 94 c 1,129,130
 878 62 878 62 878 68 c 1,131,132
 878 58 878 58 865 47 c 128,-1,133
 852 36 852 36 838 36 c 0,134,135
 808 36 808 36 808 66 c 0,136,137
 808 92 808 92 828 112 c 128,-1,138
 848 132 848 132 872 132 c 0,139,140
 922 132 922 132 956 34 c 0,141,142
 996 -80 996 -80 1006 -88 c 1,28,29
62 690 m 1,143,-1
 50 668 l 1,144,-1
 -20 668 l 1,145,-1
 -20 690 l 1,146,-1
 62 690 l 1,143,-1
198 516 m 1,147,-1
 170 494 l 1,148,-1
 160 494 l 1,149,-1
 166 516 l 1,150,-1
 198 516 l 1,147,-1
480 146 m 1,151,-1
 372 146 l 1,152,-1
 384 168 l 1,153,-1
 474 168 l 1,154,-1
 480 146 l 1,151,-1
582 -28 m 1,155,-1
 538 -28 l 1,156,-1
 520 -6 l 1,157,-1
 560 -6 l 1,158,-1
 582 -28 l 1,155,-1
-2 516 m 1,159,-1
 -4 494 l 1,160,-1
 -20 494 l 1,161,-1
 -20 516 l 1,162,-1
 -2 516 l 1,159,-1
-10 320 m 1,163,-1
 -20 320 l 1,164,-1
 -20 342 l 1,165,-1
 -12 342 l 1,166,-1
 -10 320 l 1,163,-1
56 146 m 1,167,-1
 -20 146 l 1,168,-1
 -20 168 l 1,169,-1
 38 168 l 1,170,-1
 56 146 l 1,167,-1
192 -6 m 1,171,-1
 170 -28 l 1,172,-1
 -20 -28 l 1,173,-1
 -20 -6 l 1,174,-1
 192 -6 l 1,171,-1
EndSplineSet
EndChar

StartChar: tm_au
Encoding: 2964 2964 60
Width: 2094
GlyphClass: 2
Flags: W
LayerCount: 2
Fore
SplineSet
2114 494 m 1,0,-1
 1994 494 l 1,1,-1
 1994 516 l 1,2,-1
 2114 516 l 1,3,-1
 2114 494 l 1,0,-1
2114 320 m 1,4,-1
 1988 320 l 1,5,-1
 1988 342 l 1,6,-1
 2114 342 l 1,7,-1
 2114 320 l 1,4,-1
1672 690 m 1,8,-1
 1640 668 l 1,9,-1
 1598 668 l 1,10,-1
 1562 690 l 1,11,-1
 1672 690 l 1,8,-1
1840 494 m 1,12,-1
 1734 494 l 1,13,-1
 1760 516 l 1,14,-1
 1840 516 l 1,15,-1
 1840 494 l 1,12,-1
2114 146 m 1,16,-1
 1984 146 l 1,17,-1
 1986 168 l 1,18,-1
 2114 168 l 1,19,-1
 2114 146 l 1,16,-1
1836 320 m 1,20,-1
 1684 320 l 1,21,-1
 1684 342 l 1,22,-1
 1836 342 l 1,23,-1
 1836 320 l 1,20,-1
2114 -28 m 1,24,-1
 1982 -28 l 1,25,-1
 1982 -6 l 1,26,-1
 2114 -6 l 1,27,-1
 2114 -28 l 1,24,-1
2254 800 m 1,28,29
 2242 786 2242 786 2200 696 c 128,-1,30
 2158 606 2158 606 2132 576 c 0,31,32
 2086 524 2086 524 1954 548 c 1,33,-1
 1940 -90 l 2,34,35
 1938 -148 1938 -148 1899 -186 c 128,-1,36
 1860 -224 1860 -224 1804 -224 c 0,37,38
 1666 -224 1666 -224 1666 -104 c 0,39,40
 1666 6 1666 6 1758 6 c 0,41,42
 1794 6 1794 6 1820 -14 c 128,-1,43
 1846 -34 1846 -34 1846 -66 c 0,44,45
 1846 -146 1846 -146 1788 -156 c 1,46,47
 1796 -160 1796 -160 1808 -160 c 0,48,49
 1864 -160 1864 -160 1866 -94 c 2,50,-1
 1880 548 l 1,51,52
 1858 550 1858 550 1840 550 c 0,53,54
 1642 550 1642 550 1642 294 c 0,55,56
 1642 114 1642 114 1648 44 c 1,57,58
 1598 70 1598 70 1534 76 c 1,59,60
 1562 140 1562 140 1562 256 c 0,61,62
 1562 532 1562 532 1402 532 c 0,63,64
 1282 532 1282 532 1219 445 c 128,-1,65
 1156 358 1156 358 1156 210 c 0,66,67
 1156 40 1156 40 1214 44 c 1,68,69
 1184 96 1184 96 1184 194 c 0,70,71
 1184 374 1184 374 1292 374 c 0,72,73
 1424 374 1424 374 1424 178 c 0,74,75
 1424 92 1424 92 1388 28 c 0,76,77
 1346 -44 1346 -44 1282 -44 c 0,78,79
 1188 -44 1188 -44 1133 44 c 128,-1,80
 1078 132 1078 132 1078 298 c 0,81,82
 1078 460 1078 460 1170 582 c 0,83,84
 1266 714 1266 714 1412 714 c 0,85,86
 1504 714 1504 714 1564 664 c 0,87,88
 1608 626 1608 626 1618 576 c 1,89,90
 1656 688 1656 688 1792 718 c 0,91,92
 1846 730 1846 730 2038 734 c 0,93,94
 2176 736 2176 736 2250 802 c 0,95,96
 2252 800 2252 800 2254 800 c 1,28,29
1832 168 m 1,97,-1
 1830 146 l 1,98,-1
 1682 146 l 1,99,-1
 1682 168 l 1,100,-1
 1832 168 l 1,97,-1
1462 494 m 1,101,-1
 1312 494 l 1,102,-1
 1356 516 l 1,103,-1
 1428 516 l 1,104,-1
 1462 494 l 1,101,-1
1520 320 m 1,105,-1
 1434 320 l 1,106,-1
 1418 342 l 1,107,-1
 1518 342 l 1,108,-1
 1520 320 l 1,105,-1
1258 690 m 1,109,-1
 1220 668 l 1,110,-1
 954 668 l 1,111,-1
 944 690 l 1,112,-1
 1258 690 l 1,109,-1
1516 168 m 1,113,-1
 1514 146 l 1,114,-1
 1462 146 l 1,115,-1
 1464 168 l 1,116,-1
 1516 168 l 1,113,-1
1088 516 m 1,117,-1
 1080 494 l 1,118,-1
 992 494 l 1,119,-1
 992 516 l 1,120,-1
 1088 516 l 1,117,-1
1672 -6 m 1,121,-1
 1646 -28 l 1,122,-1
 1378 -28 l 1,123,-1
 1404 -6 l 1,124,-1
 1672 -6 l 1,121,-1
1040 342 m 1,125,-1
 1038 320 l 1,126,-1
 960 320 l 1,127,-1
 968 342 l 1,128,-1
 1040 342 l 1,125,-1
684 668 m 1,129,-1
 270 668 l 1,130,-1
 296 690 l 1,131,-1
 662 690 l 1,132,-1
 684 668 l 1,129,-1
1054 146 m 1,133,-1
 828 146 l 1,134,-1
 858 168 l 1,135,-1
 1048 168 l 1,136,-1
 1054 146 l 1,133,-1
1168 -28 m 1,137,-1
 1012 -28 l 1,138,-1
 1006 -6 l 1,139,-1
 1132 -6 l 1,140,-1
 1168 -28 l 1,137,-1
746 342 m 1,141,-1
 740 320 l 1,142,-1
 630 320 l 1,143,-1
 626 342 l 1,144,-1
 746 342 l 1,141,-1
754 494 m 1,145,-1
 172 494 l 1,146,-1
 178 516 l 1,147,-1
 750 516 l 1,148,-1
 754 494 l 1,145,-1
456 342 m 1,149,-1
 454 320 l 1,150,-1
 424 320 l 1,151,-1
 422 342 l 1,152,-1
 456 342 l 1,149,-1
70 690 m 1,153,-1
 58 668 l 1,154,-1
 -20 668 l 1,155,-1
 -20 690 l 1,156,-1
 70 690 l 1,153,-1
990 -92 m 1,157,158
 942 -148 942 -148 852 -148 c 0,159,160
 810 -148 810 -148 766 -132 c 1,161,162
 758 -292 758 -292 702 -390 c 0,163,164
 638 -504 638 -504 516 -504 c 0,165,166
 388 -504 388 -504 312 -402 c 0,167,168
 288 -368 288 -368 218 -210 c 0,169,170
 172 -108 172 -108 118 -108 c 0,171,172
 94 -108 94 -108 76 -125 c 128,-1,173
 58 -142 58 -142 62 -164 c 1,174,175
 84 -142 84 -142 102 -142 c 0,176,177
 152 -142 152 -142 152 -194 c 0,178,179
 152 -220 152 -220 128 -241 c 128,-1,180
 104 -262 104 -262 74 -262 c 0,181,182
 -6 -262 -6 -262 -6 -172 c 0,183,184
 -6 -108 -6 -108 36 -74 c 128,-1,185
 78 -40 78 -40 140 -40 c 0,186,187
 208 -40 208 -40 258 -114 c 0,188,189
 302 -182 302 -182 346 -252 c 1,190,191
 412 -326 412 -326 516 -326 c 0,192,193
 666 -326 666 -326 708 -108 c 1,194,195
 598 -46 598 -46 542 76 c 0,196,197
 494 178 494 178 494 292 c 0,198,199
 494 374 494 374 502 412 c 1,200,-1
 610 486 l 2,201,202
 608 482 608 482 612 478 c 1,203,204
 584 422 584 422 584 360 c 0,205,206
 584 310 584 310 613 274 c 128,-1,207
 642 238 642 238 694 238 c 0,208,209
 796 238 796 238 796 440 c 0,210,211
 796 584 796 584 722 672 c 0,212,213
 640 764 640 764 490 764 c 0,214,215
 320 764 320 764 217 655 c 128,-1,216
 114 546 114 546 114 356 c 0,217,218
 114 288 114 288 132 230 c 0,219,220
 150 164 150 164 184 152 c 1,221,222
 136 224 136 224 136 324 c 0,223,224
 136 492 136 492 248 492 c 0,225,226
 308 492 308 492 346 442 c 128,-1,227
 384 392 384 392 384 306 c 0,228,229
 384 196 384 196 340 132 c 128,-1,230
 296 68 296 68 222 68 c 0,231,232
 134 68 134 68 80 172 c 0,233,234
 30 264 30 264 30 382 c 0,235,236
 30 600 30 600 156 758 c 0,237,238
 292 924 292 924 502 924 c 0,239,240
 708 924 708 924 832 792 c 0,241,242
 952 668 952 668 952 480 c 0,243,244
 952 354 952 354 878 240 c 0,245,246
 798 118 798 118 690 118 c 0,247,248
 638 118 638 118 578 198 c 1,249,250
 580 132 580 132 668 66 c 0,251,252
 750 2 750 2 822 2 c 0,253,254
 844 2 844 2 862 23 c 128,-1,255
 880 44 880 44 880 62 c 0,256,257
 880 86 880 86 862 92 c 1,258,259
 862 92 862 92 862 70 c 0,260,261
 862 40 862 40 824 40 c 0,262,263
 794 40 794 40 794 80 c 0,264,265
 794 138 794 138 860 138 c 0,266,267
 930 138 930 138 990 -92 c 1,157,158
476 146 m 1,268,-1
 390 146 l 1,269,-1
 402 168 l 1,270,-1
 468 168 l 1,271,-1
 476 146 l 1,268,-1
6 516 m 1,272,-1
 0 494 l 1,273,-1
 -20 494 l 1,274,-1
 -20 516 l 1,275,-1
 6 516 l 1,272,-1
-6 320 m 1,276,-1
 -22 320 l 1,277,-1
 -22 342 l 1,278,-1
 -8 342 l 1,279,-1
 -6 320 l 1,276,-1
570 -28 m 1,280,-1
 -20 -28 l 1,281,-1
 -20 -6 l 1,282,-1
 550 -6 l 1,283,-1
 570 -28 l 1,280,-1
54 146 m 1,284,-1
 -20 146 l 1,285,-1
 -20 168 l 1,286,-1
 42 168 l 1,287,-1
 54 146 l 1,284,-1
476 146 m 1,288,-1
 468 168 l 1,289,-1
 402 168 l 1,290,-1
 390 146 l 1,291,-1
 476 146 l 1,288,-1
EndSplineSet
EndChar

StartChar: tm_ka
Encoding: 2965 2965 61
Width: 928
GlyphClass: 2
Flags: W
LayerCount: 2
Fore
SplineSet
948 668 m 1,0,-1
 648 668 l 1,1,-1
 690 690 l 1,2,-1
 948 690 l 1,3,-1
 948 668 l 1,0,-1
948 494 m 1,4,-1
 894 494 l 1,5,-1
 872 516 l 1,6,-1
 948 516 l 1,7,-1
 948 494 l 1,4,-1
948 320 m 1,8,-1
 940 320 l 1,9,-1
 940 342 l 1,10,-1
 948 342 l 1,11,-1
 948 320 l 1,8,-1
950 146 m 1,12,-1
 910 146 l 1,13,-1
 918 168 l 1,14,-1
 950 168 l 1,15,-1
 950 146 l 1,12,-1
900 332 m 0,16,17
 900 204 900 204 858 116 c 0,18,19
 828 52 828 52 762 -2 c 128,-1,20
 696 -56 696 -56 644 -56 c 0,21,22
 566 -56 566 -56 502 68 c 1,23,24
 476 -52 476 -52 392 -136 c 0,25,26
 304 -226 304 -226 200 -226 c 0,27,28
 122 -226 122 -226 68 -167 c 128,-1,29
 14 -108 14 -108 14 -8 c 0,30,31
 14 100 14 100 96 200 c 0,32,33
 166 286 166 286 276 346 c 1,34,-1
 278 696 l 1,35,-1
 710 936 l 1,36,-1
 714 1020 l 1,37,-1
 768 1050 l 1,38,-1
 770 754 l 1,39,-1
 574 650 l 1,40,-1
 568 484 l 1,41,42
 654 544 654 544 742 544 c 0,43,44
 900 544 900 544 900 332 c 0,16,17
948 -28 m 1,45,-1
 768 -28 l 1,46,-1
 798 -6 l 1,47,-1
 948 -6 l 1,48,-1
 948 -28 l 1,45,-1
238 668 m 1,49,-1
 -20 668 l 1,50,-1
 -20 690 l 1,51,-1
 238 690 l 1,52,-1
 238 668 l 1,49,-1
236 494 m 1,53,-1
 -20 494 l 1,54,-1
 -20 516 l 1,55,-1
 236 516 l 1,56,-1
 236 494 l 1,53,-1
228 342 m 1,57,-1
 194 320 l 1,58,-1
 0 320 l 1,59,-1
 0 342 l 1,60,-1
 228 342 l 1,57,-1
32 168 m 1,61,-1
 18 146 l 1,62,-1
 -20 146 l 1,63,-1
 -20 168 l 1,64,-1
 32 168 l 1,61,-1
838 330 m 0,65,66
 838 420 838 420 752 420 c 0,67,68
 718 420 718 420 550 356 c 1,69,70
 550 262 550 262 520 122 c 1,71,72
 542 92 542 92 590 92 c 0,73,74
 670 92 670 92 750 164 c 0,75,76
 838 238 838 238 838 330 c 0,65,66
516 614 m 1,77,-1
 340 514 l 1,78,-1
 340 382 l 1,79,-1
 510 464 l 1,80,-1
 516 614 l 1,77,-1
488 320 m 1,81,82
 316 242 316 242 178 144 c 0,83,84
 62 62 62 62 62 10 c 0,85,86
 62 -10 62 -10 86 -25 c 128,-1,87
 110 -40 110 -40 138 -40 c 0,88,89
 214 -40 214 -40 303 6 c 128,-1,90
 392 52 392 52 435 120 c 128,-1,91
 478 188 478 188 488 320 c 1,81,82
798 320 m 1,92,-1
 588 320 l 1,93,-1
 588 342 l 1,94,-1
 798 342 l 1,95,-1
 798 320 l 1,92,-1
716 168 m 1,96,-1
 690 146 l 1,97,-1
 564 146 l 1,98,-1
 568 168 l 1,99,-1
 716 168 l 1,96,-1
420 168 m 1,100,-1
 410 146 l 1,101,-1
 222 146 l 1,102,-1
 254 168 l 1,103,-1
 420 168 l 1,100,-1
238 -6 m 1,104,-1
 182 -28 l 1,105,-1
 126 -28 l 1,106,-1
 108 -6 l 1,107,-1
 238 -6 l 1,104,-1
EndSplineSet
EndChar

StartChar: tm_nga
Encoding: 2969 2969 62
Width: 1232
GlyphClass: 2
Flags: W
LayerCount: 2
Fore
SplineSet
1252 668 m 1,0,-1
 1218 668 l 1,1,-1
 1220 690 l 1,2,-1
 1252 690 l 1,3,-1
 1252 668 l 1,0,-1
1252 494 m 1,4,-1
 1214 494 l 1,5,-1
 1214 516 l 1,6,-1
 1252 516 l 1,7,-1
 1252 494 l 1,4,-1
1252 320 m 1,8,-1
 1210 320 l 1,9,-1
 1212 342 l 1,10,-1
 1252 342 l 1,11,-1
 1252 320 l 1,8,-1
938 668 m 1,12,-1
 684 668 l 1,13,-1
 730 690 l 1,14,-1
 938 690 l 1,15,-1
 938 668 l 1,12,-1
1056 494 m 1,16,-1
 918 494 l 1,17,-1
 898 516 l 1,18,-1
 1056 516 l 1,19,-1
 1056 494 l 1,16,-1
1252 146 m 1,20,-1
 1206 146 l 1,21,-1
 1206 168 l 1,22,-1
 1252 168 l 1,23,-1
 1252 146 l 1,20,-1
1052 320 m 1,24,-1
 970 320 l 1,25,-1
 968 342 l 1,26,-1
 1052 342 l 1,27,-1
 1052 320 l 1,24,-1
1252 -28 m 1,28,-1
 1202 -28 l 1,29,-1
 1202 -6 l 1,30,-1
 1252 -6 l 1,31,-1
 1252 -28 l 1,28,-1
1048 146 m 1,32,-1
 952 146 l 1,33,-1
 958 168 l 1,34,-1
 1048 168 l 1,35,-1
 1048 146 l 1,32,-1
812 320 m 1,36,-1
 616 320 l 1,37,-1
 630 342 l 1,38,-1
 802 342 l 1,39,-1
 812 320 l 1,36,-1
1042 -6 m 1,40,-1
 1036 -28 l 1,41,-1
 884 -28 l 1,42,-1
 884 -6 l 1,43,-1
 1042 -6 l 1,40,-1
1186 944 m 1,44,-1
 1160 -100 l 2,45,46
 1156 -290 1156 -290 996 -290 c 0,47,48
 932 -290 932 -290 887 -253 c 128,-1,49
 842 -216 842 -216 786 -106 c 1,50,51
 750 -172 750 -172 702 -172 c 0,52,53
 628 -172 628 -172 628 -86 c 0,54,55
 628 -40 628 -40 661 -5 c 128,-1,56
 694 30 694 30 738 24 c 1,57,58
 858 140 858 140 858 276 c 0,59,60
 858 334 858 334 820 372 c 128,-1,61
 782 410 782 410 726 410 c 0,62,63
 650 410 650 410 597 351 c 128,-1,64
 544 292 544 292 544 190 c 0,65,66
 544 58 544 58 590 20 c 1,67,-1
 588 14 l 1,68,69
 514 4 514 4 414 -92 c 1,70,-1
 408 -88 l 1,71,72
 444 -42 444 -42 452 44 c 0,73,74
 456 84 456 84 456 236 c 0,75,76
 456 284 456 284 459 396 c 128,-1,77
 462 508 462 508 462 566 c 1,78,-1
 208 428 l 1,79,-1
 198 -34 l 2,80,81
 196 -106 196 -106 154 -157 c 128,-1,82
 112 -208 112 -208 46 -208 c 0,83,84
 -10 -208 -10 -208 -40 -170 c 128,-1,85
 -70 -132 -70 -132 -70 -82 c 0,86,87
 -70 -38 -70 -38 -40 -3 c 128,-1,88
 -10 32 -10 32 32 32 c 0,89,90
 104 32 104 32 104 -42 c 0,91,92
 104 -114 104 -114 28 -132 c 1,93,94
 42 -138 42 -138 56 -138 c 0,95,96
 132 -138 132 -138 134 -18 c 2,97,-1
 144 608 l 1,98,-1
 732 930 l 1,99,-1
 732 996 l 1,100,-1
 792 1032 l 1,101,-1
 782 742 l 1,102,-1
 548 614 l 1,103,-1
 548 468 l 1,104,105
 570 504 570 504 623 530 c 128,-1,106
 676 556 676 556 736 556 c 0,107,108
 932 556 932 556 932 266 c 0,109,110
 932 148 932 148 836 -18 c 1,111,112
 896 -92 896 -92 978 -92 c 0,113,114
 1084 -92 1084 -92 1086 44 c 2,115,-1
 1098 654 l 1,116,-1
 1040 622 l 1,117,-1
 1040 548 l 1,118,-1
 978 516 l 1,119,-1
 978 810 l 1,120,-1
 1186 944 l 1,44,-1
422 494 m 1,121,-1
 370 494 l 1,122,-1
 410 516 l 1,123,-1
 422 516 l 1,124,-1
 422 494 l 1,121,-1
798 168 m 1,125,-1
 788 146 l 1,126,-1
 586 146 l 1,127,-1
 584 168 l 1,128,-1
 798 168 l 1,125,-1
254 690 m 1,129,-1
 214 668 l 1,130,-1
 -20 668 l 1,131,-1
 -20 690 l 1,132,-1
 254 690 l 1,129,-1
418 320 m 1,133,-1
 246 320 l 1,134,-1
 246 342 l 1,135,-1
 418 342 l 1,136,-1
 418 320 l 1,133,-1
620 -6 m 1,137,-1
 602 -28 l 1,138,-1
 530 -28 l 1,139,-1
 566 -6 l 1,140,-1
 620 -6 l 1,137,-1
102 494 m 1,141,-1
 -20 494 l 1,142,-1
 -20 516 l 1,143,-1
 102 516 l 1,144,-1
 102 494 l 1,141,-1
416 146 m 1,145,-1
 242 146 l 1,146,-1
 242 168 l 1,147,-1
 416 168 l 1,148,-1
 416 146 l 1,145,-1
100 320 m 1,149,-1
 -20 320 l 1,150,-1
 -20 342 l 1,151,-1
 100 342 l 1,152,-1
 100 320 l 1,149,-1
404 -6 m 1,153,-1
 398 -28 l 1,154,-1
 238 -28 l 1,155,-1
 238 -6 l 1,156,-1
 404 -6 l 1,153,-1
96 146 m 1,157,-1
 -20 146 l 1,158,-1
 -20 168 l 1,159,-1
 96 168 l 1,160,-1
 96 146 l 1,157,-1
EndSplineSet
EndChar

StartChar: tm_ca
Encoding: 2970 2970 63
Width: 944
GlyphClass: 2
Flags: W
LayerCount: 2
Fore
SplineSet
964 668 m 1,0,-1
 690 668 l 1,1,-1
 728 690 l 1,2,-1
 964 690 l 1,3,-1
 964 668 l 1,0,-1
964 494 m 1,4,-1
 952 494 l 1,5,-1
 952 516 l 1,6,-1
 964 516 l 1,7,-1
 964 494 l 1,4,-1
964 320 m 1,8,-1
 908 320 l 1,9,-1
 938 342 l 1,10,-1
 964 342 l 1,11,-1
 964 320 l 1,8,-1
796 320 m 1,12,-1
 598 320 l 1,13,-1
 630 342 l 1,14,-1
 770 342 l 1,15,-1
 796 320 l 1,12,-1
964 146 m 1,16,-1
 580 146 l 1,17,-1
 582 168 l 1,18,-1
 964 168 l 1,19,-1
 964 146 l 1,16,-1
914 618 m 1,20,-1
 910 386 l 2,21,22
 908 318 908 318 852 318 c 0,23,24
 802 318 802 318 802 368 c 0,25,26
 802 406 802 406 844 406 c 0,27,28
 858 406 858 406 870 398 c 1,29,30
 878 412 878 412 872 426 c 0,31,32
 866 438 866 438 852 438 c 0,33,34
 832 438 832 438 718 395 c 128,-1,35
 604 352 604 352 560 328 c 1,36,37
 554 192 554 192 524 64 c 128,-1,38
 494 -64 494 -64 428 -150 c 0,39,40
 348 -258 348 -258 238 -258 c 0,41,42
 148 -258 148 -258 86 -198 c 0,43,44
 18 -134 18 -134 18 -32 c 0,45,46
 18 166 18 166 278 320 c 1,47,-1
 286 680 l 1,48,-1
 708 932 l 1,49,-1
 708 992 l 1,50,-1
 766 1018 l 1,51,-1
 762 734 l 1,52,-1
 582 628 l 1,53,-1
 572 476 l 1,54,55
 674 534 674 534 914 618 c 1,20,-1
264 690 m 1,56,-1
 246 668 l 1,57,-1
 -20 668 l 1,58,-1
 -20 690 l 1,59,-1
 264 690 l 1,56,-1
964 -28 m 1,60,-1
 534 -28 l 1,61,-1
 544 -6 l 1,62,-1
 964 -6 l 1,63,-1
 964 -28 l 1,60,-1
242 494 m 1,64,-1
 -20 494 l 1,65,-1
 -20 516 l 1,66,-1
 242 516 l 1,67,-1
 242 494 l 1,64,-1
238 320 m 1,68,-1
 0 320 l 1,69,-1
 0 342 l 1,70,-1
 238 342 l 1,71,-1
 238 320 l 1,68,-1
52 168 m 1,72,-1
 34 146 l 1,73,-1
 -20 146 l 1,74,-1
 -20 168 l 1,75,-1
 52 168 l 1,72,-1
516 588 m 1,76,-1
 344 484 l 1,77,-1
 340 364 l 1,78,-1
 506 448 l 1,79,-1
 516 588 l 1,76,-1
490 290 m 1,80,81
 388 258 388 258 184 116 c 0,82,83
 76 42 76 42 76 -18 c 0,84,85
 76 -70 76 -70 170 -70 c 0,86,87
 250 -70 250 -70 332 -18 c 0,88,89
 404 24 404 24 434 74 c 0,90,91
 480 148 480 148 490 290 c 1,80,81
472 516 m 1,92,-1
 470 494 l 1,93,-1
 400 494 l 1,94,-1
 438 516 l 1,95,-1
 472 516 l 1,92,-1
434 168 m 1,96,-1
 426 146 l 1,97,-1
 268 146 l 1,98,-1
 304 168 l 1,99,-1
 434 168 l 1,96,-1
312 -6 m 1,100,-1
 278 -28 l 1,101,-1
 118 -28 l 1,102,-1
 118 -6 l 1,103,-1
 312 -6 l 1,100,-1
EndSplineSet
EndChar

StartChar: tm_ja
Encoding: 2972 2972 64
Width: 906
GlyphClass: 2
Flags: W
LayerCount: 2
Fore
SplineSet
926 668 m 1,0,-1
 874 668 l 1,1,-1
 856 690 l 1,2,-1
 926 690 l 1,3,-1
 926 668 l 1,0,-1
926 494 m 1,4,-1
 914 494 l 1,5,-1
 916 516 l 1,6,-1
 926 516 l 1,7,-1
 926 494 l 1,4,-1
926 320 m 1,8,-1
 850 320 l 1,9,-1
 864 342 l 1,10,-1
 926 342 l 1,11,-1
 926 320 l 1,8,-1
696 494 m 1,12,-1
 550 494 l 1,13,-1
 566 516 l 1,14,-1
 682 516 l 1,15,-1
 696 494 l 1,12,-1
474 690 m 1,16,-1
 456 668 l 1,17,-1
 432 668 l 1,18,-1
 386 690 l 1,19,-1
 474 690 l 1,16,-1
926 146 m 1,20,-1
 638 146 l 1,21,-1
 680 168 l 1,22,-1
 926 168 l 1,23,-1
 926 146 l 1,20,-1
660 342 m 1,24,-1
 636 320 l 1,25,-1
 530 320 l 1,26,-1
 528 342 l 1,27,-1
 660 342 l 1,24,-1
194 690 m 1,28,-1
 136 668 l 1,29,-1
 -20 668 l 1,30,-1
 -20 690 l 1,31,-1
 194 690 l 1,28,-1
354 494 m 1,32,-1
 146 494 l 1,33,-1
 162 516 l 1,34,-1
 340 516 l 1,35,-1
 354 494 l 1,32,-1
798 -28 m 1,36,-1
 678 -28 l 1,37,-1
 698 -6 l 1,38,-1
 798 -6 l 1,39,-1
 798 -28 l 1,36,-1
372 342 m 1,40,-1
 368 320 l 1,41,-1
 316 320 l 1,42,-1
 316 342 l 1,43,-1
 372 342 l 1,40,-1
10 516 m 1,44,-1
 4 494 l 1,45,-1
 -20 494 l 1,46,-1
 -20 516 l 1,47,-1
 10 516 l 1,44,-1
926 -48 m 0,48,49
 926 -232 926 -232 678 -442 c 1,50,51
 466 -616 466 -616 224 -708 c 1,52,-1
 208 -676 l 1,53,54
 838 -304 838 -304 838 -22 c 0,55,56
 838 62 838 62 780 62 c 0,57,58
 718 62 718 62 612 -56 c 0,59,60
 440 -248 440 -248 408 -276 c 0,61,62
 274 -394 274 -394 146 -394 c 0,63,64
 54 -394 54 -394 -1 -342 c 128,-1,65
 -56 -290 -56 -290 -56 -216 c 0,66,67
 -56 -60 -56 -60 82 50 c 0,68,69
 116 76 116 76 270 156 c 0,70,71
 320 182 320 182 470 230 c 0,72,73
 604 272 604 272 660 310 c 0,74,75
 744 364 744 364 744 450 c 0,76,77
 744 500 744 500 709 530 c 128,-1,78
 674 560 674 560 632 560 c 0,79,80
 486 560 486 560 486 396 c 0,81,82
 486 344 486 344 498 278 c 1,83,-1
 478 270 l 1,84,85
 460 280 460 280 398 286 c 1,86,87
 416 326 416 326 416 386 c 0,88,89
 416 474 416 474 373 524 c 128,-1,90
 330 574 330 574 264 574 c 0,91,92
 118 574 118 574 90 448 c 1,93,94
 116 488 116 488 176 488 c 0,95,96
 276 488 276 488 276 338 c 0,97,98
 276 284 276 284 241 249 c 128,-1,99
 206 214 206 214 156 214 c 256,100,101
 106 214 106 214 68 261 c 128,-1,102
 30 308 30 308 30 390 c 0,103,104
 30 520 30 520 102 608 c 128,-1,105
 174 696 174 696 294 696 c 0,106,107
 396 696 396 696 456 584 c 1,108,109
 516 752 516 752 670 752 c 0,110,111
 764 752 764 752 824 682 c 0,112,113
 876 620 876 620 876 540 c 0,114,115
 876 218 876 218 412 74 c 0,116,117
 292 38 292 38 168 -52 c 0,118,119
 24 -154 24 -154 24 -230 c 0,120,121
 24 -304 24 -304 98 -304 c 0,122,123
 198 -304 198 -304 432 -34 c 0,124,125
 596 156 596 156 728 156 c 0,126,127
 820 156 820 156 876 88 c 0,128,129
 926 30 926 30 926 -48 c 0,48,49
0 320 m 1,130,-1
 -20 320 l 1,131,-1
 -20 342 l 1,132,-1
 -6 342 l 1,133,-1
 0 320 l 1,130,-1
416 -6 m 1,134,-1
 398 -28 l 1,135,-1
 242 -28 l 1,136,-1
 280 -6 l 1,137,-1
 416 -6 l 1,134,-1
254 168 m 1,138,-1
 210 146 l 1,139,-1
 -20 146 l 1,140,-1
 -20 168 l 1,141,-1
 254 168 l 1,138,-1
EndSplineSet
EndChar

StartChar: tm_nya
Encoding: 2974 2974 65
Width: 1320
GlyphClass: 2
Flags: W
LayerCount: 2
Fore
SplineSet
1340 668 m 1,0,-1
 1032 668 l 1,1,-1
 1076 690 l 1,2,-1
 1340 690 l 1,3,-1
 1340 668 l 1,0,-1
1340 494 m 1,4,-1
 1304 494 l 1,5,-1
 1294 516 l 1,6,-1
 1340 516 l 1,7,-1
 1340 494 l 1,4,-1
1340 320 m 1,8,-1
 1330 320 l 1,9,-1
 1330 342 l 1,10,-1
 1340 342 l 1,11,-1
 1340 320 l 1,8,-1
1340 146 m 1,12,-1
 1316 146 l 1,13,-1
 1320 168 l 1,14,-1
 1340 168 l 1,15,-1
 1340 146 l 1,12,-1
1150 320 m 1,16,-1
 978 320 l 1,17,-1
 988 342 l 1,18,-1
 1142 342 l 1,19,-1
 1150 320 l 1,16,-1
1340 -28 m 1,20,-1
 1260 -28 l 1,21,-1
 1270 -6 l 1,22,-1
 1340 -6 l 1,23,-1
 1340 -28 l 1,20,-1
804 516 m 1,24,-1
 802 494 l 1,25,-1
 656 494 l 1,26,-1
 700 516 l 1,27,-1
 804 516 l 1,24,-1
1160 168 m 1,28,-1
 1158 146 l 1,29,-1
 952 146 l 1,30,-1
 952 168 l 1,31,-1
 1160 168 l 1,28,-1
584 690 m 1,32,-1
 546 668 l 1,33,-1
 462 668 l 1,34,-1
 462 690 l 1,35,-1
 584 690 l 1,32,-1
798 342 m 1,36,-1
 796 320 l 1,37,-1
 670 320 l 1,38,-1
 636 342 l 1,39,-1
 798 342 l 1,36,-1
1104 -6 m 1,40,-1
 1090 -28 l 1,41,-1
 984 -28 l 1,42,-1
 976 -6 l 1,43,-1
 1104 -6 l 1,40,-1
1290 302 m 0,44,45
 1290 -28 1290 -28 1064 -246 c 0,46,47
 854 -448 854 -448 570 -448 c 0,48,49
 318 -448 318 -448 168 -266 c 0,50,51
 26 -98 26 -98 26 156 c 0,52,53
 26 370 26 370 134 536 c 0,54,55
 250 714 250 714 424 720 c 1,56,-1
 418 532 l 2,57,58
 414 420 414 420 342 420 c 0,59,60
 286 420 286 420 286 466 c 0,61,62
 286 516 286 516 332 514 c 0,63,64
 352 514 352 514 368 486 c 1,65,66
 372 554 372 554 320 554 c 0,67,68
 206 554 206 554 152 428 c 0,69,70
 108 330 108 330 108 176 c 0,71,72
 108 -22 108 -22 232 -146 c 0,73,74
 370 -280 370 -280 618 -280 c 0,75,76
 852 -280 852 -280 1022 -144 c 0,77,78
 1202 0 1202 0 1202 214 c 0,79,80
 1202 426 1202 426 1076 426 c 0,81,82
 912 426 912 426 912 144 c 0,83,84
 912 64 912 64 938 -14 c 1,85,-1
 932 -20 l 1,86,87
 892 28 892 28 802 56 c 1,88,89
 824 94 824 94 834 268 c 0,90,91
 840 434 840 434 846 602 c 1,92,93
 800 584 800 584 670 522 c 1,94,95
 550 460 550 460 512 420 c 0,96,97
 434 338 434 338 434 182 c 0,98,99
 434 52 434 52 492 12 c 1,100,101
 456 68 456 68 456 158 c 0,102,103
 456 332 456 332 588 332 c 0,104,105
 644 332 644 332 674 268 c 0,106,107
 698 216 698 216 698 144 c 0,108,109
 698 56 698 56 664 -4 c 0,110,111
 626 -72 626 -72 552 -72 c 0,112,113
 476 -72 476 -72 426 5 c 128,-1,114
 376 82 376 82 376 216 c 0,115,116
 376 336 376 336 420 458 c 0,117,118
 460 568 460 568 513 617 c 128,-1,119
 566 666 566 666 764 762 c 0,120,121
 924 840 924 840 1084 916 c 1,122,-1
 1080 994 l 1,123,-1
 1144 1020 l 1,124,-1
 1144 746 l 1,125,-1
 942 642 l 1,126,-1
 934 474 l 1,127,128
 994 606 994 606 1094 606 c 0,129,130
 1208 606 1208 606 1254 516 c 0,131,132
 1290 446 1290 446 1290 302 c 0,44,45
786 168 m 1,133,-1
 784 146 l 1,134,-1
 738 146 l 1,135,-1
 738 168 l 1,136,-1
 786 168 l 1,133,-1
260 690 m 1,137,-1
 224 668 l 1,138,-1
 -20 668 l 1,139,-1
 -20 690 l 1,140,-1
 260 690 l 1,137,-1
904 -28 m 1,141,-1
 688 -28 l 1,142,-1
 704 -6 l 1,143,-1
 876 -6 l 1,144,-1
 904 -28 l 1,141,-1
284 516 m 1,145,-1
 254 494 l 1,146,-1
 230 494 l 1,147,-1
 254 516 l 1,148,-1
 284 516 l 1,145,-1
348 342 m 1,149,-1
 344 320 l 1,150,-1
 160 320 l 1,151,-1
 164 342 l 1,152,-1
 348 342 l 1,149,-1
82 516 m 1,153,-1
 70 494 l 1,154,-1
 -20 494 l 1,155,-1
 -20 516 l 1,156,-1
 82 516 l 1,153,-1
340 146 m 1,157,-1
 148 146 l 1,158,-1
 148 168 l 1,159,-1
 338 168 l 1,160,-1
 340 146 l 1,157,-1
10 342 m 1,161,-1
 4 320 l 1,162,-1
 -20 320 l 1,163,-1
 -20 342 l 1,164,-1
 10 342 l 1,161,-1
412 -28 m 1,165,-1
 190 -28 l 1,166,-1
 182 -6 l 1,167,-1
 394 -6 l 1,168,-1
 412 -28 l 1,165,-1
-12 146 m 1,169,-1
 -20 146 l 1,170,-1
 -20 168 l 1,171,-1
 -14 168 l 1,172,-1
 -12 146 l 1,169,-1
8 -28 m 1,173,-1
 -20 -28 l 1,174,-1
 -20 -6 l 1,175,-1
 2 -6 l 1,176,-1
 8 -28 l 1,173,-1
EndSplineSet
EndChar

StartChar: tm_tta
Encoding: 2975 2975 66
Width: 934
GlyphClass: 2
Flags: W
LayerCount: 2
Fore
SplineSet
954 668 m 1,0,-1
 280 668 l 1,1,-1
 280 690 l 1,2,-1
 954 690 l 1,3,-1
 954 668 l 1,0,-1
954 494 m 1,4,-1
 272 494 l 1,5,-1
 272 516 l 1,6,-1
 954 516 l 1,7,-1
 954 494 l 1,4,-1
954 320 m 1,8,-1
 264 320 l 1,9,-1
 266 342 l 1,10,-1
 954 342 l 1,11,-1
 954 320 l 1,8,-1
954 -28 m 1,12,-1
 918 -28 l 1,13,-1
 928 -6 l 1,14,-1
 954 -6 l 1,15,-1
 954 -28 l 1,12,-1
904 68 m 0,16,17
 904 -30 904 -30 804 -114 c 128,-1,18
 704 -198 704 -198 598 -198 c 0,19,20
 500 -198 500 -198 406 -127 c 128,-1,21
 312 -56 312 -56 264 -56 c 0,22,23
 230 -56 230 -56 193 -86 c 128,-1,24
 156 -116 156 -116 146 -116 c 0,25,26
 102 -116 102 -116 102 -64 c 0,27,28
 102 -6 102 -6 144 32 c 1,29,-1
 154 502 l 1,30,-1
 92 458 l 1,31,-1
 92 400 l 1,32,-1
 30 356 l 1,33,-1
 34 656 l 1,34,-1
 244 808 l 1,35,-1
 216 72 l 1,36,37
 256 90 256 90 290 90 c 0,38,39
 348 90 348 90 457 22 c 128,-1,40
 566 -46 566 -46 662 -46 c 0,41,42
 738 -46 738 -46 790 -22 c 0,43,44
 856 6 856 6 856 64 c 0,45,46
 856 104 856 104 828 104 c 0,47,48
 812 104 812 104 804 98 c 1,49,50
 816 90 816 90 816 62 c 0,51,52
 816 48 816 48 802 32 c 128,-1,53
 788 16 788 16 770 16 c 0,54,55
 726 16 726 16 726 62 c 0,56,57
 726 98 726 98 754 122 c 128,-1,58
 782 146 782 146 818 146 c 0,59,60
 904 146 904 146 904 68 c 0,16,17
954 146 m 1,61,-1
 258 146 l 1,62,-1
 258 168 l 1,63,-1
 954 168 l 1,64,-1
 954 146 l 1,61,-1
42 690 m 1,65,-1
 12 668 l 1,66,-1
 -20 668 l 1,67,-1
 -20 690 l 1,68,-1
 42 690 l 1,65,-1
782 -6 m 1,69,-1
 736 -28 l 1,70,-1
 594 -28 l 1,71,-1
 544 -6 l 1,72,-1
 782 -6 l 1,69,-1
-8 494 m 1,73,-1
 -20 494 l 1,74,-1
 -20 516 l 1,75,-1
 -8 516 l 1,76,-1
 -8 494 l 1,73,-1
110 320 m 1,77,-1
 -20 320 l 1,78,-1
 -20 342 l 1,79,-1
 110 342 l 1,80,-1
 110 320 l 1,77,-1
108 168 m 1,81,-1
 106 146 l 1,82,-1
 -20 146 l 1,83,-1
 -20 168 l 1,84,-1
 108 168 l 1,81,-1
76 -6 m 1,85,-1
 68 -28 l 1,86,-1
 -20 -28 l 1,87,-1
 -20 -6 l 1,88,-1
 76 -6 l 1,85,-1
EndSplineSet
EndChar

StartChar: tm_nna
Encoding: 2979 2979 67
Width: 1492
GlyphClass: 2
Flags: W
LayerCount: 2
Fore
SplineSet
1512 494 m 1,0,-1
 1338 494 l 1,1,-1
 1338 516 l 1,2,-1
 1512 516 l 1,3,-1
 1512 494 l 1,0,-1
1512 320 m 1,4,-1
 1334 320 l 1,5,-1
 1336 342 l 1,6,-1
 1512 342 l 1,7,-1
 1512 320 l 1,4,-1
1190 494 m 1,8,-1
 1096 494 l 1,9,-1
 1092 516 l 1,10,-1
 1190 516 l 1,11,-1
 1190 494 l 1,8,-1
1512 146 m 1,12,-1
 1334 146 l 1,13,-1
 1334 168 l 1,14,-1
 1512 168 l 1,15,-1
 1512 146 l 1,12,-1
1190 320 m 1,16,-1
 1108 320 l 1,17,-1
 1110 342 l 1,18,-1
 1190 342 l 1,19,-1
 1190 320 l 1,16,-1
1512 -28 m 1,20,-1
 1332 -28 l 1,21,-1
 1332 -6 l 1,22,-1
 1512 -6 l 1,23,-1
 1512 -28 l 1,20,-1
1192 146 m 1,24,-1
 1068 146 l 1,25,-1
 1076 168 l 1,26,-1
 1192 168 l 1,27,-1
 1192 146 l 1,24,-1
1578 846 m 1,28,29
 1578 818 1578 818 1546 750 c 0,30,31
 1508 670 1508 670 1470 646 c 0,32,33
 1422 616 1422 616 1298 616 c 1,34,-1
 1292 -58 l 2,35,36
 1290 -190 1290 -190 1152 -190 c 0,37,38
 1102 -190 1102 -190 1067 -153 c 128,-1,39
 1032 -116 1032 -116 1032 -64 c 0,40,41
 1032 -20 1032 -20 1062 18 c 128,-1,42
 1092 56 1092 56 1136 56 c 0,43,44
 1214 56 1214 56 1214 -28 c 0,45,46
 1214 -102 1214 -102 1178 -124 c 1,47,48
 1232 -120 1232 -120 1232 -40 c 2,49,-1
 1228 620 l 1,50,51
 1054 620 1054 620 1024 602 c 1,52,53
 1068 492 1068 492 1068 342 c 0,54,55
 1068 210 1068 210 1010 112 c 0,56,57
 946 8 946 8 850 8 c 0,58,59
 792 8 792 8 745 54 c 128,-1,60
 698 100 698 100 686 174 c 1,61,62
 666 94 666 94 604 44 c 0,63,64
 552 0 552 0 504 0 c 0,65,66
 436 0 436 0 383 47 c 128,-1,67
 330 94 330 94 322 166 c 1,68,69
 290 78 290 78 208 78 c 256,70,71
 126 78 126 78 76 147 c 128,-1,72
 26 216 26 216 26 340 c 0,73,74
 26 502 26 502 112 612 c 0,75,76
 208 732 208 732 372 732 c 0,77,78
 450 732 450 732 540 702 c 1,79,80
 644 758 644 758 754 758 c 0,81,82
 838 758 838 758 922 722 c 1,83,84
 1012 764 1012 764 1336 776 c 0,85,86
 1436 780 1436 780 1476 788 c 0,87,88
 1544 804 1544 804 1570 846 c 1,89,-1
 1578 846 l 1,28,29
164 690 m 1,90,-1
 132 668 l 1,91,-1
 -20 668 l 1,92,-1
 -20 690 l 1,93,-1
 164 690 l 1,90,-1
18 516 m 1,94,-1
 10 494 l 1,95,-1
 -20 494 l 1,96,-1
 -20 516 l 1,97,-1
 18 516 l 1,94,-1
1004 -6 m 1,98,-1
 998 -28 l 1,99,-1
 -20 -28 l 1,100,-1
 -20 -6 l 1,101,-1
 1004 -6 l 1,98,-1
36 146 m 1,102,-1
 -20 146 l 1,103,-1
 -20 168 l 1,104,-1
 22 168 l 1,105,-1
 36 146 l 1,102,-1
980 322 m 0,106,107
 980 400 980 400 936 475 c 128,-1,108
 892 550 892 550 840 568 c 1,109,110
 770 496 770 496 770 360 c 0,111,112
 770 290 770 290 808 239 c 128,-1,113
 846 188 846 188 896 188 c 0,114,115
 980 188 980 188 980 322 c 0,106,107
776 594 m 1,116,117
 728 612 728 612 634 602 c 1,118,119
 692 516 692 516 696 420 c 1,120,121
 700 456 700 456 727 515 c 128,-1,122
 754 574 754 574 776 594 c 1,116,117
618 320 m 0,123,124
 618 392 618 392 572 454 c 128,-1,125
 526 516 526 516 454 544 c 1,126,127
 392 456 392 456 392 322 c 0,128,129
 392 260 392 260 424 212 c 128,-1,130
 456 164 456 164 510 164 c 0,131,132
 618 164 618 164 618 320 c 0,123,124
406 562 m 1,133,134
 368 570 368 570 332 570 c 0,135,136
 214 570 214 570 150 494 c 128,-1,137
 86 418 86 418 86 300 c 0,138,139
 86 218 86 218 128 176 c 1,140,141
 106 220 106 220 106 280 c 0,142,143
 106 398 106 398 210 398 c 0,144,145
 262 398 262 398 284 376 c 0,146,147
 300 360 300 360 318 300 c 1,148,149
 328 480 328 480 406 562 c 1,133,134
884 494 m 1,150,-1
 832 494 l 1,151,-1
 844 516 l 1,152,-1
 868 516 l 1,153,-1
 884 494 l 1,150,-1
940 320 m 1,154,-1
 814 320 l 1,155,-1
 812 342 l 1,156,-1
 938 342 l 1,157,-1
 940 320 l 1,154,-1
578 320 m 1,158,-1
 432 320 l 1,159,-1
 434 342 l 1,160,-1
 576 342 l 1,161,-1
 578 320 l 1,158,-1
334 516 m 1,162,-1
 322 494 l 1,163,-1
 190 494 l 1,164,-1
 216 516 l 1,165,-1
 334 516 l 1,162,-1
EndSplineSet
EndChar

StartChar: tm_ta
Encoding: 2980 2980 68
Width: 872
GlyphClass: 2
Flags: W
LayerCount: 2
Fore
SplineSet
892 668 m 1,0,-1
 670 668 l 1,1,-1
 710 690 l 1,2,-1
 892 690 l 1,3,-1
 892 668 l 1,0,-1
892 494 m 1,4,-1
 796 494 l 1,5,-1
 730 516 l 1,6,-1
 892 516 l 1,7,-1
 892 494 l 1,4,-1
892 320 m 1,8,-1
 880 320 l 1,9,-1
 878 342 l 1,10,-1
 892 342 l 1,11,-1
 892 320 l 1,8,-1
892 146 m 1,12,-1
 868 146 l 1,13,-1
 874 168 l 1,14,-1
 892 168 l 1,15,-1
 892 146 l 1,12,-1
748 320 m 1,16,-1
 562 320 l 1,17,-1
 590 342 l 1,18,-1
 740 342 l 1,19,-1
 748 320 l 1,16,-1
892 -28 m 1,20,-1
 798 -28 l 1,21,-1
 812 -6 l 1,22,-1
 892 -6 l 1,23,-1
 892 -28 l 1,20,-1
260 690 m 1,24,-1
 232 668 l 1,25,-1
 -20 668 l 1,26,-1
 -20 690 l 1,27,-1
 260 690 l 1,24,-1
734 168 m 1,28,-1
 726 146 l 1,29,-1
 540 146 l 1,30,-1
 544 168 l 1,31,-1
 734 168 l 1,28,-1
226 494 m 1,32,-1
 -20 494 l 1,33,-1
 -20 516 l 1,34,-1
 226 516 l 1,35,-1
 226 494 l 1,32,-1
630 -6 m 1,36,-1
 606 -28 l 1,37,-1
 480 -28 l 1,38,-1
 492 -6 l 1,39,-1
 630 -6 l 1,36,-1
220 342 m 1,40,-1
 182 320 l 1,41,-1
 -20 320 l 1,42,-1
 -20 342 l 1,43,-1
 220 342 l 1,40,-1
842 272 m 0,44,45
 842 34 842 34 666 -150 c 0,46,47
 538 -282 538 -282 274 -416 c 1,48,49
 50 -520 50 -520 -176 -626 c 0,50,51
 -382 -726 -382 -726 -382 -796 c 0,52,53
 -382 -838 -382 -838 -342 -838 c 1,54,55
 -350 -826 -350 -826 -350 -798 c 0,56,57
 -350 -740 -350 -740 -298 -740 c 0,58,59
 -244 -740 -244 -740 -244 -806 c 0,60,61
 -244 -888 -244 -888 -334 -888 c 0,62,63
 -382 -888 -382 -888 -414 -861 c 128,-1,64
 -446 -834 -446 -834 -446 -790 c 0,65,66
 -446 -676 -446 -676 -344 -584 c 0,67,68
 -268 -514 -268 -514 -94 -430 c 0,69,70
 20 -374 20 -374 254 -264 c 0,71,72
 510 -148 510 -148 626 -46 c 0,73,74
 790 96 790 96 790 282 c 0,75,76
 790 388 790 388 712 388 c 256,77,78
 634 388 634 388 524 328 c 1,79,80
 506 82 506 82 424 -58 c 0,81,82
 338 -206 338 -206 192 -206 c 0,83,84
 116 -206 116 -206 62 -152 c 128,-1,85
 8 -98 8 -98 8 -12 c 0,86,87
 8 224 8 224 260 338 c 1,88,-1
 272 674 l 1,89,-1
 672 902 l 1,90,-1
 674 982 l 1,91,-1
 740 1020 l 1,92,-1
 728 722 l 1,93,-1
 560 630 l 1,94,-1
 542 474 l 1,95,96
 622 514 622 514 674 514 c 0,97,98
 842 514 842 514 842 272 c 0,44,45
16 168 m 1,99,-1
 4 146 l 1,100,-1
 -20 146 l 1,101,-1
 -20 168 l 1,102,-1
 16 168 l 1,99,-1
486 592 m 1,103,-1
 330 504 l 1,104,-1
 322 370 l 1,105,106
 336 380 336 380 470 444 c 1,107,-1
 486 592 l 1,103,-1
456 300 m 1,108,109
 402 276 402 276 220 176 c 0,110,111
 76 98 76 98 76 32 c 0,112,113
 76 -28 76 -28 152 -28 c 0,114,115
 320 -28 320 -28 398 110 c 0,116,117
 438 180 438 180 456 300 c 1,108,109
438 516 m 1,118,-1
 436 494 l 1,119,-1
 368 494 l 1,120,-1
 394 516 l 1,121,-1
 438 516 l 1,118,-1
384 168 m 1,122,-1
 376 146 l 1,123,-1
 208 146 l 1,124,-1
 246 168 l 1,125,-1
 384 168 l 1,122,-1
EndSplineSet
EndChar

StartChar: tm_na
Encoding: 2984 2984 69
Width: 966
GlyphClass: 2
Flags: W
LayerCount: 2
Fore
SplineSet
986 668 m 1,0,-1
 660 668 l 1,1,-1
 700 690 l 1,2,-1
 986 690 l 1,3,-1
 986 668 l 1,0,-1
986 494 m 1,4,-1
 938 494 l 1,5,-1
 926 516 l 1,6,-1
 986 516 l 1,7,-1
 986 494 l 1,4,-1
986 320 m 1,8,-1
 976 320 l 1,9,-1
 976 342 l 1,10,-1
 986 342 l 1,11,-1
 986 320 l 1,8,-1
986 146 m 1,12,-1
 952 146 l 1,13,-1
 958 168 l 1,14,-1
 986 168 l 1,15,-1
 986 146 l 1,12,-1
810 320 m 1,16,-1
 614 320 l 1,17,-1
 622 342 l 1,18,-1
 806 342 l 1,19,-1
 810 320 l 1,16,-1
986 -28 m 1,20,-1
 854 -28 l 1,21,-1
 872 -6 l 1,22,-1
 986 -6 l 1,23,-1
 986 -28 l 1,20,-1
434 516 m 1,24,-1
 432 494 l 1,25,-1
 316 494 l 1,26,-1
 358 516 l 1,27,-1
 434 516 l 1,24,-1
790 168 m 1,28,-1
 778 146 l 1,29,-1
 602 146 l 1,30,-1
 600 168 l 1,31,-1
 790 168 l 1,28,-1
210 690 m 1,32,-1
 168 668 l 1,33,-1
 -20 668 l 1,34,-1
 -20 690 l 1,35,-1
 210 690 l 1,32,-1
426 342 m 1,36,-1
 424 320 l 1,37,-1
 258 320 l 1,38,-1
 260 342 l 1,39,-1
 426 342 l 1,36,-1
112 516 m 1,40,-1
 110 494 l 1,41,-1
 -20 494 l 1,42,-1
 -20 516 l 1,43,-1
 112 516 l 1,40,-1
634 -6 m 1,44,-1
 602 -28 l 1,45,-1
 498 -28 l 1,46,-1
 526 -6 l 1,47,-1
 634 -6 l 1,44,-1
420 168 m 1,48,-1
 418 146 l 1,49,-1
 254 146 l 1,50,-1
 254 168 l 1,51,-1
 420 168 l 1,48,-1
936 310 m 0,52,53
 936 74 936 74 748 -100 c 0,54,55
 616 -222 616 -222 338 -352 c 1,56,57
 116 -450 116 -450 -104 -548 c 1,58,59
 -308 -648 -308 -648 -308 -732 c 0,60,61
 -308 -746 -308 -746 -293 -761 c 128,-1,62
 -278 -776 -278 -776 -260 -770 c 1,63,64
 -286 -760 -286 -760 -286 -734 c 0,65,66
 -286 -712 -286 -712 -264 -689 c 128,-1,67
 -242 -666 -242 -666 -214 -666 c 0,68,69
 -158 -666 -158 -666 -158 -716 c 0,70,71
 -158 -826 -158 -826 -284 -826 c 0,72,73
 -384 -826 -384 -826 -384 -726 c 0,74,75
 -384 -540 -384 -540 -64 -370 c 1,76,77
 234 -232 234 -232 534 -92 c 1,78,79
 854 80 854 80 854 278 c 0,80,81
 854 428 854 428 726 428 c 0,82,83
 558 428 558 428 558 198 c 0,84,85
 558 112 558 112 596 30 c 1,86,87
 516 40 516 40 436 -52 c 1,88,-1
 428 -44 l 1,89,90
 452 4 452 4 454 52 c 2,91,-1
 476 598 l 1,92,-1
 222 466 l 1,93,-1
 210 -40 l 2,94,95
 208 -92 208 -92 162 -126 c 128,-1,96
 116 -160 116 -160 58 -160 c 0,97,98
 -56 -160 -56 -160 -56 -34 c 0,99,100
 -56 8 -56 8 -31 40 c 128,-1,101
 -6 72 -6 72 32 72 c 0,102,103
 116 72 116 72 116 -10 c 0,104,105
 116 -64 116 -64 44 -92 c 1,106,107
 62 -98 62 -98 78 -98 c 0,108,109
 138 -98 138 -98 140 -12 c 2,110,-1
 154 640 l 1,111,-1
 738 948 l 1,112,-1
 746 1024 l 1,113,-1
 806 1050 l 1,114,-1
 794 758 l 1,115,-1
 568 642 l 1,116,-1
 562 490 l 1,117,118
 630 588 630 588 734 588 c 0,119,120
 936 588 936 588 936 310 c 0,52,53
108 342 m 1,121,-1
 106 320 l 1,122,-1
 -20 320 l 1,123,-1
 -20 342 l 1,124,-1
 108 342 l 1,121,-1
402 -6 m 1,125,-1
 396 -28 l 1,126,-1
 250 -28 l 1,127,-1
 252 -6 l 1,128,-1
 402 -6 l 1,125,-1
104 146 m 1,129,-1
 -20 146 l 1,130,-1
 -20 168 l 1,131,-1
 104 168 l 1,132,-1
 104 146 l 1,129,-1
EndSplineSet
EndChar

StartChar: tm_nnna
Encoding: 2985 2985 70
Width: 1176
GlyphClass: 2
Flags: W
LayerCount: 2
Fore
SplineSet
1196 494 m 1,0,-1
 992 494 l 1,1,-1
 992 516 l 1,2,-1
 1196 516 l 1,3,-1
 1196 494 l 1,0,-1
1196 320 m 1,4,-1
 992 320 l 1,5,-1
 992 342 l 1,6,-1
 1196 342 l 1,7,-1
 1196 320 l 1,4,-1
842 494 m 1,8,-1
 732 494 l 1,9,-1
 726 516 l 1,10,-1
 842 516 l 1,11,-1
 842 494 l 1,8,-1
1196 146 m 1,12,-1
 992 146 l 1,13,-1
 992 168 l 1,14,-1
 1196 168 l 1,15,-1
 1196 146 l 1,12,-1
842 320 m 1,16,-1
 756 320 l 1,17,-1
 756 342 l 1,18,-1
 840 342 l 1,19,-1
 842 320 l 1,16,-1
1196 -28 m 1,20,-1
 990 -28 l 1,21,-1
 990 -6 l 1,22,-1
 1196 -6 l 1,23,-1
 1196 -28 l 1,20,-1
840 146 m 1,24,-1
 734 146 l 1,25,-1
 738 168 l 1,26,-1
 840 168 l 1,27,-1
 840 146 l 1,24,-1
1232 760 m 1,28,-1
 1162 634 l 2,29,30
 1126 568 1126 568 1054 568 c 2,31,-1
 952 568 l 1,32,-1
 950 -104 l 2,33,34
 950 -244 950 -244 830 -244 c 0,35,36
 692 -244 692 -244 692 -108 c 0,37,38
 692 -8 692 -8 786 -8 c 0,39,40
 854 -8 854 -8 854 -84 c 0,41,42
 854 -154 854 -154 790 -162 c 1,43,44
 794 -174 794 -174 832 -174 c 0,45,46
 880 -174 880 -174 880 -108 c 2,47,-1
 882 564 l 1,48,49
 818 568 818 568 676 550 c 1,50,51
 716 438 716 438 716 322 c 0,52,53
 716 136 716 136 640 50 c 0,54,55
 586 -14 586 -14 512 -14 c 0,56,57
 452 -14 452 -14 402 26 c 0,58,59
 340 72 340 72 316 160 c 1,60,61
 272 82 272 82 202 82 c 0,62,63
 128 82 128 82 82 146 c 0,64,65
 28 222 28 222 28 364 c 0,66,67
 28 500 28 500 104 602 c 0,68,69
 198 732 198 732 378 732 c 0,70,71
 494 732 494 732 562 686 c 1,72,73
 674 726 674 726 888 724 c 0,74,75
 1224 722 1224 722 1058 720 c 1,76,77
 1138 720 1138 720 1174 742 c 2,78,-1
 1224 772 l 1,79,-1
 1232 760 l 1,28,-1
164 690 m 1,80,-1
 130 668 l 1,81,-1
 -20 668 l 1,82,-1
 -20 690 l 1,83,-1
 164 690 l 1,80,-1
16 516 m 1,84,-1
 10 494 l 1,85,-1
 -20 494 l 1,86,-1
 -20 516 l 1,87,-1
 16 516 l 1,84,-1
746 -6 m 1,88,-1
 684 -28 l 1,89,-1
 -20 -28 l 1,90,-1
 -20 -6 l 1,91,-1
 746 -6 l 1,88,-1
-10 320 m 1,92,-1
 -20 320 l 1,93,-1
 -20 342 l 1,94,-1
 -12 342 l 1,95,-1
 -10 320 l 1,92,-1
42 146 m 1,96,-1
 -20 146 l 1,97,-1
 -20 168 l 1,98,-1
 28 168 l 1,99,-1
 42 146 l 1,96,-1
634 310 m 0,100,101
 634 370 634 370 588 441 c 128,-1,102
 542 512 542 512 474 538 c 1,103,104
 414 440 414 440 414 344 c 0,105,106
 414 158 414 158 534 158 c 0,107,108
 592 158 592 158 613 191 c 128,-1,109
 634 224 634 224 634 310 c 0,100,101
412 550 m 1,110,111
 376 562 376 562 336 562 c 0,112,113
 236 562 236 562 168 496 c 0,114,115
 90 422 90 422 90 292 c 0,116,117
 90 196 90 196 128 194 c 1,118,119
 110 228 110 228 110 282 c 0,120,121
 110 338 110 338 137 371 c 128,-1,122
 164 404 164 404 206 404 c 0,123,124
 290 404 290 404 320 314 c 1,125,126
 344 468 344 468 412 550 c 1,110,111
594 320 m 1,127,-1
 454 320 l 1,128,-1
 454 342 l 1,129,-1
 590 342 l 1,130,-1
 594 320 l 1,127,-1
348 516 m 1,131,-1
 336 494 l 1,132,-1
 204 494 l 1,133,-1
 232 516 l 1,134,-1
 348 516 l 1,131,-1
EndSplineSet
EndChar

StartChar: tm_pa
Encoding: 2986 2986 71
Width: 730
GlyphClass: 2
Flags: W
LayerCount: 2
Fore
SplineSet
750 668 m 1,0,-1
 714 668 l 1,1,-1
 714 690 l 1,2,-1
 750 690 l 1,3,-1
 750 668 l 1,0,-1
750 494 m 1,4,-1
 706 494 l 1,5,-1
 706 516 l 1,6,-1
 750 516 l 1,7,-1
 750 494 l 1,4,-1
750 320 m 1,8,-1
 696 320 l 1,9,-1
 698 342 l 1,10,-1
 750 342 l 1,11,-1
 750 320 l 1,8,-1
550 494 m 1,12,-1
 248 494 l 1,13,-1
 248 516 l 1,14,-1
 550 516 l 1,15,-1
 550 494 l 1,12,-1
436 668 m 1,16,-1
 -20 668 l 1,17,-1
 -20 690 l 1,18,-1
 436 690 l 1,19,-1
 436 668 l 1,16,-1
750 146 m 1,20,-1
 688 146 l 1,21,-1
 690 168 l 1,22,-1
 750 168 l 1,23,-1
 750 146 l 1,20,-1
688 1010 m 1,24,-1
 646 86 l 2,25,26
 638 -72 638 -72 498 -72 c 0,27,28
 422 -72 422 -72 340 -19 c 128,-1,29
 258 34 258 34 208 34 c 256,30,31
 158 34 158 34 114 -48 c 1,32,-1
 104 -48 l 1,33,-1
 124 408 l 1,34,-1
 72 384 l 1,35,-1
 72 320 l 1,36,-1
 14 292 l 1,37,-1
 26 570 l 1,38,-1
 218 666 l 1,39,-1
 190 182 l 1,40,41
 216 196 216 196 256 196 c 0,42,43
 302 196 302 196 370 154 c 128,-1,44
 438 112 438 112 480 112 c 0,45,46
 580 112 580 112 584 268 c 2,47,-1
 596 718 l 1,48,-1
 542 682 l 1,49,-1
 542 578 l 1,50,-1
 474 560 l 1,51,-1
 480 874 l 1,52,-1
 688 1010 l 1,24,-1
546 320 m 1,53,-1
 238 320 l 1,54,-1
 240 342 l 1,55,-1
 546 342 l 1,56,-1
 546 320 l 1,53,-1
750 -28 m 1,57,-1
 650 -28 l 1,58,-1
 664 -6 l 1,59,-1
 750 -6 l 1,60,-1
 750 -28 l 1,57,-1
528 168 m 1,61,-1
 516 146 l 1,62,-1
 420 146 l 1,63,-1
 386 168 l 1,64,-1
 528 168 l 1,61,-1
314 -28 m 1,65,-1
 164 -28 l 1,66,-1
 180 -6 l 1,67,-1
 280 -6 l 1,68,-1
 314 -28 l 1,65,-1
74 168 m 1,69,-1
 72 146 l 1,70,-1
 -20 146 l 1,71,-1
 -20 168 l 1,72,-1
 74 168 l 1,69,-1
66 -28 m 1,73,-1
 -20 -28 l 1,74,-1
 -20 -6 l 1,75,-1
 66 -6 l 1,76,-1
 66 -28 l 1,73,-1
EndSplineSet
EndChar

StartChar: tm_ma
Encoding: 2990 2990 72
Width: 946
GlyphClass: 2
Flags: W
LayerCount: 2
Fore
SplineSet
966 668 m 1,0,-1
 944 668 l 1,1,-1
 944 690 l 1,2,-1
 966 690 l 1,3,-1
 966 668 l 1,0,-1
966 494 m 1,4,-1
 938 494 l 1,5,-1
 938 516 l 1,6,-1
 966 516 l 1,7,-1
 966 494 l 1,4,-1
966 320 m 1,8,-1
 932 320 l 1,9,-1
 932 342 l 1,10,-1
 966 342 l 1,11,-1
 966 320 l 1,8,-1
784 516 m 1,12,-1
 782 494 l 1,13,-1
 672 494 l 1,14,-1
 708 516 l 1,15,-1
 784 516 l 1,12,-1
966 146 m 1,16,-1
 926 146 l 1,17,-1
 926 168 l 1,18,-1
 966 168 l 1,19,-1
 966 146 l 1,16,-1
542 690 m 1,20,-1
 510 668 l 1,21,-1
 260 668 l 1,22,-1
 260 690 l 1,23,-1
 542 690 l 1,20,-1
778 342 m 1,24,-1
 776 320 l 1,25,-1
 560 320 l 1,26,-1
 562 342 l 1,27,-1
 778 342 l 1,24,-1
966 -28 m 1,28,-1
 910 -28 l 1,29,-1
 916 -6 l 1,30,-1
 966 -6 l 1,31,-1
 966 -28 l 1,28,-1
912 900 m 1,32,-1
 882 36 l 2,33,34
 880 -40 880 -40 828 -96 c 128,-1,35
 776 -152 776 -152 700 -152 c 0,36,37
 602 -152 602 -152 504 -78 c 0,38,39
 492 -68 492 -68 358 58 c 0,40,41
 280 132 280 132 228 132 c 0,42,43
 170 132 170 132 146 76 c 1,44,-1
 124 76 l 1,45,-1
 146 504 l 1,46,-1
 96 478 l 1,47,-1
 96 410 l 1,48,-1
 28 366 l 1,49,-1
 38 654 l 1,50,-1
 222 774 l 1,51,-1
 212 266 l 1,52,53
 238 288 238 288 282 288 c 0,54,55
 360 288 360 288 432 220 c 1,56,57
 490 156 490 156 550 90 c 1,58,59
 626 22 626 22 708 22 c 0,60,61
 782 22 782 22 808 94 c 1,62,-1
 828 620 l 1,63,-1
 524 424 l 1,64,-1
 516 196 l 1,65,-1
 446 248 l 1,66,-1
 458 610 l 1,67,-1
 912 900 l 1,32,-1
416 516 m 1,68,-1
 414 494 l 1,69,-1
 258 494 l 1,70,-1
 258 516 l 1,71,-1
 416 516 l 1,68,-1
770 146 m 1,72,-1
 538 146 l 1,73,-1
 520 168 l 1,74,-1
 770 168 l 1,75,-1
 770 146 l 1,72,-1
52 690 m 1,76,-1
 20 668 l 1,77,-1
 -20 668 l 1,78,-1
 -20 690 l 1,79,-1
 52 690 l 1,76,-1
408 320 m 1,80,-1
 252 320 l 1,81,-1
 252 342 l 1,82,-1
 408 342 l 1,83,-1
 408 320 l 1,80,-1
-6 516 m 1,84,-1
 -8 494 l 1,85,-1
 -20 494 l 1,86,-1
 -20 516 l 1,87,-1
 -6 516 l 1,84,-1
98 342 m 1,88,-1
 96 320 l 1,89,-1
 -20 320 l 1,90,-1
 -20 342 l 1,91,-1
 98 342 l 1,88,-1
88 146 m 1,92,-1
 -20 146 l 1,93,-1
 -20 168 l 1,94,-1
 88 168 l 1,95,-1
 88 146 l 1,92,-1
406 -28 m 1,96,-1
 -20 -28 l 1,97,-1
 -20 -6 l 1,98,-1
 382 -6 l 1,99,-1
 406 -28 l 1,96,-1
EndSplineSet
EndChar

StartChar: tm_ya
Encoding: 2991 2991 73
Width: 1072
GlyphClass: 2
Flags: W
LayerCount: 2
Fore
SplineSet
1092 668 m 1,0,-1
 1074 668 l 1,1,-1
 1074 690 l 1,2,-1
 1092 690 l 1,3,-1
 1092 668 l 1,0,-1
1092 494 m 1,4,-1
 1064 494 l 1,5,-1
 1066 516 l 1,6,-1
 1092 516 l 1,7,-1
 1092 494 l 1,4,-1
1092 320 m 1,8,-1
 1054 320 l 1,9,-1
 1054 342 l 1,10,-1
 1092 342 l 1,11,-1
 1092 320 l 1,8,-1
798 690 m 1,12,-1
 796 668 l 1,13,-1
 594 668 l 1,14,-1
 596 690 l 1,15,-1
 798 690 l 1,12,-1
910 494 m 1,16,-1
 586 494 l 1,17,-1
 588 516 l 1,18,-1
 910 516 l 1,19,-1
 910 494 l 1,16,-1
1092 146 m 1,20,-1
 1044 146 l 1,21,-1
 1046 168 l 1,22,-1
 1092 168 l 1,23,-1
 1092 146 l 1,20,-1
516 690 m 1,24,-1
 490 668 l 1,25,-1
 276 668 l 1,26,-1
 276 690 l 1,27,-1
 516 690 l 1,24,-1
902 320 m 1,28,-1
 580 320 l 1,29,-1
 580 342 l 1,30,-1
 902 342 l 1,31,-1
 902 320 l 1,28,-1
1092 -28 m 1,32,-1
 1000 -28 l 1,33,-1
 1014 -6 l 1,34,-1
 1092 -6 l 1,35,-1
 1092 -28 l 1,32,-1
1050 978 m 1,36,-1
 1000 64 l 2,37,38
 998 16 998 16 958 -30 c 0,39,40
 910 -84 910 -84 840 -84 c 0,41,42
 772 -84 772 -84 686 -20 c 128,-1,43
 600 44 600 44 564 44 c 0,44,45
 490 44 490 44 468 -14 c 1,46,-1
 452 -14 l 1,47,-1
 458 94 l 1,48,49
 442 48 442 48 379 -2 c 128,-1,50
 316 -52 316 -52 276 -52 c 0,51,52
 222 -52 222 -52 179 -12 c 128,-1,53
 136 28 136 28 138 76 c 2,54,-1
 154 522 l 1,55,-1
 90 488 l 1,56,-1
 90 432 l 1,57,-1
 20 392 l 1,58,-1
 30 670 l 1,59,-1
 242 800 l 1,60,-1
 214 200 l 2,61,62
 212 164 212 164 251 132 c 128,-1,63
 290 100 290 100 332 100 c 0,64,65
 418 100 418 100 460 168 c 1,66,-1
 468 406 l 1,67,-1
 422 378 l 1,68,-1
 418 314 l 1,69,-1
 354 290 l 1,70,-1
 358 556 l 1,71,-1
 556 686 l 1,72,-1
 534 170 l 1,73,74
 560 190 560 190 602 190 c 256,75,76
 644 190 644 190 722 146 c 128,-1,77
 800 102 800 102 840 102 c 0,78,79
 920 102 920 102 934 172 c 1,80,-1
 960 682 l 1,81,-1
 904 644 l 1,82,-1
 904 572 l 1,83,-1
 830 538 l 1,84,-1
 846 844 l 1,85,-1
 1050 978 l 1,36,-1
894 168 m 1,86,-1
 886 146 l 1,87,-1
 760 146 l 1,88,-1
 720 168 l 1,89,-1
 894 168 l 1,86,-1
316 494 m 1,90,-1
 268 494 l 1,91,-1
 268 516 l 1,92,-1
 316 516 l 1,93,-1
 316 494 l 1,90,-1
22 690 m 1,94,-1
 -10 668 l 1,95,-1
 -20 668 l 1,96,-1
 -20 690 l 1,97,-1
 22 690 l 1,94,-1
316 342 m 1,98,-1
 314 320 l 1,99,-1
 260 320 l 1,100,-1
 260 342 l 1,101,-1
 316 342 l 1,98,-1
658 -28 m 1,102,-1
 498 -28 l 1,103,-1
 512 -6 l 1,104,-1
 626 -6 l 1,105,-1
 658 -28 l 1,102,-1
420 168 m 1,106,-1
 402 146 l 1,107,-1
 276 146 l 1,108,-1
 262 168 l 1,109,-1
 420 168 l 1,106,-1
-16 494 m 1,110,-1
 -20 494 l 1,111,-1
 -20 516 l 1,112,-1
 -16 516 l 1,113,-1
 -16 494 l 1,110,-1
108 342 m 1,114,-1
 106 320 l 1,115,-1
 -20 320 l 1,116,-1
 -20 342 l 1,117,-1
 108 342 l 1,114,-1
102 146 m 1,118,-1
 -20 146 l 1,119,-1
 -20 168 l 1,120,-1
 100 168 l 1,121,-1
 102 146 l 1,118,-1
160 -28 m 1,122,-1
 -20 -28 l 1,123,-1
 -20 -6 l 1,124,-1
 136 -6 l 1,125,-1
 160 -28 l 1,122,-1
EndSplineSet
EndChar

StartChar: tm_ra
Encoding: 2992 2992 74
Width: 672
GlyphClass: 2
Flags: W
LayerCount: 2
Fore
SplineSet
692 668 m 1,0,-1
 672 668 l 1,1,-1
 672 690 l 1,2,-1
 692 690 l 1,3,-1
 692 668 l 1,0,-1
692 494 m 1,4,-1
 670 494 l 1,5,-1
 670 516 l 1,6,-1
 692 516 l 1,7,-1
 692 494 l 1,4,-1
692 320 m 1,8,-1
 664 320 l 1,9,-1
 666 342 l 1,10,-1
 692 342 l 1,11,-1
 692 320 l 1,8,-1
516 494 m 1,12,-1
 302 494 l 1,13,-1
 302 516 l 1,14,-1
 516 516 l 1,15,-1
 516 494 l 1,12,-1
692 146 m 1,16,-1
 642 146 l 1,17,-1
 646 168 l 1,18,-1
 692 168 l 1,19,-1
 692 146 l 1,16,-1
150 668 m 1,20,-1
 -20 668 l 1,21,-1
 -20 690 l 1,22,-1
 148 690 l 1,23,-1
 150 668 l 1,20,-1
514 342 m 1,24,-1
 512 320 l 1,25,-1
 302 320 l 1,26,-1
 302 342 l 1,27,-1
 514 342 l 1,24,-1
692 -28 m 1,28,-1
 552 -28 l 1,29,-1
 572 -6 l 1,30,-1
 692 -6 l 1,31,-1
 692 -28 l 1,28,-1
154 494 m 1,32,-1
 -20 494 l 1,33,-1
 -20 516 l 1,34,-1
 154 516 l 1,35,-1
 154 494 l 1,32,-1
492 168 m 1,36,-1
 486 146 l 1,37,-1
 302 146 l 1,38,-1
 302 168 l 1,39,-1
 492 168 l 1,36,-1
636 914 m 1,40,41
 632 670 632 670 630 424 c 1,42,43
 624 192 624 192 586 92 c 0,44,45
 496 -142 496 -142 126 -210 c 0,46,47
 18 -230 18 -230 -28 -256 c 0,48,49
 -84 -290 -84 -290 -84 -350 c 0,50,51
 -84 -416 -84 -416 -24 -420 c 1,52,53
 -62 -390 -62 -390 -62 -352 c 0,54,55
 -62 -320 -62 -320 -36 -298 c 128,-1,56
 -10 -276 -10 -276 22 -276 c 0,57,58
 122 -276 122 -276 122 -372 c 0,59,60
 122 -422 122 -422 92 -454 c 128,-1,61
 62 -486 62 -486 12 -486 c 0,62,63
 -48 -486 -48 -486 -95 -441 c 128,-1,64
 -142 -396 -142 -396 -142 -336 c 0,65,66
 -142 -160 -142 -160 84 -90 c 0,67,68
 200 -56 200 -56 316 -22 c 1,69,70
 456 32 456 32 516 124 c 0,71,72
 546 170 546 170 554 358 c 1,73,74
 556 510 556 510 558 662 c 1,75,-1
 262 516 l 1,76,-1
 262 162 l 2,77,78
 262 92 262 92 224 44 c 128,-1,79
 186 -4 186 -4 118 -4 c 0,80,81
 70 -4 70 -4 40 28 c 128,-1,82
 10 60 10 60 10 106 c 0,83,84
 10 228 10 228 108 228 c 0,85,86
 176 228 176 228 176 144 c 0,87,88
 176 102 176 102 160 82 c 1,89,90
 168 76 168 76 177 89 c 128,-1,91
 186 102 186 102 186 126 c 0,92,93
 202 578 202 578 186 698 c 1,94,-1
 636 914 l 1,40,41
152 320 m 1,95,-1
 -20 320 l 1,96,-1
 -20 342 l 1,97,-1
 152 342 l 1,98,-1
 152 320 l 1,95,-1
314 -6 m 1,99,-1
 260 -28 l 1,100,-1
 -20 -28 l 1,101,-1
 -20 -6 l 1,102,-1
 314 -6 l 1,99,-1
EndSplineSet
EndChar

StartChar: tm_rra
Encoding: 2993 2993 75
Width: 878
GlyphClass: 2
Flags: W
LayerCount: 2
Fore
SplineSet
898 668 m 1,0,-1
 786 668 l 1,1,-1
 748 690 l 1,2,-1
 898 690 l 1,3,-1
 898 668 l 1,0,-1
898 494 m 1,4,-1
 874 494 l 1,5,-1
 868 516 l 1,6,-1
 898 516 l 1,7,-1
 898 494 l 1,4,-1
898 320 m 1,8,-1
 888 320 l 1,9,-1
 888 342 l 1,10,-1
 898 342 l 1,11,-1
 898 320 l 1,8,-1
898 146 m 1,12,-1
 872 146 l 1,13,-1
 876 168 l 1,14,-1
 898 168 l 1,15,-1
 898 146 l 1,12,-1
702 320 m 1,16,-1
 508 320 l 1,17,-1
 514 342 l 1,18,-1
 694 342 l 1,19,-1
 702 320 l 1,16,-1
500 690 m 1,20,-1
 470 668 l 1,21,-1
 -20 668 l 1,22,-1
 -20 690 l 1,23,-1
 500 690 l 1,20,-1
898 -28 m 1,24,-1
 808 -28 l 1,25,-1
 820 -6 l 1,26,-1
 898 -6 l 1,27,-1
 898 -28 l 1,24,-1
710 168 m 1,28,-1
 706 146 l 1,29,-1
 502 146 l 1,30,-1
 500 168 l 1,31,-1
 710 168 l 1,28,-1
340 320 m 1,32,-1
 276 320 l 1,33,-1
 276 342 l 1,34,-1
 338 342 l 1,35,-1
 340 320 l 1,32,-1
628 -6 m 1,36,-1
 604 -28 l 1,37,-1
 540 -28 l 1,38,-1
 532 -6 l 1,39,-1
 628 -6 l 1,36,-1
130 516 m 1,40,-1
 126 494 l 1,41,-1
 -20 494 l 1,42,-1
 -20 516 l 1,43,-1
 130 516 l 1,40,-1
338 146 m 1,44,-1
 292 146 l 1,45,-1
 288 168 l 1,46,-1
 338 168 l 1,47,-1
 338 146 l 1,44,-1
848 322 m 0,48,49
 848 -58 848 -58 588 -208 c 0,50,51
 524 -244 524 -244 404 -272 c 0,52,53
 306 -292 306 -292 208 -312 c 0,54,55
 -26 -362 -26 -362 -26 -474 c 0,56,57
 -26 -490 -26 -490 -22 -506 c 1,58,59
 2 -438 2 -438 70 -438 c 0,60,61
 162 -438 162 -438 162 -536 c 0,62,63
 162 -582 162 -582 127 -608 c 128,-1,64
 92 -634 92 -634 50 -634 c 0,65,66
 0 -634 0 -634 -38 -598 c 0,67,68
 -86 -554 -86 -554 -86 -468 c 0,69,70
 -86 -236 -86 -236 286 -160 c 0,71,72
 506 -116 506 -116 594 -64 c 0,73,74
 754 32 754 32 754 232 c 0,75,76
 754 306 754 306 724 366 c 0,77,78
 682 448 682 448 598 448 c 0,79,80
 520 448 520 448 490 389 c 128,-1,81
 460 330 460 330 460 192 c 0,82,83
 460 72 460 72 500 -32 c 1,84,-1
 496 -38 l 1,85,86
 386 22 386 22 346 16 c 1,87,88
 382 58 382 58 382 250 c 0,89,90
 382 378 382 378 362 418 c 0,91,92
 346 448 346 448 304 448 c 0,93,94
 236 448 236 448 236 328 c 0,95,96
 236 302 236 302 245 207 c 128,-1,97
 254 112 254 112 254 82 c 0,98,99
 254 -10 254 -10 210 -58 c 0,100,101
 174 -96 174 -96 120 -96 c 0,102,103
 72 -96 72 -96 41 -59 c 128,-1,104
 10 -22 10 -22 10 34 c 0,105,106
 10 150 10 150 104 150 c 0,107,108
 172 150 172 150 172 64 c 0,109,110
 172 36 172 36 166 20 c 1,111,112
 188 32 188 32 188 88 c 0,113,114
 188 114 188 114 172 230 c 128,-1,115
 156 346 156 346 156 400 c 0,116,117
 156 636 156 636 312 636 c 0,118,119
 408 636 408 636 450 546 c 1,120,121
 454 604 454 604 492 648 c 0,122,123
 540 708 540 708 622 708 c 0,124,125
 848 708 848 708 848 322 c 0,48,49
120 320 m 1,126,-1
 -20 320 l 1,127,-1
 -20 342 l 1,128,-1
 118 342 l 1,129,-1
 120 320 l 1,126,-1
440 -28 m 1,130,-1
 270 -28 l 1,131,-1
 280 -6 l 1,132,-1
 398 -6 l 1,133,-1
 440 -28 l 1,130,-1
144 146 m 1,134,-1
 -20 146 l 1,135,-1
 -20 168 l 1,136,-1
 140 168 l 1,137,-1
 144 146 l 1,134,-1
EndSplineSet
EndChar

StartChar: tm_la
Encoding: 2994 2994 76
Width: 870
GlyphClass: 2
Flags: W
LayerCount: 2
Fore
SplineSet
890 668 m 1,0,-1
 750 668 l 1,1,-1
 720 690 l 1,2,-1
 890 690 l 1,3,-1
 890 668 l 1,0,-1
890 494 m 1,4,-1
 850 494 l 1,5,-1
 844 516 l 1,6,-1
 890 516 l 1,7,-1
 890 494 l 1,4,-1
890 320 m 1,8,-1
 878 320 l 1,9,-1
 878 342 l 1,10,-1
 890 342 l 1,11,-1
 890 320 l 1,8,-1
698 494 m 1,12,-1
 566 494 l 1,13,-1
 566 516 l 1,14,-1
 680 516 l 1,15,-1
 698 494 l 1,12,-1
450 668 m 1,16,-1
 412 668 l 1,17,-1
 348 690 l 1,18,-1
 450 690 l 1,19,-1
 450 668 l 1,16,-1
890 146 m 1,20,-1
 866 146 l 1,21,-1
 870 168 l 1,22,-1
 890 168 l 1,23,-1
 890 146 l 1,20,-1
734 320 m 1,24,-1
 496 320 l 1,25,-1
 496 342 l 1,26,-1
 734 342 l 1,27,-1
 734 320 l 1,24,-1
890 -28 m 1,28,-1
 794 -28 l 1,29,-1
 808 -6 l 1,30,-1
 890 -6 l 1,31,-1
 890 -28 l 1,28,-1
208 690 m 1,32,-1
 150 668 l 1,33,-1
 -20 668 l 1,34,-1
 -20 690 l 1,35,-1
 208 690 l 1,32,-1
704 168 m 1,36,-1
 692 146 l 1,37,-1
 506 146 l 1,38,-1
 500 168 l 1,39,-1
 704 168 l 1,36,-1
294 494 m 1,40,-1
 206 494 l 1,41,-1
 240 516 l 1,42,-1
 268 516 l 1,43,-1
 294 494 l 1,40,-1
840 278 m 0,44,45
 840 122 840 122 776 8 c 0,46,47
 702 -126 702 -126 568 -126 c 0,48,49
 364 -126 364 -126 364 138 c 0,50,51
 364 184 364 184 367 234 c 128,-1,52
 370 284 370 284 370 314 c 0,53,54
 370 528 370 528 258 528 c 0,55,56
 182 528 182 528 139 466 c 128,-1,57
 96 404 96 404 96 304 c 0,58,59
 96 136 96 136 156 128 c 1,60,61
 114 166 114 166 114 250 c 0,62,63
 114 384 114 384 194 384 c 0,64,65
 238 384 238 384 262 336 c 0,66,67
 282 298 282 298 282 248 c 0,68,69
 282 170 282 170 254 120 c 0,70,71
 222 62 222 62 160 62 c 0,72,73
 104 62 104 62 67 120 c 128,-1,74
 30 178 30 178 30 278 c 0,75,76
 30 446 30 446 90 560 c 0,77,78
 158 692 158 692 282 692 c 0,79,80
 456 692 456 692 456 430 c 2,81,-1
 456 218 l 2,82,83
 456 140 456 140 491 97 c 128,-1,84
 526 54 526 54 580 54 c 0,85,86
 664 54 664 54 719 126 c 128,-1,87
 774 198 774 198 774 312 c 0,88,89
 774 552 774 552 620 552 c 0,90,91
 524 552 524 552 524 500 c 0,92,93
 524 474 524 474 542 474 c 0,94,95
 546 474 546 474 554 476 c 128,-1,96
 562 478 562 478 568 478 c 0,97,98
 608 478 608 478 608 440 c 0,99,100
 608 386 608 386 552 386 c 0,101,102
 520 386 520 386 500 416 c 128,-1,103
 480 446 480 446 482 482 c 2,104,-1
 490 708 l 1,105,106
 504 726 504 726 560 726 c 0,107,108
 692 726 692 726 768 592 c 0,109,110
 840 468 840 468 840 278 c 0,44,45
330 320 m 1,111,-1
 310 320 l 1,112,-1
 300 342 l 1,113,-1
 330 342 l 1,114,-1
 330 320 l 1,111,-1
30 516 m 1,115,-1
 22 494 l 1,116,-1
 -20 494 l 1,117,-1
 -20 516 l 1,118,-1
 30 516 l 1,115,-1
324 146 m 1,119,-1
 306 146 l 1,120,-1
 312 168 l 1,121,-1
 324 168 l 1,122,-1
 324 146 l 1,119,-1
-8 320 m 1,123,-1
 -20 320 l 1,124,-1
 -20 342 l 1,125,-1
 -8 342 l 1,126,-1
 -8 320 l 1,123,-1
14 146 m 1,127,-1
 -20 146 l 1,128,-1
 -20 168 l 1,129,-1
 6 168 l 1,130,-1
 14 146 l 1,127,-1
358 -28 m 1,131,-1
 -20 -28 l 1,132,-1
 -20 -6 l 1,133,-1
 348 -6 l 1,134,-1
 358 -28 l 1,131,-1
EndSplineSet
EndChar

StartChar: tm_lla
Encoding: 2995 2995 77
Width: 1128
GlyphClass: 2
Flags: W
LayerCount: 2
Fore
SplineSet
1148 494 m 1,0,-1
 946 494 l 1,1,-1
 946 516 l 1,2,-1
 1148 516 l 1,3,-1
 1148 494 l 1,0,-1
1148 320 m 1,4,-1
 940 320 l 1,5,-1
 940 342 l 1,6,-1
 1148 342 l 1,7,-1
 1148 320 l 1,4,-1
624 690 m 1,8,-1
 592 668 l 1,9,-1
 550 668 l 1,10,-1
 514 690 l 1,11,-1
 624 690 l 1,8,-1
792 494 m 1,12,-1
 686 494 l 1,13,-1
 712 516 l 1,14,-1
 792 516 l 1,15,-1
 792 494 l 1,12,-1
1148 146 m 1,16,-1
 936 146 l 1,17,-1
 938 168 l 1,18,-1
 1148 168 l 1,19,-1
 1148 146 l 1,16,-1
788 320 m 1,20,-1
 636 320 l 1,21,-1
 636 342 l 1,22,-1
 788 342 l 1,23,-1
 788 320 l 1,20,-1
1148 -28 m 1,24,-1
 934 -28 l 1,25,-1
 934 -6 l 1,26,-1
 1148 -6 l 1,27,-1
 1148 -28 l 1,24,-1
1206 800 m 1,28,29
 1194 786 1194 786 1152 696 c 128,-1,30
 1110 606 1110 606 1084 576 c 0,31,32
 1038 524 1038 524 906 548 c 1,33,-1
 892 -90 l 2,34,35
 890 -148 890 -148 851 -186 c 128,-1,36
 812 -224 812 -224 756 -224 c 0,37,38
 618 -224 618 -224 618 -104 c 0,39,40
 618 6 618 6 710 6 c 0,41,42
 746 6 746 6 772 -14 c 128,-1,43
 798 -34 798 -34 798 -66 c 0,44,45
 798 -146 798 -146 740 -156 c 1,46,47
 748 -160 748 -160 760 -160 c 0,48,49
 816 -160 816 -160 818 -94 c 2,50,-1
 832 548 l 1,51,52
 810 550 810 550 792 550 c 0,53,54
 594 550 594 550 594 294 c 0,55,56
 594 114 594 114 600 44 c 1,57,58
 550 70 550 70 486 76 c 1,59,60
 514 140 514 140 514 256 c 0,61,62
 514 532 514 532 354 532 c 0,63,64
 234 532 234 532 171 445 c 128,-1,65
 108 358 108 358 108 210 c 0,66,67
 108 40 108 40 166 44 c 1,68,69
 136 96 136 96 136 194 c 0,70,71
 136 374 136 374 244 374 c 0,72,73
 376 374 376 374 376 178 c 0,74,75
 376 92 376 92 340 28 c 0,76,77
 298 -44 298 -44 234 -44 c 0,78,79
 140 -44 140 -44 85 44 c 128,-1,80
 30 132 30 132 30 298 c 0,81,82
 30 460 30 460 122 582 c 0,83,84
 218 714 218 714 364 714 c 0,85,86
 456 714 456 714 516 664 c 0,87,88
 560 626 560 626 570 576 c 1,89,90
 608 688 608 688 744 718 c 0,91,92
 798 730 798 730 990 734 c 0,93,94
 1128 736 1128 736 1202 802 c 0,95,96
 1204 800 1204 800 1206 800 c 1,28,29
784 168 m 1,97,-1
 782 146 l 1,98,-1
 634 146 l 1,99,-1
 634 168 l 1,100,-1
 784 168 l 1,97,-1
414 494 m 1,101,-1
 264 494 l 1,102,-1
 308 516 l 1,103,-1
 380 516 l 1,104,-1
 414 494 l 1,101,-1
210 690 m 1,105,-1
 172 668 l 1,106,-1
 -20 668 l 1,107,-1
 -20 690 l 1,108,-1
 210 690 l 1,105,-1
472 320 m 1,109,-1
 386 320 l 1,110,-1
 370 342 l 1,111,-1
 470 342 l 1,112,-1
 472 320 l 1,109,-1
468 168 m 1,113,-1
 466 146 l 1,114,-1
 414 146 l 1,115,-1
 416 168 l 1,116,-1
 468 168 l 1,113,-1
40 516 m 1,117,-1
 32 494 l 1,118,-1
 -20 494 l 1,119,-1
 -20 516 l 1,120,-1
 40 516 l 1,117,-1
624 -6 m 1,121,-1
 598 -28 l 1,122,-1
 330 -28 l 1,123,-1
 356 -6 l 1,124,-1
 624 -6 l 1,121,-1
-8 342 m 1,125,-1
 -10 320 l 1,126,-1
 -20 320 l 1,127,-1
 -20 342 l 1,128,-1
 -8 342 l 1,125,-1
6 146 m 1,129,-1
 -20 146 l 1,130,-1
 -20 168 l 1,131,-1
 0 168 l 1,132,-1
 6 146 l 1,129,-1
120 -28 m 1,133,-1
 -20 -28 l 1,134,-1
 -20 -6 l 1,135,-1
 84 -6 l 1,136,-1
 120 -28 l 1,133,-1
EndSplineSet
EndChar

StartChar: tm_llla
Encoding: 2996 2996 78
Width: 920
GlyphClass: 2
Flags: W
LayerCount: 2
Fore
SplineSet
940 668 m 1,0,-1
 910 668 l 1,1,-1
 910 690 l 1,2,-1
 940 690 l 1,3,-1
 940 668 l 1,0,-1
940 494 m 1,4,-1
 912 494 l 1,5,-1
 912 516 l 1,6,-1
 940 516 l 1,7,-1
 940 494 l 1,4,-1
940 320 m 1,8,-1
 914 320 l 1,9,-1
 912 342 l 1,10,-1
 940 342 l 1,11,-1
 940 320 l 1,8,-1
940 146 m 1,12,-1
 916 146 l 1,13,-1
 916 168 l 1,14,-1
 940 168 l 1,15,-1
 940 146 l 1,12,-1
460 690 m 1,16,-1
 430 668 l 1,17,-1
 256 668 l 1,18,-1
 258 690 l 1,19,-1
 460 690 l 1,16,-1
940 -28 m 1,20,-1
 894 -28 l 1,21,-1
 906 -6 l 1,22,-1
 940 -6 l 1,23,-1
 940 -28 l 1,20,-1
388 494 m 1,24,-1
 254 494 l 1,25,-1
 256 516 l 1,26,-1
 388 516 l 1,27,-1
 388 494 l 1,24,-1
876 34 m 2,28,29
 876 -10 876 -10 830 -64 c 0,30,31
 770 -130 770 -130 684 -130 c 0,32,33
 638 -130 638 -130 582 -98 c 0,34,35
 536 -70 536 -70 514 -40 c 1,36,37
 516 -132 516 -132 566 -185 c 128,-1,38
 616 -238 616 -238 692 -238 c 0,39,40
 734 -238 734 -238 770 -210 c 0,41,42
 780 -200 780 -200 826 -150 c 1,43,44
 826 -156 826 -156 828 -150 c 2,45,-1
 828 -394 l 1,46,47
 802 -408 802 -408 764 -408 c 0,48,49
 672 -408 672 -408 564 -346 c 1,50,51
 480 -290 480 -290 396 -234 c 0,52,53
 300 -172 300 -172 218 -172 c 0,54,55
 56 -172 56 -172 56 -314 c 0,56,57
 56 -376 56 -376 116 -376 c 1,58,59
 80 -344 80 -344 80 -306 c 0,60,61
 80 -244 80 -244 162 -244 c 0,62,63
 202 -244 202 -244 228 -269 c 128,-1,64
 254 -294 254 -294 254 -332 c 256,65,66
 254 -370 254 -370 228 -398 c 0,67,68
 196 -434 196 -434 140 -434 c 0,69,70
 76 -434 76 -434 30 -392 c 0,71,72
 -22 -344 -22 -344 -22 -264 c 0,73,74
 -22 -156 -22 -156 45 -95 c 128,-1,75
 112 -34 112 -34 234 -34 c 0,76,77
 308 -34 308 -34 368 -78 c 0,78,79
 404 -104 404 -104 452 -166 c 0,80,81
 494 -220 494 -220 514 -228 c 1,82,83
 444 -148 444 -148 444 14 c 1,84,85
 394 60 394 60 342 106 c 128,-1,86
 290 152 290 152 236 152 c 0,87,88
 192 152 192 152 140 104 c 1,89,-1
 134 104 l 1,90,-1
 146 512 l 1,91,-1
 88 472 l 1,92,-1
 88 424 l 1,93,-1
 30 388 l 1,94,-1
 30 668 l 1,95,-1
 218 800 l 1,96,-1
 212 286 l 1,97,98
 242 300 242 300 274 300 c 0,99,100
 354 300 354 300 428 226 c 1,101,-1
 428 638 l 1,102,-1
 868 960 l 1,103,-1
 876 34 l 2,28,29
24 690 m 1,104,-1
 -10 668 l 1,105,-1
 -20 668 l 1,106,-1
 -20 690 l 1,107,-1
 24 690 l 1,104,-1
388 320 m 1,108,-1
 252 320 l 1,109,-1
 252 342 l 1,110,-1
 388 342 l 1,111,-1
 388 320 l 1,108,-1
-10 494 m 1,112,-1
 -20 494 l 1,113,-1
 -20 516 l 1,114,-1
 -10 516 l 1,115,-1
 -10 494 l 1,112,-1
102 342 m 1,116,-1
 100 320 l 1,117,-1
 -20 320 l 1,118,-1
 -20 342 l 1,119,-1
 102 342 l 1,116,-1
96 146 m 1,120,-1
 -20 146 l 1,121,-1
 -20 168 l 1,122,-1
 96 168 l 1,123,-1
 96 146 l 1,120,-1
404 -28 m 1,124,-1
 -20 -28 l 1,125,-1
 -20 -6 l 1,126,-1
 404 -6 l 1,127,-1
 404 -28 l 1,124,-1
460 690 m 1,128,-1
 258 690 l 1,129,-1
 256 668 l 1,130,-1
 430 668 l 1,131,-1
 460 690 l 1,128,-1
800 182 m 2,132,-1
 794 650 l 1,133,-1
 496 426 l 1,134,-1
 496 168 l 1,135,136
 530 128 530 128 593 90 c 128,-1,137
 656 52 656 52 704 52 c 0,138,139
 802 52 802 52 800 182 c 2,132,-1
756 494 m 1,140,-1
 626 494 l 1,141,-1
 656 516 l 1,142,-1
 756 516 l 1,143,-1
 756 494 l 1,140,-1
758 320 m 1,144,-1
 536 320 l 1,145,-1
 536 342 l 1,146,-1
 758 342 l 1,147,-1
 758 320 l 1,144,-1
760 146 m 1,148,-1
 558 146 l 1,149,-1
 536 168 l 1,150,-1
 760 168 l 1,151,-1
 760 146 l 1,148,-1
EndSplineSet
EndChar

StartChar: tm_va
Encoding: 2997 2997 79
Width: 984
GlyphClass: 2
Flags: W
LayerCount: 2
Fore
SplineSet
996 668 m 1,0,-1
 988 668 l 1,1,-1
 990 690 l 1,2,-1
 996 690 l 1,3,-1
 996 668 l 1,0,-1
996 494 m 1,4,-1
 980 494 l 1,5,-1
 982 516 l 1,6,-1
 996 516 l 1,7,-1
 996 494 l 1,4,-1
996 320 m 1,8,-1
 974 320 l 1,9,-1
 974 342 l 1,10,-1
 996 342 l 1,11,-1
 996 320 l 1,8,-1
698 668 m 1,12,-1
 556 668 l 1,13,-1
 518 690 l 1,14,-1
 698 690 l 1,15,-1
 698 668 l 1,12,-1
692 494 m 1,16,-1
 662 494 l 1,17,-1
 656 516 l 1,18,-1
 692 516 l 1,19,-1
 692 494 l 1,16,-1
996 146 m 1,20,-1
 966 146 l 1,21,-1
 966 168 l 1,22,-1
 996 168 l 1,23,-1
 996 146 l 1,20,-1
808 342 m 1,24,-1
 806 320 l 1,25,-1
 684 320 l 1,26,-1
 684 342 l 1,27,-1
 808 342 l 1,24,-1
996 -28 m 1,28,-1
 958 -28 l 1,29,-1
 958 -6 l 1,30,-1
 996 -6 l 1,31,-1
 996 -28 l 1,28,-1
800 146 m 1,32,-1
 664 146 l 1,33,-1
 670 168 l 1,34,-1
 800 168 l 1,35,-1
 800 146 l 1,32,-1
456 494 m 1,36,-1
 246 494 l 1,37,-1
 280 516 l 1,38,-1
 424 516 l 1,39,-1
 456 494 l 1,36,-1
956 864 m 1,40,-1
 920 -2 l 2,41,42
 912 -178 912 -178 760 -178 c 0,43,44
 684 -178 684 -178 638 -132 c 0,45,46
 614 -108 614 -108 584 -44 c 0,47,48
 560 2 560 2 540 2 c 0,49,50
 516 2 516 2 502 -27 c 128,-1,51
 488 -56 488 -56 462 -56 c 0,52,53
 408 -56 408 -56 408 6 c 0,54,55
 408 112 408 112 504 112 c 0,56,57
 522 112 522 112 540 108 c 1,58,59
 566 174 566 174 566 274 c 0,60,61
 566 546 566 546 352 546 c 0,62,63
 238 546 238 546 164 452 c 128,-1,64
 90 358 90 358 90 230 c 0,65,66
 90 80 90 80 152 40 c 1,67,68
 112 100 112 100 112 170 c 0,69,70
 112 362 112 362 236 362 c 0,71,72
 364 362 364 362 364 176 c 0,73,74
 364 -58 364 -58 220 -58 c 0,75,76
 134 -58 134 -58 78 24 c 128,-1,77
 22 106 22 106 22 250 c 0,78,79
 22 446 22 446 110 578 c 0,80,81
 204 718 204 718 360 718 c 0,82,83
 498 718 498 718 571 609 c 128,-1,84
 644 500 644 500 644 318 c 0,85,86
 644 192 644 192 602 80 c 1,87,88
 690 20 690 20 740 20 c 0,89,90
 834 20 834 20 838 118 c 2,91,-1
 858 582 l 1,92,-1
 802 550 l 1,93,-1
 800 488 l 1,94,-1
 730 446 l 1,95,-1
 740 728 l 1,96,-1
 956 864 l 1,40,-1
524 320 m 1,97,-1
 364 320 l 1,98,-1
 342 342 l 1,99,-1
 522 342 l 1,100,-1
 524 320 l 1,97,-1
196 690 m 1,101,-1
 158 668 l 1,102,-1
 -28 668 l 1,103,-1
 -28 690 l 1,104,-1
 196 690 l 1,101,-1
516 168 m 1,105,-1
 512 146 l 1,106,-1
 404 146 l 1,107,-1
 404 168 l 1,108,-1
 516 168 l 1,105,-1
34 516 m 1,109,-1
 26 494 l 1,110,-1
 -28 494 l 1,111,-1
 -28 516 l 1,112,-1
 34 516 l 1,109,-1
376 -28 m 1,113,-1
 342 -28 l 1,114,-1
 362 -6 l 1,115,-1
 370 -6 l 1,116,-1
 376 -28 l 1,113,-1
-12 342 m 1,117,-1
 -14 320 l 1,118,-1
 -28 320 l 1,119,-1
 -28 342 l 1,120,-1
 -12 342 l 1,117,-1
-8 146 m 1,121,-1
 -28 146 l 1,122,-1
 -28 168 l 1,123,-1
 -12 168 l 1,124,-1
 -8 146 l 1,121,-1
88 -28 m 1,125,-1
 -28 -28 l 1,126,-1
 -28 -6 l 1,127,-1
 62 -6 l 1,128,-1
 88 -28 l 1,125,-1
EndSplineSet
EndChar

StartChar: tm_ssa
Encoding: 2999 2999 80
Width: 1246
GlyphClass: 2
Flags: W
LayerCount: 2
Fore
SplineSet
1266 668 m 1,0,-1
 1038 668 l 1,1,-1
 1004 690 l 1,2,-1
 1266 690 l 1,3,-1
 1266 668 l 1,0,-1
1266 494 m 1,4,-1
 1106 494 l 1,5,-1
 1104 516 l 1,6,-1
 1266 516 l 1,7,-1
 1266 494 l 1,4,-1
1266 320 m 1,8,-1
 1086 320 l 1,9,-1
 1092 342 l 1,10,-1
 1266 342 l 1,11,-1
 1266 320 l 1,8,-1
1266 146 m 1,12,-1
 1258 146 l 1,13,-1
 1238 168 l 1,14,-1
 1266 168 l 1,15,-1
 1266 146 l 1,12,-1
1266 -28 m 1,16,-1
 1226 -28 l 1,17,-1
 1240 -6 l 1,18,-1
 1266 -6 l 1,19,-1
 1266 -28 l 1,16,-1
642 516 m 1,20,-1
 638 494 l 1,21,-1
 604 494 l 1,22,-1
 592 516 l 1,23,-1
 642 516 l 1,20,-1
750 690 m 1,24,-1
 720 668 l 1,25,-1
 -20 668 l 1,26,-1
 -20 690 l 1,27,-1
 750 690 l 1,24,-1
1050 -6 m 1,28,-1
 1008 -28 l 1,29,-1
 930 -28 l 1,30,-1
 946 -6 l 1,31,-1
 1050 -6 l 1,28,-1
712 146 m 1,32,-1
 656 146 l 1,33,-1
 656 168 l 1,34,-1
 700 168 l 1,35,-1
 712 146 l 1,32,-1
482 320 m 1,36,-1
 160 320 l 1,37,-1
 172 342 l 1,38,-1
 474 342 l 1,39,-1
 482 320 l 1,36,-1
1230 106 m 0,40,41
 1230 -8 1230 -8 1117 -111 c 128,-1,42
 1004 -214 1004 -214 908 -214 c 0,43,44
 838 -214 838 -214 796 -188 c 1,45,46
 686 -368 686 -368 686 -500 c 0,47,48
 686 -690 686 -690 786 -690 c 0,49,50
 826 -690 826 -690 851 -662 c 128,-1,51
 876 -634 876 -634 876 -600 c 1,52,53
 828 -648 828 -648 798 -648 c 0,54,55
 778 -648 778 -648 758 -630 c 128,-1,56
 738 -612 738 -612 738 -586 c 0,57,58
 738 -538 738 -538 773 -496 c 128,-1,59
 808 -454 808 -454 856 -454 c 0,60,61
 950 -454 950 -454 950 -564 c 0,62,63
 950 -638 950 -638 891 -694 c 128,-1,64
 832 -750 832 -750 750 -750 c 0,65,66
 664 -750 664 -750 604 -694 c 128,-1,67
 544 -638 544 -638 544 -534 c 0,68,69
 544 -398 544 -398 720 -158 c 1,70,71
 654 -116 654 -116 564 -68 c 1,72,73
 522 -184 522 -184 464 -184 c 0,74,75
 408 -184 408 -184 408 -126 c 0,76,77
 408 -30 408 -30 524 4 c 1,78,79
 542 120 542 120 542 166 c 0,80,81
 542 464 542 464 338 464 c 0,82,83
 240 464 240 464 170 394 c 0,84,85
 88 308 88 308 88 154 c 0,86,87
 88 28 88 28 142 -26 c 1,88,89
 114 54 114 54 114 114 c 0,90,91
 114 184 114 184 145 228 c 128,-1,92
 176 272 176 272 232 272 c 0,93,94
 366 272 366 272 366 62 c 0,95,96
 366 -42 366 -42 322 -98 c 0,97,98
 282 -146 282 -146 228 -146 c 0,99,100
 150 -146 150 -146 92 -64 c 0,101,102
 28 30 28 30 28 184 c 0,103,104
 28 382 28 382 106 502 c 0,105,106
 192 632 192 632 354 632 c 0,107,108
 478 632 478 632 548 521 c 128,-1,109
 618 410 618 410 618 230 c 0,110,111
 618 72 618 72 584 10 c 1,112,113
 674 -12 674 -12 804 -36 c 1,114,-1
 842 26 l 1,115,116
 770 86 770 86 718 218 c 0,117,118
 672 336 672 336 672 414 c 0,119,120
 672 540 672 540 724 625 c 128,-1,121
 776 710 776 710 874 710 c 0,122,123
 1068 710 1068 710 1068 452 c 0,124,125
 1068 380 1068 380 1028 254 c 0,126,127
 974 90 974 90 882 -40 c 1,128,129
 904 -48 904 -48 936 -48 c 0,130,131
 1014 -48 1014 -48 1091 -6 c 128,-1,132
 1168 36 1168 36 1168 94 c 0,133,134
 1168 138 1168 138 1122 130 c 1,135,136
 1146 112 1146 112 1146 88 c 0,137,138
 1146 70 1146 70 1125 47 c 128,-1,139
 1104 24 1104 24 1086 24 c 256,140,141
 1068 24 1068 24 1052 42 c 128,-1,142
 1036 60 1036 60 1036 82 c 0,143,144
 1036 128 1036 128 1069 158 c 128,-1,145
 1102 188 1102 188 1144 188 c 0,146,147
 1176 188 1176 188 1203 164 c 128,-1,148
 1230 140 1230 140 1230 106 c 0,40,41
502 146 m 1,149,-1
 398 146 l 1,150,-1
 392 168 l 1,151,-1
 502 168 l 1,152,-1
 502 146 l 1,149,-1
76 516 m 1,153,-1
 60 494 l 1,154,-1
 -20 494 l 1,155,-1
 -20 516 l 1,156,-1
 76 516 l 1,153,-1
454 -6 m 1,157,-1
 414 -28 l 1,158,-1
 396 -28 l 1,159,-1
 400 -6 l 1,160,-1
 454 -6 l 1,157,-1
4 342 m 1,161,-1
 0 320 l 1,162,-1
 -20 320 l 1,163,-1
 -20 342 l 1,164,-1
 4 342 l 1,161,-1
-10 146 m 1,165,-1
 -20 146 l 1,166,-1
 -20 168 l 1,167,-1
 -12 168 l 1,168,-1
 -10 146 l 1,165,-1
32 -28 m 1,169,-1
 -20 -28 l 1,170,-1
 -20 -6 l 1,171,-1
 22 -6 l 1,172,-1
 32 -28 l 1,169,-1
964 356 m 0,173,174
 964 500 964 500 882 500 c 0,175,176
 822 500 822 500 802 436 c 0,177,178
 792 402 792 402 792 324 c 0,179,180
 792 158 792 158 866 64 c 1,181,182
 908 124 908 124 936 209 c 128,-1,183
 964 294 964 294 964 356 c 0,173,174
924 342 m 1,184,-1
 922 320 l 1,185,-1
 832 320 l 1,186,-1
 832 342 l 1,187,-1
 924 342 l 1,184,-1
882 168 m 1,188,-1
 872 146 l 1,189,-1
 860 146 l 1,190,-1
 852 168 l 1,191,-1
 882 168 l 1,188,-1
EndSplineSet
EndChar

StartChar: tm_sa
Encoding: 3000 3000 81
Width: 1480
GlyphClass: 2
Flags: W
LayerCount: 2
Fore
SplineSet
1500 668 m 1,0,-1
 1352 668 l 1,1,-1
 1320 690 l 1,2,-1
 1500 690 l 1,3,-1
 1500 668 l 1,0,-1
1500 494 m 1,4,-1
 1456 494 l 1,5,-1
 1450 516 l 1,6,-1
 1500 516 l 1,7,-1
 1500 494 l 1,4,-1
1500 320 m 1,8,-1
 1486 320 l 1,9,-1
 1484 342 l 1,10,-1
 1500 342 l 1,11,-1
 1500 320 l 1,8,-1
1292 494 m 1,12,-1
 1156 494 l 1,13,-1
 1176 516 l 1,14,-1
 1266 516 l 1,15,-1
 1292 494 l 1,12,-1
1046 690 m 1,16,-1
 1044 668 l 1,17,-1
 966 668 l 1,18,-1
 940 690 l 1,19,-1
 1046 690 l 1,16,-1
1500 146 m 1,20,-1
 1480 146 l 1,21,-1
 1484 168 l 1,22,-1
 1500 168 l 1,23,-1
 1500 146 l 1,20,-1
1344 320 m 1,24,-1
 1052 320 l 1,25,-1
 1052 342 l 1,26,-1
 1344 342 l 1,27,-1
 1344 320 l 1,24,-1
1500 -28 m 1,28,-1
 1426 -28 l 1,29,-1
 1438 -6 l 1,30,-1
 1500 -6 l 1,31,-1
 1500 -28 l 1,28,-1
1318 168 m 1,32,-1
 1308 146 l 1,33,-1
 1078 146 l 1,34,-1
 1072 168 l 1,35,-1
 1318 168 l 1,32,-1
670 690 m 1,36,-1
 642 668 l 1,37,-1
 568 668 l 1,38,-1
 536 690 l 1,39,-1
 670 690 l 1,36,-1
882 320 m 1,40,-1
 710 320 l 1,41,-1
 710 342 l 1,42,-1
 876 342 l 1,43,-1
 882 320 l 1,40,-1
1448 252 m 0,44,45
 1448 62 1448 62 1370 -52 c 128,-1,46
 1292 -166 1292 -166 1166 -166 c 0,47,48
 1052 -166 1052 -166 998 -72 c 0,49,50
 960 -6 960 -6 942 134 c 0,51,52
 916 344 916 344 914 356 c 0,53,54
 886 456 886 456 796 456 c 0,55,56
 660 456 660 456 660 204 c 0,57,58
 660 82 660 82 706 -40 c 1,59,60
 700 -34 700 -34 696 -42 c 1,61,62
 616 28 616 28 534 20 c 1,63,64
 562 130 562 130 562 280 c 0,65,66
 562 382 562 382 510 454 c 0,67,68
 448 536 448 536 338 536 c 256,69,70
 228 536 228 536 165 459 c 128,-1,71
 102 382 102 382 102 250 c 0,72,73
 102 74 102 74 182 36 c 1,74,75
 136 82 136 82 136 182 c 0,76,77
 136 348 136 348 270 348 c 0,78,79
 332 348 332 348 368 293 c 128,-1,80
 404 238 404 238 404 152 c 0,81,82
 404 -70 404 -70 250 -70 c 0,83,84
 166 -70 166 -70 102 18 c 0,85,86
 26 122 26 122 26 294 c 0,87,88
 26 478 26 478 123 598 c 128,-1,89
 220 718 220 718 374 718 c 0,90,91
 476 718 476 718 532 664 c 0,92,93
 582 616 582 616 622 502 c 1,94,95
 630 716 630 716 812 716 c 0,96,97
 1012 716 1012 716 1012 298 c 0,98,99
 1012 196 1012 196 1048 124 c 0,100,101
 1098 26 1098 26 1196 26 c 0,102,103
 1280 26 1280 26 1336 120 c 0,104,105
 1384 204 1384 204 1384 316 c 0,106,107
 1384 432 1384 432 1332 492 c 0,108,109
 1290 540 1290 540 1238 540 c 0,110,111
 1112 540 1112 540 1112 476 c 0,112,113
 1112 456 1112 456 1128 448 c 1,114,115
 1144 468 1144 468 1164 468 c 0,116,117
 1206 468 1206 468 1206 416 c 0,118,119
 1206 362 1206 362 1156 362 c 0,120,121
 1120 362 1120 362 1097 393 c 128,-1,122
 1074 424 1074 424 1076 468 c 0,123,124
 1078 560 1078 560 1088 710 c 1,125,126
 1228 730 1228 730 1294 682 c 0,127,128
 1448 572 1448 572 1448 252 c 0,44,45
900 146 m 1,129,-1
 702 146 l 1,130,-1
 702 168 l 1,131,-1
 898 168 l 1,132,-1
 900 146 l 1,129,-1
430 494 m 1,133,-1
 242 494 l 1,134,-1
 280 516 l 1,135,-1
 392 516 l 1,136,-1
 430 494 l 1,133,-1
936 -28 m 1,137,-1
 742 -28 l 1,138,-1
 734 -6 l 1,139,-1
 930 -6 l 1,140,-1
 936 -28 l 1,137,-1
200 690 m 1,141,-1
 162 668 l 1,142,-1
 -20 668 l 1,143,-1
 -20 690 l 1,144,-1
 200 690 l 1,141,-1
520 320 m 1,145,-1
 384 320 l 1,146,-1
 350 342 l 1,147,-1
 516 342 l 1,148,-1
 520 320 l 1,145,-1
518 168 m 1,149,-1
 516 146 l 1,150,-1
 444 146 l 1,151,-1
 444 168 l 1,152,-1
 518 168 l 1,149,-1
32 516 m 1,153,-1
 22 494 l 1,154,-1
 -20 494 l 1,155,-1
 -20 516 l 1,156,-1
 32 516 l 1,153,-1
638 -28 m 1,157,-1
 392 -28 l 1,158,-1
 408 -6 l 1,159,-1
 604 -6 l 1,160,-1
 638 -28 l 1,157,-1
184 342 m 1,161,-1
 146 320 l 1,162,-1
 152 342 l 1,163,-1
 184 342 l 1,161,-1
-12 342 m 1,164,-1
 -14 320 l 1,165,-1
 -20 320 l 1,166,-1
 -20 342 l 1,167,-1
 -12 342 l 1,164,-1
4 146 m 1,168,-1
 -20 146 l 1,169,-1
 -20 168 l 1,170,-1
 -2 168 l 1,171,-1
 4 146 l 1,168,-1
104 -28 m 1,172,-1
 -20 -28 l 1,173,-1
 -20 -6 l 1,174,-1
 84 -6 l 1,175,-1
 104 -28 l 1,172,-1
EndSplineSet
EndChar

StartChar: tm_ha
Encoding: 3001 3001 82
Width: 1416
GlyphClass: 2
Flags: W
LayerCount: 2
Fore
SplineSet
1436 668 m 1,0,-1
 1318 668 l 1,1,-1
 1284 690 l 1,2,-1
 1436 690 l 1,3,-1
 1436 668 l 1,0,-1
1436 494 m 1,4,-1
 1410 494 l 1,5,-1
 1404 516 l 1,6,-1
 1436 516 l 1,7,-1
 1436 494 l 1,4,-1
1436 320 m 1,8,-1
 1422 320 l 1,9,-1
 1424 342 l 1,10,-1
 1436 342 l 1,11,-1
 1436 320 l 1,8,-1
1436 146 m 1,12,-1
 1408 146 l 1,13,-1
 1412 168 l 1,14,-1
 1436 168 l 1,15,-1
 1436 146 l 1,12,-1
1252 320 m 1,16,-1
 1072 320 l 1,17,-1
 1076 342 l 1,18,-1
 1248 342 l 1,19,-1
 1252 320 l 1,16,-1
1436 -28 m 1,20,-1
 1352 -28 l 1,21,-1
 1362 -6 l 1,22,-1
 1436 -6 l 1,23,-1
 1436 -28 l 1,20,-1
1250 168 m 1,24,-1
 1248 146 l 1,25,-1
 1064 146 l 1,26,-1
 1064 168 l 1,27,-1
 1250 168 l 1,24,-1
1064 690 m 1,28,-1
 1028 668 l 1,29,-1
 -20 668 l 1,30,-1
 -20 690 l 1,31,-1
 1064 690 l 1,28,-1
902 320 m 1,32,-1
 832 320 l 1,33,-1
 834 342 l 1,34,-1
 900 342 l 1,35,-1
 902 320 l 1,32,-1
690 516 m 1,36,-1
 684 494 l 1,37,-1
 596 494 l 1,38,-1
 586 516 l 1,39,-1
 690 516 l 1,36,-1
1186 -6 m 1,40,-1
 1170 -28 l 1,41,-1
 1106 -28 l 1,42,-1
 1094 -6 l 1,43,-1
 1186 -6 l 1,40,-1
904 168 m 1,44,-1
 902 146 l 1,45,-1
 836 146 l 1,46,-1
 836 168 l 1,47,-1
 904 168 l 1,44,-1
680 320 m 1,48,-1
 620 320 l 1,49,-1
 620 342 l 1,50,-1
 678 342 l 1,51,-1
 680 320 l 1,48,-1
1000 -28 m 1,52,-1
 822 -28 l 1,53,-1
 824 -6 l 1,54,-1
 962 -6 l 1,55,-1
 1000 -28 l 1,52,-1
694 146 m 1,56,-1
 598 146 l 1,57,-1
 604 168 l 1,58,-1
 692 168 l 1,59,-1
 694 146 l 1,56,-1
460 320 m 1,60,-1
 132 320 l 1,61,-1
 134 342 l 1,62,-1
 458 342 l 1,63,-1
 460 320 l 1,60,-1
1384 366 m 0,64,65
 1384 138 1384 138 1324 -2 c 0,66,67
 1240 -200 1240 -200 1016 -314 c 0,68,69
 902 -372 902 -372 622 -448 c 0,70,71
 274 -544 274 -544 206 -568 c 0,72,73
 12 -636 12 -636 12 -702 c 0,74,75
 12 -728 12 -728 44 -754 c 1,76,77
 42 -742 42 -742 42 -716 c 0,78,79
 42 -664 42 -664 100 -664 c 0,80,81
 162 -664 162 -664 162 -724 c 0,82,83
 162 -802 162 -802 70 -802 c 0,84,85
 28 -802 28 -802 -4 -774 c 0,86,87
 -42 -742 -42 -742 -42 -686 c 0,88,89
 -42 -536 -42 -536 146 -440 c 0,90,91
 262 -382 262 -382 572 -304 c 0,92,93
 896 -222 896 -222 1026 -164 c 0,94,95
 1296 -42 1296 -42 1296 250 c 0,96,97
 1296 452 1296 452 1160 452 c 0,98,99
 1022 452 1022 452 1022 230 c 0,100,101
 1022 32 1022 32 1076 -46 c 1,102,103
 1066 -42 1066 -42 1000 -6 c 0,104,105
 952 22 952 22 914 24 c 1,106,107
 944 60 944 60 944 242 c 0,108,109
 944 446 944 446 862 446 c 0,110,111
 812 446 812 446 798 376 c 0,112,113
 792 350 792 350 792 270 c 0,114,115
 792 214 792 214 798 136 c 128,-1,116
 804 58 804 58 804 32 c 0,117,118
 804 -170 804 -170 672 -170 c 0,119,120
 618 -170 618 -170 576 -130 c 0,121,122
 558 -112 558 -112 524 -54 c 0,123,124
 498 -14 498 -14 480 -14 c 0,125,126
 468 -14 468 -14 454 -44 c 128,-1,127
 440 -74 440 -74 402 -74 c 0,128,129
 342 -74 342 -74 342 -6 c 0,130,131
 342 90 342 90 434 90 c 0,132,133
 456 90 456 90 480 82 c 1,134,135
 510 166 510 166 510 230 c 0,136,137
 510 490 510 490 306 490 c 0,138,139
 210 490 210 490 150 432 c 0,140,141
 82 368 82 368 82 248 c 0,142,143
 82 176 82 176 102 150 c 1,144,145
 110 290 110 290 218 290 c 0,146,147
 270 290 270 290 299 242 c 128,-1,148
 328 194 328 194 328 124 c 0,149,150
 328 38 328 38 282 -6 c 0,151,152
 248 -40 248 -40 206 -40 c 0,153,154
 128 -40 128 -40 79 49 c 128,-1,155
 30 138 30 138 30 278 c 0,156,157
 30 438 30 438 100 544 c 0,158,159
 178 658 178 658 316 658 c 0,160,161
 580 658 580 658 580 332 c 0,162,163
 580 154 580 154 526 70 c 1,164,165
 630 4 630 4 672 4 c 0,166,167
 734 4 734 4 734 124 c 0,168,169
 734 166 734 166 725 267 c 128,-1,170
 716 368 716 368 716 396 c 0,171,172
 716 522 716 522 756 575 c 128,-1,173
 796 628 796 628 886 628 c 0,174,175
 972 628 972 628 1008 566 c 1,176,177
 1040 704 1040 704 1180 704 c 0,178,179
 1278 704 1278 704 1334 594 c 0,180,181
 1384 498 1384 498 1384 366 c 0,64,65
464 168 m 1,182,-1
 460 146 l 1,183,-1
 368 146 l 1,184,-1
 364 168 l 1,185,-1
 464 168 l 1,182,-1
44 516 m 1,186,-1
 32 494 l 1,187,-1
 -20 494 l 1,188,-1
 -20 516 l 1,189,-1
 44 516 l 1,186,-1
-6 320 m 1,190,-1
 -20 320 l 1,191,-1
 -20 342 l 1,192,-1
 -6 342 l 1,193,-1
 -6 320 l 1,190,-1
4 146 m 1,194,-1
 -20 146 l 1,195,-1
 -20 168 l 1,196,-1
 0 168 l 1,197,-1
 4 146 l 1,194,-1
112 -28 m 1,198,-1
 -20 -28 l 1,199,-1
 -20 -6 l 1,200,-1
 80 -6 l 1,201,-1
 112 -28 l 1,198,-1
EndSplineSet
EndChar

StartChar: tm_aakaar
Encoding: 3006 3006 83
Width: 718
GlyphClass: 2
Flags: W
LayerCount: 2
Fore
SplineSet
738 668 m 1,0,-1
 716 668 l 1,1,-1
 716 690 l 1,2,-1
 738 690 l 1,3,-1
 738 668 l 1,0,-1
738 494 m 1,4,-1
 714 494 l 1,5,-1
 714 516 l 1,6,-1
 738 516 l 1,7,-1
 738 494 l 1,4,-1
560 668 m 1,8,-1
 324 668 l 1,9,-1
 324 690 l 1,10,-1
 560 690 l 1,11,-1
 560 668 l 1,8,-1
694 1134 m 1,12,13
 678 1076 678 1076 676 834 c 2,14,-1
 674 512 l 2,15,16
 674 426 674 426 627 368 c 128,-1,17
 580 310 580 310 518 310 c 0,18,19
 390 310 390 310 390 424 c 0,20,21
 390 486 390 486 417 524 c 128,-1,22
 444 562 444 562 484 562 c 0,23,24
 560 562 560 562 560 488 c 0,25,26
 560 422 560 422 516 382 c 1,27,28
 596 374 596 374 598 498 c 2,29,-1
 604 884 l 1,30,-1
 284 728 l 1,31,-1
 276 362 l 2,32,33
 274 286 274 286 234 242 c 0,34,35
 198 206 198 206 148 206 c 0,36,37
 92 206 92 206 59 239 c 128,-1,38
 26 272 26 272 26 324 c 0,39,40
 26 440 26 440 112 440 c 0,41,42
 188 440 188 440 188 356 c 0,43,44
 188 308 188 308 150 270 c 1,45,46
 210 270 210 270 210 356 c 2,47,-1
 212 910 l 1,48,-1
 694 1134 l 1,12,13
738 320 m 1,49,-1
 608 320 l 1,50,-1
 642 342 l 1,51,-1
 738 342 l 1,52,-1
 738 320 l 1,49,-1
372 516 m 1,53,-1
 362 494 l 1,54,-1
 320 494 l 1,55,-1
 320 516 l 1,56,-1
 372 516 l 1,53,-1
172 668 m 1,57,-1
 -20 668 l 1,58,-1
 -20 690 l 1,59,-1
 172 690 l 1,60,-1
 172 668 l 1,57,-1
418 320 m 1,61,-1
 312 320 l 1,62,-1
 316 342 l 1,63,-1
 382 342 l 1,64,-1
 418 320 l 1,61,-1
172 494 m 1,65,-1
 -20 494 l 1,66,-1
 -20 516 l 1,67,-1
 172 516 l 1,68,-1
 172 494 l 1,65,-1
738 146 m 1,69,-1
 -20 146 l 1,70,-1
 -20 168 l 1,71,-1
 738 168 l 1,72,-1
 738 146 l 1,69,-1
738 -28 m 1,73,-1
 -20 -28 l 1,74,-1
 -20 -6 l 1,75,-1
 738 -6 l 1,76,-1
 738 -28 l 1,73,-1
-14 320 m 1,77,-1
 -20 320 l 1,78,-1
 -20 342 l 1,79,-1
 -14 342 l 1,80,-1
 -14 320 l 1,77,-1
EndSplineSet
EndChar

StartChar: tm_ikaar
Encoding: 3007 3007 84
Width: 395
GlyphClass: 2
Flags: W
LayerCount: 2
Fore
SplineSet
286 1514 m 1,0,-1
 274 704 l 2,1,2
 272 548 272 548 148 548 c 0,3,4
 104 548 104 548 75 584 c 128,-1,5
 46 620 46 620 46 678 c 0,6,7
 46 806 46 806 122 806 c 0,8,9
 150 806 150 806 168 776 c 128,-1,10
 186 746 186 746 186 708 c 0,11,12
 186 650 186 650 148 616 c 1,13,14
 210 604 210 604 210 694 c 2,15,-1
 210 1224 l 1,16,-1
 -140 1008 l 1,17,-1
 -140 876 l 1,18,-1
 -202 840 l 1,19,-1
 -202 1214 l 1,20,-1
 286 1514 l 1,0,-1
EndSplineSet
EndChar

StartChar: tm_iikaar
Encoding: 3008 3008 85
Width: 249
GlyphClass: 4
Flags: W
LayerCount: 2
Fore
SplineSet
-188 806 m 1,0,-1
 -184 1392 l 1,1,-1
 180 1616 l 1,2,-1
 172 1196 l 2,3,4
 168 1010 168 1010 24 1010 c 0,5,6
 -82 1010 -82 1010 -82 1122 c 0,7,8
 -82 1230 -82 1230 6 1230 c 0,9,10
 76 1230 76 1230 76 1158 c 0,11,12
 76 1096 76 1096 50 1068 c 1,13,14
 110 1106 110 1106 108 1198 c 2,15,-1
 104 1344 l 1,16,-1
 -118 1206 l 1,17,-1
 -118 846 l 1,18,-1
 -188 806 l 1,0,-1
EndSplineSet
EndChar

StartChar: tm_ekaar
Encoding: 3014 3014 88
Width: 926
GlyphClass: 2
Flags: W
LayerCount: 2
Fore
SplineSet
946 668 m 1,0,-1
 922 668 l 1,1,-1
 918 690 l 1,2,-1
 946 690 l 1,3,-1
 946 668 l 1,0,-1
946 494 m 1,4,-1
 920 494 l 1,5,-1
 922 516 l 1,6,-1
 946 516 l 1,7,-1
 946 494 l 1,4,-1
946 320 m 1,8,-1
 906 320 l 1,9,-1
 908 342 l 1,10,-1
 946 342 l 1,11,-1
 946 320 l 1,8,-1
702 668 m 1,12,-1
 196 668 l 1,13,-1
 208 690 l 1,14,-1
 694 690 l 1,15,-1
 702 668 l 1,12,-1
946 146 m 1,16,-1
 898 146 l 1,17,-1
 898 168 l 1,18,-1
 946 168 l 1,19,-1
 946 146 l 1,16,-1
732 494 m 1,20,-1
 156 494 l 1,21,-1
 158 516 l 1,22,-1
 728 516 l 1,23,-1
 732 494 l 1,20,-1
734 320 m 1,24,-1
 434 320 l 1,25,-1
 432 342 l 1,26,-1
 734 342 l 1,27,-1
 734 320 l 1,24,-1
946 -28 m 1,28,-1
 908 -28 l 1,29,-1
 904 -6 l 1,30,-1
 946 -6 l 1,31,-1
 946 -28 l 1,28,-1
914 -174 m 0,32,33
 914 -180 914 -180 912 -178 c 0,34,35
 806 -104 806 -104 710 -104 c 0,36,37
 682 -104 682 -104 652 -108 c 1,38,39
 654 -106 654 -106 650 -102 c 1,40,41
 704 -38 704 -38 739 93 c 128,-1,42
 774 224 774 224 774 358 c 0,43,44
 774 600 774 600 724 718 c 0,45,46
 656 872 656 872 484 872 c 0,47,48
 286 872 286 872 192 732 c 0,49,50
 112 616 112 616 112 418 c 0,51,52
 112 206 112 206 192 144 c 1,53,54
 144 240 144 240 144 338 c 0,55,56
 144 402 144 402 177 441 c 128,-1,57
 210 480 210 480 262 480 c 0,58,59
 328 480 328 480 366 412 c 0,60,61
 398 354 398 354 398 272 c 0,62,63
 398 188 398 188 366 132 c 0,64,65
 328 64 328 64 258 64 c 0,66,67
 158 64 158 64 100 146 c 0,68,69
 28 242 28 242 28 444 c 0,70,71
 28 672 28 672 148 846 c 0,72,73
 278 1034 278 1034 476 1034 c 0,74,75
 658 1034 658 1034 768 926 c 0,76,77
 884 812 884 812 884 602 c 0,78,79
 884 540 884 540 870 364 c 128,-1,80
 856 188 856 188 856 98 c 0,81,82
 856 30 856 30 872 -52 c 0,83,84
 890 -144 890 -144 914 -174 c 0,32,33
716 168 m 1,85,-1
 712 146 l 1,86,-1
 414 146 l 1,87,-1
 422 168 l 1,88,-1
 716 168 l 1,85,-1
30 690 m 1,89,-1
 24 668 l 1,90,-1
 -20 668 l 1,91,-1
 -20 690 l 1,92,-1
 30 690 l 1,89,-1
-8 516 m 1,93,-1
 -10 494 l 1,94,-1
 -20 494 l 1,95,-1
 -20 516 l 1,96,-1
 -8 516 l 1,93,-1
-4 320 m 1,97,-1
 -20 320 l 1,98,-1
 -20 342 l 1,99,-1
 -6 342 l 1,100,-1
 -4 320 l 1,97,-1
664 -6 m 1,101,-1
 656 -28 l 1,102,-1
 -20 -28 l 1,103,-1
 -20 -6 l 1,104,-1
 664 -6 l 1,101,-1
58 146 m 1,105,-1
 -20 146 l 1,106,-1
 -20 168 l 1,107,-1
 46 168 l 1,108,-1
 58 146 l 1,105,-1
EndSplineSet
EndChar

StartChar: tm_eekaar
Encoding: 3015 3015 89
Width: 924
GlyphClass: 2
Flags: W
LayerCount: 2
Fore
SplineSet
944 668 m 1,0,-1
 798 668 l 1,1,-1
 814 690 l 1,2,-1
 944 690 l 1,3,-1
 944 668 l 1,0,-1
944 494 m 1,4,-1
 840 494 l 1,5,-1
 814 516 l 1,6,-1
 944 516 l 1,7,-1
 944 494 l 1,4,-1
944 320 m 1,8,-1
 928 320 l 1,9,-1
 922 342 l 1,10,-1
 944 342 l 1,11,-1
 944 320 l 1,8,-1
944 146 m 1,12,-1
 928 146 l 1,13,-1
 930 168 l 1,14,-1
 944 168 l 1,15,-1
 944 146 l 1,12,-1
384 668 m 1,16,-1
 184 668 l 1,17,-1
 192 690 l 1,18,-1
 368 690 l 1,19,-1
 384 668 l 1,16,-1
746 320 m 1,20,-1
 468 320 l 1,21,-1
 488 342 l 1,22,-1
 730 342 l 1,23,-1
 746 320 l 1,20,-1
894 244 m 0,24,25
 894 12 894 12 766 -140 c 0,26,27
 646 -282 646 -282 484 -282 c 0,28,29
 276 -282 276 -282 152 -113 c 128,-1,30
 28 56 28 56 28 360 c 0,31,32
 28 674 28 674 152 898 c 0,33,34
 294 1158 294 1158 544 1158 c 0,35,36
 664 1158 664 1158 740 1088 c 0,37,38
 826 1008 826 1008 826 866 c 0,39,40
 826 756 826 756 768 680 c 0,41,42
 702 596 702 596 590 596 c 0,43,44
 488 596 488 596 426 666 c 0,45,46
 370 730 370 730 370 824 c 0,47,48
 370 890 370 890 409 940 c 128,-1,49
 448 990 448 990 512 990 c 0,50,51
 546 990 546 990 570 966 c 128,-1,52
 594 942 594 942 594 902 c 0,53,54
 594 860 594 860 565 832 c 128,-1,55
 536 804 536 804 490 804 c 0,56,57
 470 804 470 804 448 810 c 1,58,59
 448 760 448 760 492 731 c 128,-1,60
 536 702 536 702 594 702 c 0,61,62
 662 702 662 702 709 742 c 128,-1,63
 756 782 756 782 756 846 c 0,64,65
 756 924 756 924 688 974 c 0,66,67
 626 1018 626 1018 546 1018 c 0,68,69
 344 1018 344 1018 223 836 c 128,-1,70
 102 654 102 654 102 372 c 0,71,72
 102 156 102 156 211 25 c 128,-1,73
 320 -106 320 -106 502 -106 c 0,74,75
 626 -106 626 -106 719 -10 c 128,-1,76
 812 86 812 86 812 214 c 0,77,78
 812 294 812 294 766 348 c 0,79,80
 712 408 712 408 614 408 c 0,81,82
 512 408 512 408 443 337 c 128,-1,83
 374 266 374 266 374 174 c 0,84,85
 374 134 374 134 388 98 c 1,86,87
 388 138 388 138 416 177 c 128,-1,88
 444 216 444 216 484 216 c 0,89,90
 540 216 540 216 574 177 c 128,-1,91
 608 138 608 138 608 84 c 0,92,93
 608 22 608 22 576 -26 c 128,-1,94
 544 -74 544 -74 488 -74 c 0,95,96
 420 -74 420 -74 371 5 c 128,-1,97
 322 84 322 84 322 204 c 0,98,99
 322 368 322 368 416 466 c 0,100,101
 506 558 506 558 648 558 c 0,102,103
 758 558 758 558 828 458 c 0,104,105
 894 368 894 368 894 244 c 0,24,25
944 -28 m 1,106,-1
 876 -28 l 1,107,-1
 888 -6 l 1,108,-1
 944 -6 l 1,109,-1
 944 -28 l 1,106,-1
768 168 m 1,110,-1
 764 146 l 1,111,-1
 634 146 l 1,112,-1
 624 168 l 1,113,-1
 768 168 l 1,110,-1
442 516 m 1,114,-1
 408 494 l 1,115,-1
 148 494 l 1,116,-1
 152 516 l 1,117,-1
 442 516 l 1,114,-1
30 690 m 1,118,-1
 24 668 l 1,119,-1
 -20 668 l 1,120,-1
 -20 690 l 1,121,-1
 30 690 l 1,118,-1
684 -6 m 1,122,-1
 662 -28 l 1,123,-1
 614 -28 l 1,124,-1
 628 -6 l 1,125,-1
 684 -6 l 1,122,-1
302 342 m 1,126,-1
 296 320 l 1,127,-1
 144 320 l 1,128,-1
 142 342 l 1,129,-1
 302 342 l 1,126,-1
-2 516 m 1,130,-1
 -6 494 l 1,131,-1
 -20 494 l 1,132,-1
 -20 516 l 1,133,-1
 -2 516 l 1,130,-1
286 146 m 1,134,-1
 180 146 l 1,135,-1
 172 168 l 1,136,-1
 284 168 l 1,137,-1
 286 146 l 1,134,-1
-10 320 m 1,138,-1
 -20 320 l 1,139,-1
 -20 342 l 1,140,-1
 -12 342 l 1,141,-1
 -10 320 l 1,138,-1
354 -28 m 1,142,-1
 306 -28 l 1,143,-1
 280 -6 l 1,144,-1
 338 -6 l 1,145,-1
 354 -28 l 1,142,-1
8 146 m 1,146,-1
 -20 146 l 1,147,-1
 -20 168 l 1,148,-1
 2 168 l 1,149,-1
 8 146 l 1,146,-1
64 -28 m 1,150,-1
 -20 -28 l 1,151,-1
 -20 -6 l 1,152,-1
 52 -6 l 1,153,-1
 64 -28 l 1,150,-1
EndSplineSet
EndChar

StartChar: tm_aikaar
Encoding: 3016 3016 90
Width: 1062
GlyphClass: 2
Flags: W
LayerCount: 2
Fore
SplineSet
1082 668 m 1,0,-1
 1010 668 l 1,1,-1
 992 690 l 1,2,-1
 1082 690 l 1,3,-1
 1082 668 l 1,0,-1
1082 494 m 1,4,-1
 1068 494 l 1,5,-1
 1066 516 l 1,6,-1
 1082 516 l 1,7,-1
 1082 494 l 1,4,-1
1082 320 m 1,8,-1
 1060 320 l 1,9,-1
 1064 342 l 1,10,-1
 1082 342 l 1,11,-1
 1082 320 l 1,8,-1
862 494 m 1,12,-1
 726 494 l 1,13,-1
 718 516 l 1,14,-1
 846 516 l 1,15,-1
 862 494 l 1,12,-1
1082 146 m 1,16,-1
 1018 146 l 1,17,-1
 1026 168 l 1,18,-1
 1082 168 l 1,19,-1
 1082 146 l 1,16,-1
896 320 m 1,20,-1
 756 320 l 1,21,-1
 752 342 l 1,22,-1
 896 342 l 1,23,-1
 896 320 l 1,20,-1
1082 -28 m 1,24,-1
 922 -28 l 1,25,-1
 942 -6 l 1,26,-1
 1082 -6 l 1,27,-1
 1082 -28 l 1,24,-1
874 168 m 1,28,-1
 866 146 l 1,29,-1
 732 146 l 1,30,-1
 740 168 l 1,31,-1
 874 168 l 1,28,-1
1030 440 m 0,32,33
 1030 268 1030 268 962 104 c 128,-1,34
 894 -60 894 -60 820 -60 c 0,35,36
 800 -60 800 -60 784 -39 c 128,-1,37
 768 -18 768 -18 768 6 c 0,38,39
 768 50 768 50 807 81 c 128,-1,40
 846 112 846 112 888 104 c 1,41,42
 936 198 936 198 936 336 c 0,43,44
 936 458 936 458 880 524 c 0,45,46
 832 578 832 578 758 578 c 0,47,48
 708 578 708 578 664 552 c 1,49,50
 716 444 716 444 716 286 c 0,51,52
 716 168 716 168 660 80 c 0,53,54
 598 -18 598 -18 502 -18 c 0,55,56
 428 -18 428 -18 380 48 c 0,57,58
 336 108 336 108 332 184 c 1,59,60
 324 138 324 138 289 102 c 128,-1,61
 254 66 254 66 206 66 c 0,62,63
 118 66 118 66 72 154 c 0,64,65
 32 230 32 230 32 346 c 0,66,67
 32 502 32 502 131 602 c 128,-1,68
 230 702 230 702 380 702 c 0,69,70
 492 702 492 702 566 660 c 1,71,72
 596 700 596 700 660 727 c 128,-1,73
 724 754 724 754 792 754 c 0,74,75
 918 754 918 754 980 654 c 0,76,77
 1030 572 1030 572 1030 440 c 0,32,33
244 690 m 1,78,-1
 182 668 l 1,79,-1
 -20 668 l 1,80,-1
 -20 690 l 1,81,-1
 244 690 l 1,78,-1
738 -28 m 1,82,-1
 550 -28 l 1,83,-1
 602 -6 l 1,84,-1
 730 -6 l 1,85,-1
 738 -28 l 1,82,-1
30 516 m 1,86,-1
 20 494 l 1,87,-1
 -20 494 l 1,88,-1
 -20 516 l 1,89,-1
 30 516 l 1,86,-1
-8 320 m 1,90,-1
 -20 320 l 1,91,-1
 -20 342 l 1,92,-1
 -8 342 l 1,93,-1
 -8 320 l 1,90,-1
458 -28 m 1,94,-1
 -20 -28 l 1,95,-1
 -20 -6 l 1,96,-1
 400 -6 l 1,97,-1
 458 -28 l 1,94,-1
36 146 m 1,98,-1
 -20 146 l 1,99,-1
 -20 168 l 1,100,-1
 24 168 l 1,101,-1
 36 146 l 1,98,-1
606 274 m 0,102,103
 606 440 606 440 480 502 c 1,104,105
 402 458 402 458 402 304 c 0,106,107
 402 246 402 246 439 199 c 128,-1,108
 476 152 476 152 526 152 c 0,109,110
 606 152 606 152 606 274 c 0,102,103
404 524 m 1,111,112
 380 526 380 526 358 526 c 0,113,114
 248 526 248 526 176 472 c 0,115,116
 92 406 92 406 92 284 c 0,117,118
 92 212 92 212 130 168 c 1,119,120
 118 208 118 208 118 256 c 0,121,122
 118 394 118 394 216 394 c 0,123,124
 300 394 300 394 332 294 c 1,125,126
 328 336 328 336 355 418 c 128,-1,127
 382 500 382 500 404 524 c 1,111,112
564 320 m 1,128,-1
 442 320 l 1,129,-1
 444 342 l 1,130,-1
 558 342 l 1,131,-1
 564 320 l 1,128,-1
356 516 m 1,132,-1
 346 494 l 1,133,-1
 254 494 l 1,134,-1
 310 516 l 1,135,-1
 356 516 l 1,132,-1
EndSplineSet
EndChar

StartChar: tm_halant
Encoding: 3021 3021 94
Width: 339
GlyphClass: 4
Flags: W
LayerCount: 2
Fore
SplineSet
223 1149 m 0,0,1
 157 1149 157 1149 109.5 1196.5 c 128,-1,2
 62 1244 62 1244 62 1310 c 0,3,4
 62 1378 62 1378 109.5 1424.5 c 128,-1,5
 157 1471 157 1471 223 1471 c 0,6,7
 290 1471 290 1471 337 1424.5 c 128,-1,8
 384 1378 384 1378 384 1310 c 0,9,10
 384 1244 384 1244 337 1196.5 c 128,-1,11
 290 1149 290 1149 223 1149 c 0,0,1
EndSplineSet
EndChar

StartChar: tm_two
Encoding: 3048 3048 97
Width: 1425
GlyphClass: 2
Flags: W
LayerCount: 2
Fore
SplineSet
1244 70 m 1,0,-1
 1226 0 l 1,1,-1
 586 0 l 2,2,3
 429 0 429 0 429 106 c 0,4,5
 429 153 429 153 478 181.5 c 128,-1,6
 527 210 527 210 586 210 c 2,7,-1
 779 210 l 2,8,9
 867 210 867 210 928 271.5 c 128,-1,10
 989 333 989 333 989 420 c 0,11,12
 989 500 989 500 945 560.5 c 128,-1,13
 901 621 901 621 831 621 c 0,14,15
 793 621 793 621 744 595 c 1,16,17
 814 555 814 555 814 437 c 0,18,19
 814 382 814 382 772.5 344.5 c 128,-1,20
 731 307 731 307 675 307 c 0,21,22
 618 307 618 307 580 351 c 128,-1,23
 542 395 542 395 542 455 c 0,24,25
 542 565 542 565 646.5 632.5 c 128,-1,26
 751 700 751 700 884 700 c 0,27,28
 987 700 987 700 1058 629 c 128,-1,29
 1129 558 1129 558 1129 455 c 0,30,31
 1129 321 1129 321 1025.5 230.5 c 128,-1,32
 922 140 922 140 779 140 c 2,33,-1
 595 140 l 2,34,35
 551 140 551 140 551 106 c 0,36,37
 551 70 551 70 604 70 c 2,38,-1
 1244 70 l 1,0,-1
675 560 m 1,39,40
 621 516 621 516 621 473 c 0,41,42
 621 386 621 386 666 386 c 0,43,44
 709 386 709 386 709 473 c 0,45,46
 709 518 709 518 675 560 c 1,39,40
EndSplineSet
EndChar

StartChar: tm_three
Encoding: 3049 3049 98
Width: 1424
GlyphClass: 2
Flags: W
LayerCount: 2
Fore
SplineSet
1270 70 m 1,0,-1
 1252 0 l 1,1,-1
 640 0 l 1,2,-1
 657 70 l 1,3,-1
 780 70 l 2,4,5
 874 70 874 70 941 130.5 c 128,-1,6
 1008 191 1008 191 1008 280 c 0,7,8
 1008 317 1008 317 982.5 342.5 c 128,-1,9
 957 368 957 368 920 368 c 0,10,11
 890 368 890 368 865 341 c 128,-1,12
 840 314 840 314 833 280 c 2,13,-1
 815 193 l 1,14,-1
 675 193 l 1,15,-1
 764 630 l 1,16,-1
 571 630 l 1,17,-1
 444 0 l 1,18,-1
 378 0 l 1,19,-1
 517 700 l 1,20,-1
 1095 700 l 1,21,-1
 1077 630 l 1,22,-1
 902 630 l 1,23,-1
 859 403 l 1,24,25
 918 455 918 455 990 455 c 0,26,27
 1057 455 1057 455 1102.5 403.5 c 128,-1,28
 1148 352 1148 352 1148 280 c 0,29,30
 1148 209 1148 209 1090 151 c 128,-1,31
 1032 93 1032 93 947 70 c 1,32,-1
 1270 70 l 1,0,-1
EndSplineSet
EndChar

StartChar: tm_four
Encoding: 3050 3050 99
Width: 1427
GlyphClass: 2
Flags: W
LayerCount: 2
Fore
SplineSet
915 316 m 1,0,-1
 644 316 l 2,1,2
 601 316 601 316 570.5 291 c 128,-1,3
 540 266 540 266 540 228 c 0,4,5
 540 158 540 158 609.5 114 c 128,-1,6
 679 70 679 70 766 70 c 0,7,8
 811 70 811 70 844 99.5 c 128,-1,9
 877 129 877 129 887 175 c 2,10,-1
 915 316 l 1,0,-1
979 630 m 1,11,-1
 784 630 l 1,12,-1
 735 386 l 1,13,-1
 930 386 l 1,14,-1
 979 630 l 1,11,-1
1042 245 m 2,15,16
 1017 125 1017 125 940 62.5 c 128,-1,17
 863 0 863 0 766 0 c 0,18,19
 651 0 651 0 559.5 64 c 128,-1,20
 468 128 468 128 468 228 c 0,21,22
 468 294 468 294 520.5 340 c 128,-1,23
 573 386 573 386 644 386 c 2,24,-1
 669 386 l 1,25,-1
 731 700 l 1,26,-1
 1344 700 l 1,27,-1
 1329 630 l 1,28,-1
 1118 630 l 1,29,-1
 1068 386 l 1,30,-1
 1232 386 l 1,31,-1
 1248 464 l 1,32,-1
 1309 464 l 1,33,-1
 1279 316 l 1,34,-1
 1055 316 l 1,35,-1
 1042 245 l 2,15,16
EndSplineSet
EndChar

StartChar: tm_five
Encoding: 3051 3051 100
Width: 1424
GlyphClass: 2
Flags: W
LayerCount: 2
Fore
SplineSet
1412 517 m 1,0,-1
 1359 526 l 1,1,2
 1369 563 1369 563 1369 598 c 0,3,4
 1369 723 1369 723 1253.5 825.5 c 128,-1,5
 1138 928 1138 928 965 928 c 0,6,7
 728 928 728 928 575.5 716 c 128,-1,8
 423 504 423 504 423 228 c 0,9,10
 423 -43 423 -43 515 -179.5 c 128,-1,11
 607 -316 607 -316 790 -316 c 0,12,13
 979 -316 979 -316 1103.5 -163.5 c 128,-1,14
 1228 -11 1228 -11 1228 193 c 0,15,16
 1228 257 1228 257 1200 304.5 c 128,-1,17
 1172 352 1172 352 1126 352 c 0,18,19
 1099 352 1099 352 1072.5 336.5 c 128,-1,20
 1046 321 1046 321 1039 298 c 2,21,-1
 980 0 l 1,22,-1
 840 0 l 1,23,-1
 965 630 l 1,24,-1
 759 630 l 1,25,-1
 634 0 l 1,26,-1
 566 0 l 1,27,-1
 706 700 l 1,28,-1
 1237 700 l 1,29,-1
 1219 630 l 1,30,-1
 1105 630 l 1,31,-1
 1057 386 l 1,32,33
 1101 437 1101 437 1171 437 c 0,34,35
 1261 437 1261 437 1314.5 368.5 c 128,-1,36
 1368 300 1368 300 1368 193 c 0,37,38
 1368 -47 1368 -47 1202.5 -216 c 128,-1,39
 1037 -385 1037 -385 799 -385 c 0,40,41
 589 -385 589 -385 471.5 -223 c 128,-1,42
 354 -61 354 -61 354 193 c 0,43,44
 354 513 354 513 519 764 c 128,-1,45
 684 1015 684 1015 948 1015 c 0,46,47
 1152 1015 1152 1015 1288.5 889.5 c 128,-1,48
 1425 764 1425 764 1425 613 c 0,49,50
 1425 566 1425 566 1412 517 c 1,0,-1
EndSplineSet
EndChar

StartChar: tm_six
Encoding: 3052 3052 101
Width: 1424
GlyphClass: 2
Flags: W
LayerCount: 2
Fore
SplineSet
784 316 m 1,0,-1
 513 316 l 2,1,2
 469 316 469 316 438 291 c 128,-1,3
 407 266 407 266 407 228 c 0,4,5
 407 158 407 158 477 114 c 128,-1,6
 547 70 547 70 635 70 c 0,7,8
 680 70 680 70 713 99.5 c 128,-1,9
 746 129 746 129 756 175 c 2,10,-1
 784 316 l 1,0,-1
846 630 m 1,11,-1
 653 630 l 1,12,-1
 603 386 l 1,13,-1
 798 386 l 1,14,-1
 846 630 l 1,11,-1
910 245 m 2,15,16
 884 125 884 125 808 62.5 c 128,-1,17
 732 0 732 0 635 0 c 0,18,19
 518 0 518 0 428 64 c 128,-1,20
 338 128 338 128 338 228 c 0,21,22
 338 294 338 294 389.5 340 c 128,-1,23
 441 386 441 386 513 386 c 2,24,-1
 537 386 l 1,25,-1
 600 700 l 1,26,-1
 1229 700 l 1,27,-1
 1213 630 l 1,28,-1
 988 630 l 1,29,-1
 938 386 l 1,30,-1
 1422 386 l 1,31,-1
 1410 316 l 1,32,-1
 1353 316 l 1,33,-1
 1291 0 l 1,34,-1
 1151 0 l 1,35,-1
 1213 316 l 1,36,-1
 1116 316 l 1,37,-1
 1055 0 l 1,38,-1
 967 0 l 1,39,-1
 1028 316 l 1,40,-1
 924 316 l 1,41,-1
 910 245 l 2,15,16
EndSplineSet
EndChar

StartChar: tm_seven
Encoding: 3053 3053 102
Width: 1425
GlyphClass: 2
Flags: W
LayerCount: 2
Fore
SplineSet
643 88 m 1,0,1
 706 88 706 88 753 128 c 128,-1,2
 800 168 800 168 800 228 c 0,3,4
 800 269 800 269 781 301 c 128,-1,5
 762 333 762 333 729 333 c 0,6,7
 684 333 684 333 654.5 296.5 c 128,-1,8
 625 260 625 260 625 210 c 0,9,10
 625 135 625 135 643 88 c 1,0,1
1042 0 m 1,11,-1
 1167 630 l 1,12,-1
 852 630 l 2,13,14
 704 630 704 630 594.5 540.5 c 128,-1,15
 485 451 485 451 485 316 c 0,16,17
 485 247 485 247 507 194.5 c 128,-1,18
 529 142 529 142 572 106 c 1,19,20
 555 135 555 135 555 228 c 256,21,22
 555 321 555 321 614.5 388 c 128,-1,23
 674 455 674 455 765 455 c 0,24,25
 837 455 837 455 884 398 c 128,-1,26
 931 341 931 341 931 263 c 0,27,28
 931 155 931 155 863 77.5 c 128,-1,29
 795 0 795 0 695 0 c 0,30,31
 576 0 576 0 495.5 94 c 128,-1,32
 415 188 415 188 415 316 c 0,33,34
 415 481 415 481 545.5 590.5 c 128,-1,35
 676 700 676 700 852 700 c 2,36,-1
 1430 700 l 1,37,-1
 1412 630 l 1,38,-1
 1307 630 l 1,39,-1
 1181 0 l 1,40,-1
 1042 0 l 1,11,-1
EndSplineSet
EndChar

